%TF.GenerationSoftware,KiCad,Pcbnew,9.0.7*%
%TF.CreationDate,2026-02-13T16:37:28+01:00*%
%TF.ProjectId,Alpha2_GO_PWM,416c7068-6132-45f4-974f-5f50574d2e6b,rev?*%
%TF.SameCoordinates,Original*%
%TF.FileFunction,Legend,Top*%
%TF.FilePolarity,Positive*%
%FSLAX46Y46*%
G04 Gerber Fmt 4.6, Leading zero omitted, Abs format (unit mm)*
G04 Created by KiCad (PCBNEW 9.0.7) date 2026-02-13 16:37:28*
%MOMM*%
%LPD*%
G01*
G04 APERTURE LIST*
%ADD10C,0.100000*%
%ADD11C,0.150000*%
%ADD12C,0.075000*%
%ADD13C,0.120000*%
G04 APERTURE END LIST*
D10*
X107199122Y-91209133D02*
X107532455Y-91209133D01*
X107132455Y-91409133D02*
X107365789Y-90709133D01*
X107365789Y-90709133D02*
X107599122Y-91409133D01*
X107932455Y-91409133D02*
X107865789Y-91375800D01*
X107865789Y-91375800D02*
X107832455Y-91309133D01*
X107832455Y-91309133D02*
X107832455Y-90709133D01*
X108199122Y-90942466D02*
X108199122Y-91642466D01*
X108199122Y-90975800D02*
X108265789Y-90942466D01*
X108265789Y-90942466D02*
X108399122Y-90942466D01*
X108399122Y-90942466D02*
X108465789Y-90975800D01*
X108465789Y-90975800D02*
X108499122Y-91009133D01*
X108499122Y-91009133D02*
X108532456Y-91075800D01*
X108532456Y-91075800D02*
X108532456Y-91275800D01*
X108532456Y-91275800D02*
X108499122Y-91342466D01*
X108499122Y-91342466D02*
X108465789Y-91375800D01*
X108465789Y-91375800D02*
X108399122Y-91409133D01*
X108399122Y-91409133D02*
X108265789Y-91409133D01*
X108265789Y-91409133D02*
X108199122Y-91375800D01*
X108832455Y-91409133D02*
X108832455Y-90709133D01*
X109132455Y-91409133D02*
X109132455Y-91042466D01*
X109132455Y-91042466D02*
X109099122Y-90975800D01*
X109099122Y-90975800D02*
X109032455Y-90942466D01*
X109032455Y-90942466D02*
X108932455Y-90942466D01*
X108932455Y-90942466D02*
X108865789Y-90975800D01*
X108865789Y-90975800D02*
X108832455Y-91009133D01*
X109765788Y-91409133D02*
X109765788Y-91042466D01*
X109765788Y-91042466D02*
X109732455Y-90975800D01*
X109732455Y-90975800D02*
X109665788Y-90942466D01*
X109665788Y-90942466D02*
X109532455Y-90942466D01*
X109532455Y-90942466D02*
X109465788Y-90975800D01*
X109765788Y-91375800D02*
X109699122Y-91409133D01*
X109699122Y-91409133D02*
X109532455Y-91409133D01*
X109532455Y-91409133D02*
X109465788Y-91375800D01*
X109465788Y-91375800D02*
X109432455Y-91309133D01*
X109432455Y-91309133D02*
X109432455Y-91242466D01*
X109432455Y-91242466D02*
X109465788Y-91175800D01*
X109465788Y-91175800D02*
X109532455Y-91142466D01*
X109532455Y-91142466D02*
X109699122Y-91142466D01*
X109699122Y-91142466D02*
X109765788Y-91109133D01*
X110065788Y-90775800D02*
X110099121Y-90742466D01*
X110099121Y-90742466D02*
X110165788Y-90709133D01*
X110165788Y-90709133D02*
X110332455Y-90709133D01*
X110332455Y-90709133D02*
X110399121Y-90742466D01*
X110399121Y-90742466D02*
X110432455Y-90775800D01*
X110432455Y-90775800D02*
X110465788Y-90842466D01*
X110465788Y-90842466D02*
X110465788Y-90909133D01*
X110465788Y-90909133D02*
X110432455Y-91009133D01*
X110432455Y-91009133D02*
X110032455Y-91409133D01*
X110032455Y-91409133D02*
X110465788Y-91409133D01*
X110599122Y-91475800D02*
X111132455Y-91475800D01*
X111665788Y-90742466D02*
X111599121Y-90709133D01*
X111599121Y-90709133D02*
X111499121Y-90709133D01*
X111499121Y-90709133D02*
X111399121Y-90742466D01*
X111399121Y-90742466D02*
X111332455Y-90809133D01*
X111332455Y-90809133D02*
X111299121Y-90875800D01*
X111299121Y-90875800D02*
X111265788Y-91009133D01*
X111265788Y-91009133D02*
X111265788Y-91109133D01*
X111265788Y-91109133D02*
X111299121Y-91242466D01*
X111299121Y-91242466D02*
X111332455Y-91309133D01*
X111332455Y-91309133D02*
X111399121Y-91375800D01*
X111399121Y-91375800D02*
X111499121Y-91409133D01*
X111499121Y-91409133D02*
X111565788Y-91409133D01*
X111565788Y-91409133D02*
X111665788Y-91375800D01*
X111665788Y-91375800D02*
X111699121Y-91342466D01*
X111699121Y-91342466D02*
X111699121Y-91109133D01*
X111699121Y-91109133D02*
X111565788Y-91109133D01*
X112132455Y-90709133D02*
X112265788Y-90709133D01*
X112265788Y-90709133D02*
X112332455Y-90742466D01*
X112332455Y-90742466D02*
X112399121Y-90809133D01*
X112399121Y-90809133D02*
X112432455Y-90942466D01*
X112432455Y-90942466D02*
X112432455Y-91175800D01*
X112432455Y-91175800D02*
X112399121Y-91309133D01*
X112399121Y-91309133D02*
X112332455Y-91375800D01*
X112332455Y-91375800D02*
X112265788Y-91409133D01*
X112265788Y-91409133D02*
X112132455Y-91409133D01*
X112132455Y-91409133D02*
X112065788Y-91375800D01*
X112065788Y-91375800D02*
X111999121Y-91309133D01*
X111999121Y-91309133D02*
X111965788Y-91175800D01*
X111965788Y-91175800D02*
X111965788Y-90942466D01*
X111965788Y-90942466D02*
X111999121Y-90809133D01*
X111999121Y-90809133D02*
X112065788Y-90742466D01*
X112065788Y-90742466D02*
X112132455Y-90709133D01*
X112565788Y-91475800D02*
X113099121Y-91475800D01*
X113265787Y-91409133D02*
X113265787Y-90709133D01*
X113265787Y-90709133D02*
X113532454Y-90709133D01*
X113532454Y-90709133D02*
X113599121Y-90742466D01*
X113599121Y-90742466D02*
X113632454Y-90775800D01*
X113632454Y-90775800D02*
X113665787Y-90842466D01*
X113665787Y-90842466D02*
X113665787Y-90942466D01*
X113665787Y-90942466D02*
X113632454Y-91009133D01*
X113632454Y-91009133D02*
X113599121Y-91042466D01*
X113599121Y-91042466D02*
X113532454Y-91075800D01*
X113532454Y-91075800D02*
X113265787Y-91075800D01*
X113899121Y-90709133D02*
X114065787Y-91409133D01*
X114065787Y-91409133D02*
X114199121Y-90909133D01*
X114199121Y-90909133D02*
X114332454Y-91409133D01*
X114332454Y-91409133D02*
X114499121Y-90709133D01*
X114765787Y-91409133D02*
X114765787Y-90709133D01*
X114765787Y-90709133D02*
X114999121Y-91209133D01*
X114999121Y-91209133D02*
X115232454Y-90709133D01*
X115232454Y-90709133D02*
X115232454Y-91409133D01*
X96290476Y-107857419D02*
X96623809Y-108857419D01*
X96623809Y-108857419D02*
X96957142Y-107857419D01*
X97814285Y-108857419D02*
X97242857Y-108857419D01*
X97528571Y-108857419D02*
X97528571Y-107857419D01*
X97528571Y-107857419D02*
X97433333Y-108000276D01*
X97433333Y-108000276D02*
X97338095Y-108095514D01*
X97338095Y-108095514D02*
X97242857Y-108143133D01*
D11*
X101214284Y-114454819D02*
X101214284Y-113454819D01*
X101214284Y-113454819D02*
X101452379Y-113454819D01*
X101452379Y-113454819D02*
X101595236Y-113502438D01*
X101595236Y-113502438D02*
X101690474Y-113597676D01*
X101690474Y-113597676D02*
X101738093Y-113692914D01*
X101738093Y-113692914D02*
X101785712Y-113883390D01*
X101785712Y-113883390D02*
X101785712Y-114026247D01*
X101785712Y-114026247D02*
X101738093Y-114216723D01*
X101738093Y-114216723D02*
X101690474Y-114311961D01*
X101690474Y-114311961D02*
X101595236Y-114407200D01*
X101595236Y-114407200D02*
X101452379Y-114454819D01*
X101452379Y-114454819D02*
X101214284Y-114454819D01*
X102785712Y-114359580D02*
X102738093Y-114407200D01*
X102738093Y-114407200D02*
X102595236Y-114454819D01*
X102595236Y-114454819D02*
X102499998Y-114454819D01*
X102499998Y-114454819D02*
X102357141Y-114407200D01*
X102357141Y-114407200D02*
X102261903Y-114311961D01*
X102261903Y-114311961D02*
X102214284Y-114216723D01*
X102214284Y-114216723D02*
X102166665Y-114026247D01*
X102166665Y-114026247D02*
X102166665Y-113883390D01*
X102166665Y-113883390D02*
X102214284Y-113692914D01*
X102214284Y-113692914D02*
X102261903Y-113597676D01*
X102261903Y-113597676D02*
X102357141Y-113502438D01*
X102357141Y-113502438D02*
X102499998Y-113454819D01*
X102499998Y-113454819D02*
X102595236Y-113454819D01*
X102595236Y-113454819D02*
X102738093Y-113502438D01*
X102738093Y-113502438D02*
X102785712Y-113550057D01*
X103214284Y-114073866D02*
X103976189Y-114073866D01*
X104452379Y-114454819D02*
X104452379Y-113454819D01*
X104452379Y-113454819D02*
X104690474Y-113454819D01*
X104690474Y-113454819D02*
X104833331Y-113502438D01*
X104833331Y-113502438D02*
X104928569Y-113597676D01*
X104928569Y-113597676D02*
X104976188Y-113692914D01*
X104976188Y-113692914D02*
X105023807Y-113883390D01*
X105023807Y-113883390D02*
X105023807Y-114026247D01*
X105023807Y-114026247D02*
X104976188Y-114216723D01*
X104976188Y-114216723D02*
X104928569Y-114311961D01*
X104928569Y-114311961D02*
X104833331Y-114407200D01*
X104833331Y-114407200D02*
X104690474Y-114454819D01*
X104690474Y-114454819D02*
X104452379Y-114454819D01*
X105309522Y-113454819D02*
X105642855Y-114454819D01*
X105642855Y-114454819D02*
X105976188Y-113454819D01*
X107071427Y-114454819D02*
X107071427Y-113454819D01*
X107071427Y-113835771D02*
X107166665Y-113788152D01*
X107166665Y-113788152D02*
X107357141Y-113788152D01*
X107357141Y-113788152D02*
X107452379Y-113835771D01*
X107452379Y-113835771D02*
X107499998Y-113883390D01*
X107499998Y-113883390D02*
X107547617Y-113978628D01*
X107547617Y-113978628D02*
X107547617Y-114264342D01*
X107547617Y-114264342D02*
X107499998Y-114359580D01*
X107499998Y-114359580D02*
X107452379Y-114407200D01*
X107452379Y-114407200D02*
X107357141Y-114454819D01*
X107357141Y-114454819D02*
X107166665Y-114454819D01*
X107166665Y-114454819D02*
X107071427Y-114407200D01*
X108404760Y-113788152D02*
X108404760Y-114454819D01*
X107976189Y-113788152D02*
X107976189Y-114311961D01*
X107976189Y-114311961D02*
X108023808Y-114407200D01*
X108023808Y-114407200D02*
X108119046Y-114454819D01*
X108119046Y-114454819D02*
X108261903Y-114454819D01*
X108261903Y-114454819D02*
X108357141Y-114407200D01*
X108357141Y-114407200D02*
X108404760Y-114359580D01*
X109309522Y-114407200D02*
X109214284Y-114454819D01*
X109214284Y-114454819D02*
X109023808Y-114454819D01*
X109023808Y-114454819D02*
X108928570Y-114407200D01*
X108928570Y-114407200D02*
X108880951Y-114359580D01*
X108880951Y-114359580D02*
X108833332Y-114264342D01*
X108833332Y-114264342D02*
X108833332Y-113978628D01*
X108833332Y-113978628D02*
X108880951Y-113883390D01*
X108880951Y-113883390D02*
X108928570Y-113835771D01*
X108928570Y-113835771D02*
X109023808Y-113788152D01*
X109023808Y-113788152D02*
X109214284Y-113788152D01*
X109214284Y-113788152D02*
X109309522Y-113835771D01*
X109738094Y-114454819D02*
X109738094Y-113454819D01*
X109833332Y-114073866D02*
X110119046Y-114454819D01*
X110119046Y-113788152D02*
X109738094Y-114169104D01*
X111738094Y-114407200D02*
X111642856Y-114454819D01*
X111642856Y-114454819D02*
X111452380Y-114454819D01*
X111452380Y-114454819D02*
X111357142Y-114407200D01*
X111357142Y-114407200D02*
X111309523Y-114359580D01*
X111309523Y-114359580D02*
X111261904Y-114264342D01*
X111261904Y-114264342D02*
X111261904Y-113978628D01*
X111261904Y-113978628D02*
X111309523Y-113883390D01*
X111309523Y-113883390D02*
X111357142Y-113835771D01*
X111357142Y-113835771D02*
X111452380Y-113788152D01*
X111452380Y-113788152D02*
X111642856Y-113788152D01*
X111642856Y-113788152D02*
X111738094Y-113835771D01*
X112309523Y-114454819D02*
X112214285Y-114407200D01*
X112214285Y-114407200D02*
X112166666Y-114359580D01*
X112166666Y-114359580D02*
X112119047Y-114264342D01*
X112119047Y-114264342D02*
X112119047Y-113978628D01*
X112119047Y-113978628D02*
X112166666Y-113883390D01*
X112166666Y-113883390D02*
X112214285Y-113835771D01*
X112214285Y-113835771D02*
X112309523Y-113788152D01*
X112309523Y-113788152D02*
X112452380Y-113788152D01*
X112452380Y-113788152D02*
X112547618Y-113835771D01*
X112547618Y-113835771D02*
X112595237Y-113883390D01*
X112595237Y-113883390D02*
X112642856Y-113978628D01*
X112642856Y-113978628D02*
X112642856Y-114264342D01*
X112642856Y-114264342D02*
X112595237Y-114359580D01*
X112595237Y-114359580D02*
X112547618Y-114407200D01*
X112547618Y-114407200D02*
X112452380Y-114454819D01*
X112452380Y-114454819D02*
X112309523Y-114454819D01*
X113071428Y-113788152D02*
X113071428Y-114454819D01*
X113071428Y-113883390D02*
X113119047Y-113835771D01*
X113119047Y-113835771D02*
X113214285Y-113788152D01*
X113214285Y-113788152D02*
X113357142Y-113788152D01*
X113357142Y-113788152D02*
X113452380Y-113835771D01*
X113452380Y-113835771D02*
X113499999Y-113931009D01*
X113499999Y-113931009D02*
X113499999Y-114454819D01*
X113880952Y-113788152D02*
X114119047Y-114454819D01*
X114119047Y-114454819D02*
X114357142Y-113788152D01*
X115119047Y-114407200D02*
X115023809Y-114454819D01*
X115023809Y-114454819D02*
X114833333Y-114454819D01*
X114833333Y-114454819D02*
X114738095Y-114407200D01*
X114738095Y-114407200D02*
X114690476Y-114311961D01*
X114690476Y-114311961D02*
X114690476Y-113931009D01*
X114690476Y-113931009D02*
X114738095Y-113835771D01*
X114738095Y-113835771D02*
X114833333Y-113788152D01*
X114833333Y-113788152D02*
X115023809Y-113788152D01*
X115023809Y-113788152D02*
X115119047Y-113835771D01*
X115119047Y-113835771D02*
X115166666Y-113931009D01*
X115166666Y-113931009D02*
X115166666Y-114026247D01*
X115166666Y-114026247D02*
X114690476Y-114121485D01*
X115595238Y-114454819D02*
X115595238Y-113788152D01*
X115595238Y-113978628D02*
X115642857Y-113883390D01*
X115642857Y-113883390D02*
X115690476Y-113835771D01*
X115690476Y-113835771D02*
X115785714Y-113788152D01*
X115785714Y-113788152D02*
X115880952Y-113788152D01*
X116071429Y-113788152D02*
X116452381Y-113788152D01*
X116214286Y-113454819D02*
X116214286Y-114311961D01*
X116214286Y-114311961D02*
X116261905Y-114407200D01*
X116261905Y-114407200D02*
X116357143Y-114454819D01*
X116357143Y-114454819D02*
X116452381Y-114454819D01*
X117166667Y-114407200D02*
X117071429Y-114454819D01*
X117071429Y-114454819D02*
X116880953Y-114454819D01*
X116880953Y-114454819D02*
X116785715Y-114407200D01*
X116785715Y-114407200D02*
X116738096Y-114311961D01*
X116738096Y-114311961D02*
X116738096Y-113931009D01*
X116738096Y-113931009D02*
X116785715Y-113835771D01*
X116785715Y-113835771D02*
X116880953Y-113788152D01*
X116880953Y-113788152D02*
X117071429Y-113788152D01*
X117071429Y-113788152D02*
X117166667Y-113835771D01*
X117166667Y-113835771D02*
X117214286Y-113931009D01*
X117214286Y-113931009D02*
X117214286Y-114026247D01*
X117214286Y-114026247D02*
X116738096Y-114121485D01*
X117642858Y-114454819D02*
X117642858Y-113788152D01*
X117642858Y-113978628D02*
X117690477Y-113883390D01*
X117690477Y-113883390D02*
X117738096Y-113835771D01*
X117738096Y-113835771D02*
X117833334Y-113788152D01*
X117833334Y-113788152D02*
X117928572Y-113788152D01*
X100833333Y-110109580D02*
X100785714Y-110157200D01*
X100785714Y-110157200D02*
X100642857Y-110204819D01*
X100642857Y-110204819D02*
X100547619Y-110204819D01*
X100547619Y-110204819D02*
X100404762Y-110157200D01*
X100404762Y-110157200D02*
X100309524Y-110061961D01*
X100309524Y-110061961D02*
X100261905Y-109966723D01*
X100261905Y-109966723D02*
X100214286Y-109776247D01*
X100214286Y-109776247D02*
X100214286Y-109633390D01*
X100214286Y-109633390D02*
X100261905Y-109442914D01*
X100261905Y-109442914D02*
X100309524Y-109347676D01*
X100309524Y-109347676D02*
X100404762Y-109252438D01*
X100404762Y-109252438D02*
X100547619Y-109204819D01*
X100547619Y-109204819D02*
X100642857Y-109204819D01*
X100642857Y-109204819D02*
X100785714Y-109252438D01*
X100785714Y-109252438D02*
X100833333Y-109300057D01*
X101785714Y-110204819D02*
X101214286Y-110204819D01*
X101500000Y-110204819D02*
X101500000Y-109204819D01*
X101500000Y-109204819D02*
X101404762Y-109347676D01*
X101404762Y-109347676D02*
X101309524Y-109442914D01*
X101309524Y-109442914D02*
X101214286Y-109490533D01*
D10*
X106751966Y-106050000D02*
X106785300Y-106083333D01*
X106785300Y-106083333D02*
X106818633Y-106183333D01*
X106818633Y-106183333D02*
X106818633Y-106250000D01*
X106818633Y-106250000D02*
X106785300Y-106350000D01*
X106785300Y-106350000D02*
X106718633Y-106416667D01*
X106718633Y-106416667D02*
X106651966Y-106450000D01*
X106651966Y-106450000D02*
X106518633Y-106483333D01*
X106518633Y-106483333D02*
X106418633Y-106483333D01*
X106418633Y-106483333D02*
X106285300Y-106450000D01*
X106285300Y-106450000D02*
X106218633Y-106416667D01*
X106218633Y-106416667D02*
X106151966Y-106350000D01*
X106151966Y-106350000D02*
X106118633Y-106250000D01*
X106118633Y-106250000D02*
X106118633Y-106183333D01*
X106118633Y-106183333D02*
X106151966Y-106083333D01*
X106151966Y-106083333D02*
X106185300Y-106050000D01*
X106885300Y-105916667D02*
X106885300Y-105383333D01*
X106818633Y-104850000D02*
X106818633Y-105250000D01*
X106818633Y-105050000D02*
X106118633Y-105050000D01*
X106118633Y-105050000D02*
X106218633Y-105116667D01*
X106218633Y-105116667D02*
X106285300Y-105183334D01*
X106285300Y-105183334D02*
X106318633Y-105250000D01*
X106118633Y-104416667D02*
X106118633Y-104350000D01*
X106118633Y-104350000D02*
X106151966Y-104283333D01*
X106151966Y-104283333D02*
X106185300Y-104250000D01*
X106185300Y-104250000D02*
X106251966Y-104216667D01*
X106251966Y-104216667D02*
X106385300Y-104183333D01*
X106385300Y-104183333D02*
X106551966Y-104183333D01*
X106551966Y-104183333D02*
X106685300Y-104216667D01*
X106685300Y-104216667D02*
X106751966Y-104250000D01*
X106751966Y-104250000D02*
X106785300Y-104283333D01*
X106785300Y-104283333D02*
X106818633Y-104350000D01*
X106818633Y-104350000D02*
X106818633Y-104416667D01*
X106818633Y-104416667D02*
X106785300Y-104483333D01*
X106785300Y-104483333D02*
X106751966Y-104516667D01*
X106751966Y-104516667D02*
X106685300Y-104550000D01*
X106685300Y-104550000D02*
X106551966Y-104583333D01*
X106551966Y-104583333D02*
X106385300Y-104583333D01*
X106385300Y-104583333D02*
X106251966Y-104550000D01*
X106251966Y-104550000D02*
X106185300Y-104516667D01*
X106185300Y-104516667D02*
X106151966Y-104483333D01*
X106151966Y-104483333D02*
X106118633Y-104416667D01*
X106118633Y-103750000D02*
X106118633Y-103683333D01*
X106118633Y-103683333D02*
X106151966Y-103616666D01*
X106151966Y-103616666D02*
X106185300Y-103583333D01*
X106185300Y-103583333D02*
X106251966Y-103550000D01*
X106251966Y-103550000D02*
X106385300Y-103516666D01*
X106385300Y-103516666D02*
X106551966Y-103516666D01*
X106551966Y-103516666D02*
X106685300Y-103550000D01*
X106685300Y-103550000D02*
X106751966Y-103583333D01*
X106751966Y-103583333D02*
X106785300Y-103616666D01*
X106785300Y-103616666D02*
X106818633Y-103683333D01*
X106818633Y-103683333D02*
X106818633Y-103750000D01*
X106818633Y-103750000D02*
X106785300Y-103816666D01*
X106785300Y-103816666D02*
X106751966Y-103850000D01*
X106751966Y-103850000D02*
X106685300Y-103883333D01*
X106685300Y-103883333D02*
X106551966Y-103916666D01*
X106551966Y-103916666D02*
X106385300Y-103916666D01*
X106385300Y-103916666D02*
X106251966Y-103883333D01*
X106251966Y-103883333D02*
X106185300Y-103850000D01*
X106185300Y-103850000D02*
X106151966Y-103816666D01*
X106151966Y-103816666D02*
X106118633Y-103750000D01*
X106118633Y-103083333D02*
X106118633Y-103016666D01*
X106118633Y-103016666D02*
X106151966Y-102949999D01*
X106151966Y-102949999D02*
X106185300Y-102916666D01*
X106185300Y-102916666D02*
X106251966Y-102883333D01*
X106251966Y-102883333D02*
X106385300Y-102849999D01*
X106385300Y-102849999D02*
X106551966Y-102849999D01*
X106551966Y-102849999D02*
X106685300Y-102883333D01*
X106685300Y-102883333D02*
X106751966Y-102916666D01*
X106751966Y-102916666D02*
X106785300Y-102949999D01*
X106785300Y-102949999D02*
X106818633Y-103016666D01*
X106818633Y-103016666D02*
X106818633Y-103083333D01*
X106818633Y-103083333D02*
X106785300Y-103149999D01*
X106785300Y-103149999D02*
X106751966Y-103183333D01*
X106751966Y-103183333D02*
X106685300Y-103216666D01*
X106685300Y-103216666D02*
X106551966Y-103249999D01*
X106551966Y-103249999D02*
X106385300Y-103249999D01*
X106385300Y-103249999D02*
X106251966Y-103216666D01*
X106251966Y-103216666D02*
X106185300Y-103183333D01*
X106185300Y-103183333D02*
X106151966Y-103149999D01*
X106151966Y-103149999D02*
X106118633Y-103083333D01*
X106351966Y-102549999D02*
X107051966Y-102549999D01*
X106718633Y-102216666D02*
X106785300Y-102183332D01*
X106785300Y-102183332D02*
X106818633Y-102116666D01*
X106718633Y-102549999D02*
X106785300Y-102516666D01*
X106785300Y-102516666D02*
X106818633Y-102449999D01*
X106818633Y-102449999D02*
X106818633Y-102316666D01*
X106818633Y-102316666D02*
X106785300Y-102249999D01*
X106785300Y-102249999D02*
X106718633Y-102216666D01*
X106718633Y-102216666D02*
X106351966Y-102216666D01*
X106451966Y-101583333D02*
X106451966Y-101816666D01*
X106818633Y-101816666D02*
X106118633Y-101816666D01*
X106118633Y-101816666D02*
X106118633Y-101483333D01*
D11*
X107738095Y-89059819D02*
X107738095Y-89869342D01*
X107738095Y-89869342D02*
X107785714Y-89964580D01*
X107785714Y-89964580D02*
X107833333Y-90012200D01*
X107833333Y-90012200D02*
X107928571Y-90059819D01*
X107928571Y-90059819D02*
X108119047Y-90059819D01*
X108119047Y-90059819D02*
X108214285Y-90012200D01*
X108214285Y-90012200D02*
X108261904Y-89964580D01*
X108261904Y-89964580D02*
X108309523Y-89869342D01*
X108309523Y-89869342D02*
X108309523Y-89059819D01*
X108738095Y-89155057D02*
X108785714Y-89107438D01*
X108785714Y-89107438D02*
X108880952Y-89059819D01*
X108880952Y-89059819D02*
X109119047Y-89059819D01*
X109119047Y-89059819D02*
X109214285Y-89107438D01*
X109214285Y-89107438D02*
X109261904Y-89155057D01*
X109261904Y-89155057D02*
X109309523Y-89250295D01*
X109309523Y-89250295D02*
X109309523Y-89345533D01*
X109309523Y-89345533D02*
X109261904Y-89488390D01*
X109261904Y-89488390D02*
X108690476Y-90059819D01*
X108690476Y-90059819D02*
X109309523Y-90059819D01*
X101428095Y-77259819D02*
X101428095Y-78069342D01*
X101428095Y-78069342D02*
X101475714Y-78164580D01*
X101475714Y-78164580D02*
X101523333Y-78212200D01*
X101523333Y-78212200D02*
X101618571Y-78259819D01*
X101618571Y-78259819D02*
X101809047Y-78259819D01*
X101809047Y-78259819D02*
X101904285Y-78212200D01*
X101904285Y-78212200D02*
X101951904Y-78164580D01*
X101951904Y-78164580D02*
X101999523Y-78069342D01*
X101999523Y-78069342D02*
X101999523Y-77259819D01*
X102999523Y-78259819D02*
X102428095Y-78259819D01*
X102713809Y-78259819D02*
X102713809Y-77259819D01*
X102713809Y-77259819D02*
X102618571Y-77402676D01*
X102618571Y-77402676D02*
X102523333Y-77497914D01*
X102523333Y-77497914D02*
X102428095Y-77545533D01*
D10*
X96618633Y-79999999D02*
X96618633Y-79666666D01*
X96818633Y-80066666D02*
X96118633Y-79833333D01*
X96118633Y-79833333D02*
X96818633Y-79599999D01*
X96118633Y-79466666D02*
X96118633Y-79066666D01*
X96818633Y-79266666D02*
X96118633Y-79266666D01*
X96351966Y-78933333D02*
X96351966Y-78666666D01*
X96118633Y-78833333D02*
X96718633Y-78833333D01*
X96718633Y-78833333D02*
X96785300Y-78800000D01*
X96785300Y-78800000D02*
X96818633Y-78733333D01*
X96818633Y-78733333D02*
X96818633Y-78666666D01*
X96818633Y-78433333D02*
X96351966Y-78433333D01*
X96118633Y-78433333D02*
X96151966Y-78466666D01*
X96151966Y-78466666D02*
X96185300Y-78433333D01*
X96185300Y-78433333D02*
X96151966Y-78400000D01*
X96151966Y-78400000D02*
X96118633Y-78433333D01*
X96118633Y-78433333D02*
X96185300Y-78433333D01*
X96351966Y-78100000D02*
X96818633Y-78100000D01*
X96418633Y-78100000D02*
X96385300Y-78066667D01*
X96385300Y-78066667D02*
X96351966Y-78000000D01*
X96351966Y-78000000D02*
X96351966Y-77900000D01*
X96351966Y-77900000D02*
X96385300Y-77833333D01*
X96385300Y-77833333D02*
X96451966Y-77800000D01*
X96451966Y-77800000D02*
X96818633Y-77800000D01*
X96351966Y-77533334D02*
X96818633Y-77366667D01*
X96351966Y-77200000D02*
X96818633Y-77366667D01*
X96818633Y-77366667D02*
X96985300Y-77433334D01*
X96985300Y-77433334D02*
X97018633Y-77466667D01*
X97018633Y-77466667D02*
X97051966Y-77533334D01*
X96418633Y-76833334D02*
X96385300Y-76900001D01*
X96385300Y-76900001D02*
X96351966Y-76933334D01*
X96351966Y-76933334D02*
X96285300Y-76966667D01*
X96285300Y-76966667D02*
X96251966Y-76966667D01*
X96251966Y-76966667D02*
X96185300Y-76933334D01*
X96185300Y-76933334D02*
X96151966Y-76900001D01*
X96151966Y-76900001D02*
X96118633Y-76833334D01*
X96118633Y-76833334D02*
X96118633Y-76700001D01*
X96118633Y-76700001D02*
X96151966Y-76633334D01*
X96151966Y-76633334D02*
X96185300Y-76600001D01*
X96185300Y-76600001D02*
X96251966Y-76566667D01*
X96251966Y-76566667D02*
X96285300Y-76566667D01*
X96285300Y-76566667D02*
X96351966Y-76600001D01*
X96351966Y-76600001D02*
X96385300Y-76633334D01*
X96385300Y-76633334D02*
X96418633Y-76700001D01*
X96418633Y-76700001D02*
X96418633Y-76833334D01*
X96418633Y-76833334D02*
X96451966Y-76900001D01*
X96451966Y-76900001D02*
X96485300Y-76933334D01*
X96485300Y-76933334D02*
X96551966Y-76966667D01*
X96551966Y-76966667D02*
X96685300Y-76966667D01*
X96685300Y-76966667D02*
X96751966Y-76933334D01*
X96751966Y-76933334D02*
X96785300Y-76900001D01*
X96785300Y-76900001D02*
X96818633Y-76833334D01*
X96818633Y-76833334D02*
X96818633Y-76700001D01*
X96818633Y-76700001D02*
X96785300Y-76633334D01*
X96785300Y-76633334D02*
X96751966Y-76600001D01*
X96751966Y-76600001D02*
X96685300Y-76566667D01*
X96685300Y-76566667D02*
X96551966Y-76566667D01*
X96551966Y-76566667D02*
X96485300Y-76600001D01*
X96485300Y-76600001D02*
X96451966Y-76633334D01*
X96451966Y-76633334D02*
X96418633Y-76700001D01*
X96118633Y-75933334D02*
X96118633Y-76266667D01*
X96118633Y-76266667D02*
X96451966Y-76300000D01*
X96451966Y-76300000D02*
X96418633Y-76266667D01*
X96418633Y-76266667D02*
X96385300Y-76200000D01*
X96385300Y-76200000D02*
X96385300Y-76033334D01*
X96385300Y-76033334D02*
X96418633Y-75966667D01*
X96418633Y-75966667D02*
X96451966Y-75933334D01*
X96451966Y-75933334D02*
X96518633Y-75900000D01*
X96518633Y-75900000D02*
X96685300Y-75900000D01*
X96685300Y-75900000D02*
X96751966Y-75933334D01*
X96751966Y-75933334D02*
X96785300Y-75966667D01*
X96785300Y-75966667D02*
X96818633Y-76033334D01*
X96818633Y-76033334D02*
X96818633Y-76200000D01*
X96818633Y-76200000D02*
X96785300Y-76266667D01*
X96785300Y-76266667D02*
X96751966Y-76300000D01*
X96551966Y-75600000D02*
X96551966Y-75066667D01*
X96185300Y-74766666D02*
X96151966Y-74733333D01*
X96151966Y-74733333D02*
X96118633Y-74666666D01*
X96118633Y-74666666D02*
X96118633Y-74500000D01*
X96118633Y-74500000D02*
X96151966Y-74433333D01*
X96151966Y-74433333D02*
X96185300Y-74400000D01*
X96185300Y-74400000D02*
X96251966Y-74366666D01*
X96251966Y-74366666D02*
X96318633Y-74366666D01*
X96318633Y-74366666D02*
X96418633Y-74400000D01*
X96418633Y-74400000D02*
X96818633Y-74800000D01*
X96818633Y-74800000D02*
X96818633Y-74366666D01*
X96118633Y-73933333D02*
X96118633Y-73866666D01*
X96118633Y-73866666D02*
X96151966Y-73799999D01*
X96151966Y-73799999D02*
X96185300Y-73766666D01*
X96185300Y-73766666D02*
X96251966Y-73733333D01*
X96251966Y-73733333D02*
X96385300Y-73699999D01*
X96385300Y-73699999D02*
X96551966Y-73699999D01*
X96551966Y-73699999D02*
X96685300Y-73733333D01*
X96685300Y-73733333D02*
X96751966Y-73766666D01*
X96751966Y-73766666D02*
X96785300Y-73799999D01*
X96785300Y-73799999D02*
X96818633Y-73866666D01*
X96818633Y-73866666D02*
X96818633Y-73933333D01*
X96818633Y-73933333D02*
X96785300Y-73999999D01*
X96785300Y-73999999D02*
X96751966Y-74033333D01*
X96751966Y-74033333D02*
X96685300Y-74066666D01*
X96685300Y-74066666D02*
X96551966Y-74099999D01*
X96551966Y-74099999D02*
X96385300Y-74099999D01*
X96385300Y-74099999D02*
X96251966Y-74066666D01*
X96251966Y-74066666D02*
X96185300Y-74033333D01*
X96185300Y-74033333D02*
X96151966Y-73999999D01*
X96151966Y-73999999D02*
X96118633Y-73933333D01*
X96818633Y-73399999D02*
X96118633Y-73399999D01*
X96118633Y-73399999D02*
X96118633Y-73133332D01*
X96118633Y-73133332D02*
X96151966Y-73066666D01*
X96151966Y-73066666D02*
X96185300Y-73033332D01*
X96185300Y-73033332D02*
X96251966Y-72999999D01*
X96251966Y-72999999D02*
X96351966Y-72999999D01*
X96351966Y-72999999D02*
X96418633Y-73033332D01*
X96418633Y-73033332D02*
X96451966Y-73066666D01*
X96451966Y-73066666D02*
X96485300Y-73133332D01*
X96485300Y-73133332D02*
X96485300Y-73399999D01*
D11*
X102954819Y-94595238D02*
X102478628Y-94928571D01*
X102954819Y-95166666D02*
X101954819Y-95166666D01*
X101954819Y-95166666D02*
X101954819Y-94785714D01*
X101954819Y-94785714D02*
X102002438Y-94690476D01*
X102002438Y-94690476D02*
X102050057Y-94642857D01*
X102050057Y-94642857D02*
X102145295Y-94595238D01*
X102145295Y-94595238D02*
X102288152Y-94595238D01*
X102288152Y-94595238D02*
X102383390Y-94642857D01*
X102383390Y-94642857D02*
X102431009Y-94690476D01*
X102431009Y-94690476D02*
X102478628Y-94785714D01*
X102478628Y-94785714D02*
X102478628Y-95166666D01*
X101954819Y-94309523D02*
X102954819Y-93976190D01*
X102954819Y-93976190D02*
X101954819Y-93642857D01*
X102954819Y-92785714D02*
X102954819Y-93357142D01*
X102954819Y-93071428D02*
X101954819Y-93071428D01*
X101954819Y-93071428D02*
X102097676Y-93166666D01*
X102097676Y-93166666D02*
X102192914Y-93261904D01*
X102192914Y-93261904D02*
X102240533Y-93357142D01*
D10*
X98318633Y-96133333D02*
X97985300Y-96366666D01*
X98318633Y-96533333D02*
X97618633Y-96533333D01*
X97618633Y-96533333D02*
X97618633Y-96266666D01*
X97618633Y-96266666D02*
X97651966Y-96200000D01*
X97651966Y-96200000D02*
X97685300Y-96166666D01*
X97685300Y-96166666D02*
X97751966Y-96133333D01*
X97751966Y-96133333D02*
X97851966Y-96133333D01*
X97851966Y-96133333D02*
X97918633Y-96166666D01*
X97918633Y-96166666D02*
X97951966Y-96200000D01*
X97951966Y-96200000D02*
X97985300Y-96266666D01*
X97985300Y-96266666D02*
X97985300Y-96533333D01*
X98385300Y-96000000D02*
X98385300Y-95466666D01*
X98318633Y-95300000D02*
X97618633Y-95300000D01*
X97618633Y-95300000D02*
X97618633Y-95033333D01*
X97618633Y-95033333D02*
X97651966Y-94966667D01*
X97651966Y-94966667D02*
X97685300Y-94933333D01*
X97685300Y-94933333D02*
X97751966Y-94900000D01*
X97751966Y-94900000D02*
X97851966Y-94900000D01*
X97851966Y-94900000D02*
X97918633Y-94933333D01*
X97918633Y-94933333D02*
X97951966Y-94966667D01*
X97951966Y-94966667D02*
X97985300Y-95033333D01*
X97985300Y-95033333D02*
X97985300Y-95300000D01*
X98318633Y-94500000D02*
X98285300Y-94566667D01*
X98285300Y-94566667D02*
X98251966Y-94600000D01*
X98251966Y-94600000D02*
X98185300Y-94633333D01*
X98185300Y-94633333D02*
X97985300Y-94633333D01*
X97985300Y-94633333D02*
X97918633Y-94600000D01*
X97918633Y-94600000D02*
X97885300Y-94566667D01*
X97885300Y-94566667D02*
X97851966Y-94500000D01*
X97851966Y-94500000D02*
X97851966Y-94400000D01*
X97851966Y-94400000D02*
X97885300Y-94333333D01*
X97885300Y-94333333D02*
X97918633Y-94300000D01*
X97918633Y-94300000D02*
X97985300Y-94266667D01*
X97985300Y-94266667D02*
X98185300Y-94266667D01*
X98185300Y-94266667D02*
X98251966Y-94300000D01*
X98251966Y-94300000D02*
X98285300Y-94333333D01*
X98285300Y-94333333D02*
X98318633Y-94400000D01*
X98318633Y-94400000D02*
X98318633Y-94500000D01*
X97851966Y-94066667D02*
X97851966Y-93800000D01*
X97618633Y-93966667D02*
X98218633Y-93966667D01*
X98218633Y-93966667D02*
X98285300Y-93933334D01*
X98285300Y-93933334D02*
X98318633Y-93866667D01*
X98318633Y-93866667D02*
X98318633Y-93800000D01*
X98385300Y-93733334D02*
X98385300Y-93200000D01*
X98318633Y-92666667D02*
X98318633Y-93066667D01*
X98318633Y-92866667D02*
X97618633Y-92866667D01*
X97618633Y-92866667D02*
X97718633Y-92933334D01*
X97718633Y-92933334D02*
X97785300Y-93000001D01*
X97785300Y-93000001D02*
X97818633Y-93066667D01*
X97618633Y-92233334D02*
X97618633Y-92166667D01*
X97618633Y-92166667D02*
X97651966Y-92100000D01*
X97651966Y-92100000D02*
X97685300Y-92066667D01*
X97685300Y-92066667D02*
X97751966Y-92033334D01*
X97751966Y-92033334D02*
X97885300Y-92000000D01*
X97885300Y-92000000D02*
X98051966Y-92000000D01*
X98051966Y-92000000D02*
X98185300Y-92033334D01*
X98185300Y-92033334D02*
X98251966Y-92066667D01*
X98251966Y-92066667D02*
X98285300Y-92100000D01*
X98285300Y-92100000D02*
X98318633Y-92166667D01*
X98318633Y-92166667D02*
X98318633Y-92233334D01*
X98318633Y-92233334D02*
X98285300Y-92300000D01*
X98285300Y-92300000D02*
X98251966Y-92333334D01*
X98251966Y-92333334D02*
X98185300Y-92366667D01*
X98185300Y-92366667D02*
X98051966Y-92400000D01*
X98051966Y-92400000D02*
X97885300Y-92400000D01*
X97885300Y-92400000D02*
X97751966Y-92366667D01*
X97751966Y-92366667D02*
X97685300Y-92333334D01*
X97685300Y-92333334D02*
X97651966Y-92300000D01*
X97651966Y-92300000D02*
X97618633Y-92233334D01*
X98318633Y-91700000D02*
X97618633Y-91700000D01*
X98051966Y-91633333D02*
X98318633Y-91433333D01*
X97851966Y-91433333D02*
X98118633Y-91700000D01*
D11*
X120833333Y-93454819D02*
X120500000Y-92978628D01*
X120261905Y-93454819D02*
X120261905Y-92454819D01*
X120261905Y-92454819D02*
X120642857Y-92454819D01*
X120642857Y-92454819D02*
X120738095Y-92502438D01*
X120738095Y-92502438D02*
X120785714Y-92550057D01*
X120785714Y-92550057D02*
X120833333Y-92645295D01*
X120833333Y-92645295D02*
X120833333Y-92788152D01*
X120833333Y-92788152D02*
X120785714Y-92883390D01*
X120785714Y-92883390D02*
X120738095Y-92931009D01*
X120738095Y-92931009D02*
X120642857Y-92978628D01*
X120642857Y-92978628D02*
X120261905Y-92978628D01*
X121214286Y-92550057D02*
X121261905Y-92502438D01*
X121261905Y-92502438D02*
X121357143Y-92454819D01*
X121357143Y-92454819D02*
X121595238Y-92454819D01*
X121595238Y-92454819D02*
X121690476Y-92502438D01*
X121690476Y-92502438D02*
X121738095Y-92550057D01*
X121738095Y-92550057D02*
X121785714Y-92645295D01*
X121785714Y-92645295D02*
X121785714Y-92740533D01*
X121785714Y-92740533D02*
X121738095Y-92883390D01*
X121738095Y-92883390D02*
X121166667Y-93454819D01*
X121166667Y-93454819D02*
X121785714Y-93454819D01*
D10*
X117999999Y-91818633D02*
X117766666Y-91485300D01*
X117599999Y-91818633D02*
X117599999Y-91118633D01*
X117599999Y-91118633D02*
X117866666Y-91118633D01*
X117866666Y-91118633D02*
X117933333Y-91151966D01*
X117933333Y-91151966D02*
X117966666Y-91185300D01*
X117966666Y-91185300D02*
X117999999Y-91251966D01*
X117999999Y-91251966D02*
X117999999Y-91351966D01*
X117999999Y-91351966D02*
X117966666Y-91418633D01*
X117966666Y-91418633D02*
X117933333Y-91451966D01*
X117933333Y-91451966D02*
X117866666Y-91485300D01*
X117866666Y-91485300D02*
X117599999Y-91485300D01*
X118133333Y-91885300D02*
X118666666Y-91885300D01*
X119133332Y-91351966D02*
X119133332Y-91818633D01*
X118966666Y-91085300D02*
X118799999Y-91585300D01*
X118799999Y-91585300D02*
X119233332Y-91585300D01*
X119499999Y-91818633D02*
X119499999Y-91118633D01*
X119566666Y-91551966D02*
X119766666Y-91818633D01*
X119766666Y-91351966D02*
X119499999Y-91618633D01*
X120000000Y-91118633D02*
X120466666Y-91118633D01*
X120466666Y-91118633D02*
X120166666Y-91818633D01*
D11*
X111333333Y-77954819D02*
X111000000Y-77478628D01*
X110761905Y-77954819D02*
X110761905Y-76954819D01*
X110761905Y-76954819D02*
X111142857Y-76954819D01*
X111142857Y-76954819D02*
X111238095Y-77002438D01*
X111238095Y-77002438D02*
X111285714Y-77050057D01*
X111285714Y-77050057D02*
X111333333Y-77145295D01*
X111333333Y-77145295D02*
X111333333Y-77288152D01*
X111333333Y-77288152D02*
X111285714Y-77383390D01*
X111285714Y-77383390D02*
X111238095Y-77431009D01*
X111238095Y-77431009D02*
X111142857Y-77478628D01*
X111142857Y-77478628D02*
X110761905Y-77478628D01*
X112285714Y-77954819D02*
X111714286Y-77954819D01*
X112000000Y-77954819D02*
X112000000Y-76954819D01*
X112000000Y-76954819D02*
X111904762Y-77097676D01*
X111904762Y-77097676D02*
X111809524Y-77192914D01*
X111809524Y-77192914D02*
X111714286Y-77240533D01*
D10*
X109999999Y-79318633D02*
X109766666Y-78985300D01*
X109599999Y-79318633D02*
X109599999Y-78618633D01*
X109599999Y-78618633D02*
X109866666Y-78618633D01*
X109866666Y-78618633D02*
X109933333Y-78651966D01*
X109933333Y-78651966D02*
X109966666Y-78685300D01*
X109966666Y-78685300D02*
X109999999Y-78751966D01*
X109999999Y-78751966D02*
X109999999Y-78851966D01*
X109999999Y-78851966D02*
X109966666Y-78918633D01*
X109966666Y-78918633D02*
X109933333Y-78951966D01*
X109933333Y-78951966D02*
X109866666Y-78985300D01*
X109866666Y-78985300D02*
X109599999Y-78985300D01*
X110133333Y-79385300D02*
X110666666Y-79385300D01*
X111199999Y-79318633D02*
X110799999Y-79318633D01*
X110999999Y-79318633D02*
X110999999Y-78618633D01*
X110999999Y-78618633D02*
X110933332Y-78718633D01*
X110933332Y-78718633D02*
X110866666Y-78785300D01*
X110866666Y-78785300D02*
X110799999Y-78818633D01*
X111633333Y-78618633D02*
X111699999Y-78618633D01*
X111699999Y-78618633D02*
X111766666Y-78651966D01*
X111766666Y-78651966D02*
X111799999Y-78685300D01*
X111799999Y-78685300D02*
X111833333Y-78751966D01*
X111833333Y-78751966D02*
X111866666Y-78885300D01*
X111866666Y-78885300D02*
X111866666Y-79051966D01*
X111866666Y-79051966D02*
X111833333Y-79185300D01*
X111833333Y-79185300D02*
X111799999Y-79251966D01*
X111799999Y-79251966D02*
X111766666Y-79285300D01*
X111766666Y-79285300D02*
X111699999Y-79318633D01*
X111699999Y-79318633D02*
X111633333Y-79318633D01*
X111633333Y-79318633D02*
X111566666Y-79285300D01*
X111566666Y-79285300D02*
X111533333Y-79251966D01*
X111533333Y-79251966D02*
X111499999Y-79185300D01*
X111499999Y-79185300D02*
X111466666Y-79051966D01*
X111466666Y-79051966D02*
X111466666Y-78885300D01*
X111466666Y-78885300D02*
X111499999Y-78751966D01*
X111499999Y-78751966D02*
X111533333Y-78685300D01*
X111533333Y-78685300D02*
X111566666Y-78651966D01*
X111566666Y-78651966D02*
X111633333Y-78618633D01*
X112166666Y-79318633D02*
X112166666Y-78618633D01*
X112233333Y-79051966D02*
X112433333Y-79318633D01*
X112433333Y-78851966D02*
X112166666Y-79118633D01*
D11*
X116234819Y-98103333D02*
X116949104Y-98103333D01*
X116949104Y-98103333D02*
X117091961Y-98150952D01*
X117091961Y-98150952D02*
X117187200Y-98246190D01*
X117187200Y-98246190D02*
X117234819Y-98389047D01*
X117234819Y-98389047D02*
X117234819Y-98484285D01*
X116568152Y-97198571D02*
X117234819Y-97198571D01*
X116187200Y-97436666D02*
X116901485Y-97674761D01*
X116901485Y-97674761D02*
X116901485Y-97055714D01*
D10*
X121628571Y-93798895D02*
X121590476Y-93779847D01*
X121590476Y-93779847D02*
X121533333Y-93779847D01*
X121533333Y-93779847D02*
X121476190Y-93798895D01*
X121476190Y-93798895D02*
X121438095Y-93836990D01*
X121438095Y-93836990D02*
X121419048Y-93875085D01*
X121419048Y-93875085D02*
X121400000Y-93951276D01*
X121400000Y-93951276D02*
X121400000Y-94008419D01*
X121400000Y-94008419D02*
X121419048Y-94084609D01*
X121419048Y-94084609D02*
X121438095Y-94122704D01*
X121438095Y-94122704D02*
X121476190Y-94160800D01*
X121476190Y-94160800D02*
X121533333Y-94179847D01*
X121533333Y-94179847D02*
X121571429Y-94179847D01*
X121571429Y-94179847D02*
X121628571Y-94160800D01*
X121628571Y-94160800D02*
X121647619Y-94141752D01*
X121647619Y-94141752D02*
X121647619Y-94008419D01*
X121647619Y-94008419D02*
X121571429Y-94008419D01*
X121952381Y-93970323D02*
X122009524Y-93989371D01*
X122009524Y-93989371D02*
X122028571Y-94008419D01*
X122028571Y-94008419D02*
X122047619Y-94046514D01*
X122047619Y-94046514D02*
X122047619Y-94103657D01*
X122047619Y-94103657D02*
X122028571Y-94141752D01*
X122028571Y-94141752D02*
X122009524Y-94160800D01*
X122009524Y-94160800D02*
X121971429Y-94179847D01*
X121971429Y-94179847D02*
X121819048Y-94179847D01*
X121819048Y-94179847D02*
X121819048Y-93779847D01*
X121819048Y-93779847D02*
X121952381Y-93779847D01*
X121952381Y-93779847D02*
X121990476Y-93798895D01*
X121990476Y-93798895D02*
X122009524Y-93817942D01*
X122009524Y-93817942D02*
X122028571Y-93856038D01*
X122028571Y-93856038D02*
X122028571Y-93894133D01*
X122028571Y-93894133D02*
X122009524Y-93932228D01*
X122009524Y-93932228D02*
X121990476Y-93951276D01*
X121990476Y-93951276D02*
X121952381Y-93970323D01*
X121952381Y-93970323D02*
X121819048Y-93970323D01*
X122200000Y-94160800D02*
X122257143Y-94179847D01*
X122257143Y-94179847D02*
X122352381Y-94179847D01*
X122352381Y-94179847D02*
X122390476Y-94160800D01*
X122390476Y-94160800D02*
X122409524Y-94141752D01*
X122409524Y-94141752D02*
X122428571Y-94103657D01*
X122428571Y-94103657D02*
X122428571Y-94065561D01*
X122428571Y-94065561D02*
X122409524Y-94027466D01*
X122409524Y-94027466D02*
X122390476Y-94008419D01*
X122390476Y-94008419D02*
X122352381Y-93989371D01*
X122352381Y-93989371D02*
X122276190Y-93970323D01*
X122276190Y-93970323D02*
X122238095Y-93951276D01*
X122238095Y-93951276D02*
X122219048Y-93932228D01*
X122219048Y-93932228D02*
X122200000Y-93894133D01*
X122200000Y-93894133D02*
X122200000Y-93856038D01*
X122200000Y-93856038D02*
X122219048Y-93817942D01*
X122219048Y-93817942D02*
X122238095Y-93798895D01*
X122238095Y-93798895D02*
X122276190Y-93779847D01*
X122276190Y-93779847D02*
X122371429Y-93779847D01*
X122371429Y-93779847D02*
X122428571Y-93798895D01*
X122504762Y-94217942D02*
X122809523Y-94217942D01*
X122885714Y-94160800D02*
X122923809Y-94179847D01*
X122923809Y-94179847D02*
X123000000Y-94179847D01*
X123000000Y-94179847D02*
X123038095Y-94160800D01*
X123038095Y-94160800D02*
X123057143Y-94122704D01*
X123057143Y-94122704D02*
X123057143Y-94103657D01*
X123057143Y-94103657D02*
X123038095Y-94065561D01*
X123038095Y-94065561D02*
X123000000Y-94046514D01*
X123000000Y-94046514D02*
X122942857Y-94046514D01*
X122942857Y-94046514D02*
X122904762Y-94027466D01*
X122904762Y-94027466D02*
X122885714Y-93989371D01*
X122885714Y-93989371D02*
X122885714Y-93970323D01*
X122885714Y-93970323D02*
X122904762Y-93932228D01*
X122904762Y-93932228D02*
X122942857Y-93913180D01*
X122942857Y-93913180D02*
X123000000Y-93913180D01*
X123000000Y-93913180D02*
X123038095Y-93932228D01*
X123190476Y-93913180D02*
X123266667Y-94179847D01*
X123266667Y-94179847D02*
X123342857Y-93989371D01*
X123342857Y-93989371D02*
X123419048Y-94179847D01*
X123419048Y-94179847D02*
X123495238Y-93913180D01*
X123647620Y-94179847D02*
X123647620Y-93913180D01*
X123647620Y-93779847D02*
X123628572Y-93798895D01*
X123628572Y-93798895D02*
X123647620Y-93817942D01*
X123647620Y-93817942D02*
X123666667Y-93798895D01*
X123666667Y-93798895D02*
X123647620Y-93779847D01*
X123647620Y-93779847D02*
X123647620Y-93817942D01*
X123780953Y-93913180D02*
X123933334Y-93913180D01*
X123838096Y-93779847D02*
X123838096Y-94122704D01*
X123838096Y-94122704D02*
X123857143Y-94160800D01*
X123857143Y-94160800D02*
X123895238Y-94179847D01*
X123895238Y-94179847D02*
X123933334Y-94179847D01*
X124238095Y-94160800D02*
X124200000Y-94179847D01*
X124200000Y-94179847D02*
X124123809Y-94179847D01*
X124123809Y-94179847D02*
X124085714Y-94160800D01*
X124085714Y-94160800D02*
X124066667Y-94141752D01*
X124066667Y-94141752D02*
X124047619Y-94103657D01*
X124047619Y-94103657D02*
X124047619Y-93989371D01*
X124047619Y-93989371D02*
X124066667Y-93951276D01*
X124066667Y-93951276D02*
X124085714Y-93932228D01*
X124085714Y-93932228D02*
X124123809Y-93913180D01*
X124123809Y-93913180D02*
X124200000Y-93913180D01*
X124200000Y-93913180D02*
X124238095Y-93932228D01*
X124409524Y-94179847D02*
X124409524Y-93779847D01*
X124580952Y-94179847D02*
X124580952Y-93970323D01*
X124580952Y-93970323D02*
X124561905Y-93932228D01*
X124561905Y-93932228D02*
X124523809Y-93913180D01*
X124523809Y-93913180D02*
X124466666Y-93913180D01*
X124466666Y-93913180D02*
X124428571Y-93932228D01*
X124428571Y-93932228D02*
X124409524Y-93951276D01*
D11*
X116234819Y-105103333D02*
X116949104Y-105103333D01*
X116949104Y-105103333D02*
X117091961Y-105150952D01*
X117091961Y-105150952D02*
X117187200Y-105246190D01*
X117187200Y-105246190D02*
X117234819Y-105389047D01*
X117234819Y-105389047D02*
X117234819Y-105484285D01*
X116234819Y-104722380D02*
X116234819Y-104103333D01*
X116234819Y-104103333D02*
X116615771Y-104436666D01*
X116615771Y-104436666D02*
X116615771Y-104293809D01*
X116615771Y-104293809D02*
X116663390Y-104198571D01*
X116663390Y-104198571D02*
X116711009Y-104150952D01*
X116711009Y-104150952D02*
X116806247Y-104103333D01*
X116806247Y-104103333D02*
X117044342Y-104103333D01*
X117044342Y-104103333D02*
X117139580Y-104150952D01*
X117139580Y-104150952D02*
X117187200Y-104198571D01*
X117187200Y-104198571D02*
X117234819Y-104293809D01*
X117234819Y-104293809D02*
X117234819Y-104579523D01*
X117234819Y-104579523D02*
X117187200Y-104674761D01*
X117187200Y-104674761D02*
X117139580Y-104722380D01*
X119626666Y-80174819D02*
X119626666Y-80889104D01*
X119626666Y-80889104D02*
X119579047Y-81031961D01*
X119579047Y-81031961D02*
X119483809Y-81127200D01*
X119483809Y-81127200D02*
X119340952Y-81174819D01*
X119340952Y-81174819D02*
X119245714Y-81174819D01*
X120055238Y-80270057D02*
X120102857Y-80222438D01*
X120102857Y-80222438D02*
X120198095Y-80174819D01*
X120198095Y-80174819D02*
X120436190Y-80174819D01*
X120436190Y-80174819D02*
X120531428Y-80222438D01*
X120531428Y-80222438D02*
X120579047Y-80270057D01*
X120579047Y-80270057D02*
X120626666Y-80365295D01*
X120626666Y-80365295D02*
X120626666Y-80460533D01*
X120626666Y-80460533D02*
X120579047Y-80603390D01*
X120579047Y-80603390D02*
X120007619Y-81174819D01*
X120007619Y-81174819D02*
X120626666Y-81174819D01*
X121595238Y-81454819D02*
X121595238Y-80454819D01*
X121595238Y-80454819D02*
X121976190Y-80454819D01*
X121976190Y-80454819D02*
X122071428Y-80502438D01*
X122071428Y-80502438D02*
X122119047Y-80550057D01*
X122119047Y-80550057D02*
X122166666Y-80645295D01*
X122166666Y-80645295D02*
X122166666Y-80788152D01*
X122166666Y-80788152D02*
X122119047Y-80883390D01*
X122119047Y-80883390D02*
X122071428Y-80931009D01*
X122071428Y-80931009D02*
X121976190Y-80978628D01*
X121976190Y-80978628D02*
X121595238Y-80978628D01*
X122500000Y-80454819D02*
X122738095Y-81454819D01*
X122738095Y-81454819D02*
X122928571Y-80740533D01*
X122928571Y-80740533D02*
X123119047Y-81454819D01*
X123119047Y-81454819D02*
X123357143Y-80454819D01*
X123738095Y-81454819D02*
X123738095Y-80454819D01*
X123738095Y-80454819D02*
X124071428Y-81169104D01*
X124071428Y-81169104D02*
X124404761Y-80454819D01*
X124404761Y-80454819D02*
X124404761Y-81454819D01*
X114334819Y-74333333D02*
X115049104Y-74333333D01*
X115049104Y-74333333D02*
X115191961Y-74380952D01*
X115191961Y-74380952D02*
X115287200Y-74476190D01*
X115287200Y-74476190D02*
X115334819Y-74619047D01*
X115334819Y-74619047D02*
X115334819Y-74714285D01*
X115334819Y-73333333D02*
X115334819Y-73904761D01*
X115334819Y-73619047D02*
X114334819Y-73619047D01*
X114334819Y-73619047D02*
X114477676Y-73714285D01*
X114477676Y-73714285D02*
X114572914Y-73809523D01*
X114572914Y-73809523D02*
X114620533Y-73904761D01*
D12*
X103750000Y-72620600D02*
X103792858Y-72634885D01*
X103792858Y-72634885D02*
X103864286Y-72634885D01*
X103864286Y-72634885D02*
X103892858Y-72620600D01*
X103892858Y-72620600D02*
X103907143Y-72606314D01*
X103907143Y-72606314D02*
X103921429Y-72577742D01*
X103921429Y-72577742D02*
X103921429Y-72549171D01*
X103921429Y-72549171D02*
X103907143Y-72520600D01*
X103907143Y-72520600D02*
X103892858Y-72506314D01*
X103892858Y-72506314D02*
X103864286Y-72492028D01*
X103864286Y-72492028D02*
X103807143Y-72477742D01*
X103807143Y-72477742D02*
X103778572Y-72463457D01*
X103778572Y-72463457D02*
X103764286Y-72449171D01*
X103764286Y-72449171D02*
X103750000Y-72420600D01*
X103750000Y-72420600D02*
X103750000Y-72392028D01*
X103750000Y-72392028D02*
X103764286Y-72363457D01*
X103764286Y-72363457D02*
X103778572Y-72349171D01*
X103778572Y-72349171D02*
X103807143Y-72334885D01*
X103807143Y-72334885D02*
X103878572Y-72334885D01*
X103878572Y-72334885D02*
X103921429Y-72349171D01*
X104164286Y-72620600D02*
X104135714Y-72634885D01*
X104135714Y-72634885D02*
X104078572Y-72634885D01*
X104078572Y-72634885D02*
X104050000Y-72620600D01*
X104050000Y-72620600D02*
X104035714Y-72592028D01*
X104035714Y-72592028D02*
X104035714Y-72477742D01*
X104035714Y-72477742D02*
X104050000Y-72449171D01*
X104050000Y-72449171D02*
X104078572Y-72434885D01*
X104078572Y-72434885D02*
X104135714Y-72434885D01*
X104135714Y-72434885D02*
X104164286Y-72449171D01*
X104164286Y-72449171D02*
X104178572Y-72477742D01*
X104178572Y-72477742D02*
X104178572Y-72506314D01*
X104178572Y-72506314D02*
X104035714Y-72534885D01*
X104307143Y-72634885D02*
X104307143Y-72434885D01*
X104307143Y-72492028D02*
X104321429Y-72463457D01*
X104321429Y-72463457D02*
X104335715Y-72449171D01*
X104335715Y-72449171D02*
X104364286Y-72434885D01*
X104364286Y-72434885D02*
X104392857Y-72434885D01*
X104492857Y-72634885D02*
X104492857Y-72434885D01*
X104492857Y-72334885D02*
X104478571Y-72349171D01*
X104478571Y-72349171D02*
X104492857Y-72363457D01*
X104492857Y-72363457D02*
X104507143Y-72349171D01*
X104507143Y-72349171D02*
X104492857Y-72334885D01*
X104492857Y-72334885D02*
X104492857Y-72363457D01*
X104764286Y-72634885D02*
X104764286Y-72477742D01*
X104764286Y-72477742D02*
X104750000Y-72449171D01*
X104750000Y-72449171D02*
X104721428Y-72434885D01*
X104721428Y-72434885D02*
X104664286Y-72434885D01*
X104664286Y-72434885D02*
X104635714Y-72449171D01*
X104764286Y-72620600D02*
X104735714Y-72634885D01*
X104735714Y-72634885D02*
X104664286Y-72634885D01*
X104664286Y-72634885D02*
X104635714Y-72620600D01*
X104635714Y-72620600D02*
X104621428Y-72592028D01*
X104621428Y-72592028D02*
X104621428Y-72563457D01*
X104621428Y-72563457D02*
X104635714Y-72534885D01*
X104635714Y-72534885D02*
X104664286Y-72520600D01*
X104664286Y-72520600D02*
X104735714Y-72520600D01*
X104735714Y-72520600D02*
X104764286Y-72506314D01*
X104950000Y-72634885D02*
X104921429Y-72620600D01*
X104921429Y-72620600D02*
X104907143Y-72592028D01*
X104907143Y-72592028D02*
X104907143Y-72334885D01*
X104992858Y-72663457D02*
X105221429Y-72663457D01*
X105292857Y-72634885D02*
X105292857Y-72434885D01*
X105292857Y-72463457D02*
X105307143Y-72449171D01*
X105307143Y-72449171D02*
X105335714Y-72434885D01*
X105335714Y-72434885D02*
X105378571Y-72434885D01*
X105378571Y-72434885D02*
X105407143Y-72449171D01*
X105407143Y-72449171D02*
X105421429Y-72477742D01*
X105421429Y-72477742D02*
X105421429Y-72634885D01*
X105421429Y-72477742D02*
X105435714Y-72449171D01*
X105435714Y-72449171D02*
X105464286Y-72434885D01*
X105464286Y-72434885D02*
X105507143Y-72434885D01*
X105507143Y-72434885D02*
X105535714Y-72449171D01*
X105535714Y-72449171D02*
X105550000Y-72477742D01*
X105550000Y-72477742D02*
X105550000Y-72634885D01*
X105735714Y-72634885D02*
X105707143Y-72620600D01*
X105707143Y-72620600D02*
X105692857Y-72606314D01*
X105692857Y-72606314D02*
X105678571Y-72577742D01*
X105678571Y-72577742D02*
X105678571Y-72492028D01*
X105678571Y-72492028D02*
X105692857Y-72463457D01*
X105692857Y-72463457D02*
X105707143Y-72449171D01*
X105707143Y-72449171D02*
X105735714Y-72434885D01*
X105735714Y-72434885D02*
X105778571Y-72434885D01*
X105778571Y-72434885D02*
X105807143Y-72449171D01*
X105807143Y-72449171D02*
X105821429Y-72463457D01*
X105821429Y-72463457D02*
X105835714Y-72492028D01*
X105835714Y-72492028D02*
X105835714Y-72577742D01*
X105835714Y-72577742D02*
X105821429Y-72606314D01*
X105821429Y-72606314D02*
X105807143Y-72620600D01*
X105807143Y-72620600D02*
X105778571Y-72634885D01*
X105778571Y-72634885D02*
X105735714Y-72634885D01*
X105964286Y-72434885D02*
X105964286Y-72634885D01*
X105964286Y-72463457D02*
X105978572Y-72449171D01*
X105978572Y-72449171D02*
X106007143Y-72434885D01*
X106007143Y-72434885D02*
X106050000Y-72434885D01*
X106050000Y-72434885D02*
X106078572Y-72449171D01*
X106078572Y-72449171D02*
X106092858Y-72477742D01*
X106092858Y-72477742D02*
X106092858Y-72634885D01*
X106164287Y-72663457D02*
X106392858Y-72663457D01*
X106478572Y-72634885D02*
X106535715Y-72634885D01*
X106535715Y-72634885D02*
X106564286Y-72620600D01*
X106564286Y-72620600D02*
X106578572Y-72606314D01*
X106578572Y-72606314D02*
X106607143Y-72563457D01*
X106607143Y-72563457D02*
X106621429Y-72506314D01*
X106621429Y-72506314D02*
X106621429Y-72392028D01*
X106621429Y-72392028D02*
X106607143Y-72363457D01*
X106607143Y-72363457D02*
X106592858Y-72349171D01*
X106592858Y-72349171D02*
X106564286Y-72334885D01*
X106564286Y-72334885D02*
X106507143Y-72334885D01*
X106507143Y-72334885D02*
X106478572Y-72349171D01*
X106478572Y-72349171D02*
X106464286Y-72363457D01*
X106464286Y-72363457D02*
X106450000Y-72392028D01*
X106450000Y-72392028D02*
X106450000Y-72463457D01*
X106450000Y-72463457D02*
X106464286Y-72492028D01*
X106464286Y-72492028D02*
X106478572Y-72506314D01*
X106478572Y-72506314D02*
X106507143Y-72520600D01*
X106507143Y-72520600D02*
X106564286Y-72520600D01*
X106564286Y-72520600D02*
X106592858Y-72506314D01*
X106592858Y-72506314D02*
X106607143Y-72492028D01*
X106607143Y-72492028D02*
X106621429Y-72463457D01*
X106878572Y-72334885D02*
X106821429Y-72334885D01*
X106821429Y-72334885D02*
X106792857Y-72349171D01*
X106792857Y-72349171D02*
X106778572Y-72363457D01*
X106778572Y-72363457D02*
X106750000Y-72406314D01*
X106750000Y-72406314D02*
X106735714Y-72463457D01*
X106735714Y-72463457D02*
X106735714Y-72577742D01*
X106735714Y-72577742D02*
X106750000Y-72606314D01*
X106750000Y-72606314D02*
X106764286Y-72620600D01*
X106764286Y-72620600D02*
X106792857Y-72634885D01*
X106792857Y-72634885D02*
X106850000Y-72634885D01*
X106850000Y-72634885D02*
X106878572Y-72620600D01*
X106878572Y-72620600D02*
X106892857Y-72606314D01*
X106892857Y-72606314D02*
X106907143Y-72577742D01*
X106907143Y-72577742D02*
X106907143Y-72506314D01*
X106907143Y-72506314D02*
X106892857Y-72477742D01*
X106892857Y-72477742D02*
X106878572Y-72463457D01*
X106878572Y-72463457D02*
X106850000Y-72449171D01*
X106850000Y-72449171D02*
X106792857Y-72449171D01*
X106792857Y-72449171D02*
X106764286Y-72463457D01*
X106764286Y-72463457D02*
X106750000Y-72477742D01*
X106750000Y-72477742D02*
X106735714Y-72506314D01*
X107092857Y-72334885D02*
X107121428Y-72334885D01*
X107121428Y-72334885D02*
X107150000Y-72349171D01*
X107150000Y-72349171D02*
X107164286Y-72363457D01*
X107164286Y-72363457D02*
X107178571Y-72392028D01*
X107178571Y-72392028D02*
X107192857Y-72449171D01*
X107192857Y-72449171D02*
X107192857Y-72520600D01*
X107192857Y-72520600D02*
X107178571Y-72577742D01*
X107178571Y-72577742D02*
X107164286Y-72606314D01*
X107164286Y-72606314D02*
X107150000Y-72620600D01*
X107150000Y-72620600D02*
X107121428Y-72634885D01*
X107121428Y-72634885D02*
X107092857Y-72634885D01*
X107092857Y-72634885D02*
X107064286Y-72620600D01*
X107064286Y-72620600D02*
X107050000Y-72606314D01*
X107050000Y-72606314D02*
X107035714Y-72577742D01*
X107035714Y-72577742D02*
X107021428Y-72520600D01*
X107021428Y-72520600D02*
X107021428Y-72449171D01*
X107021428Y-72449171D02*
X107035714Y-72392028D01*
X107035714Y-72392028D02*
X107050000Y-72363457D01*
X107050000Y-72363457D02*
X107064286Y-72349171D01*
X107064286Y-72349171D02*
X107092857Y-72334885D01*
X107378571Y-72334885D02*
X107407142Y-72334885D01*
X107407142Y-72334885D02*
X107435714Y-72349171D01*
X107435714Y-72349171D02*
X107450000Y-72363457D01*
X107450000Y-72363457D02*
X107464285Y-72392028D01*
X107464285Y-72392028D02*
X107478571Y-72449171D01*
X107478571Y-72449171D02*
X107478571Y-72520600D01*
X107478571Y-72520600D02*
X107464285Y-72577742D01*
X107464285Y-72577742D02*
X107450000Y-72606314D01*
X107450000Y-72606314D02*
X107435714Y-72620600D01*
X107435714Y-72620600D02*
X107407142Y-72634885D01*
X107407142Y-72634885D02*
X107378571Y-72634885D01*
X107378571Y-72634885D02*
X107350000Y-72620600D01*
X107350000Y-72620600D02*
X107335714Y-72606314D01*
X107335714Y-72606314D02*
X107321428Y-72577742D01*
X107321428Y-72577742D02*
X107307142Y-72520600D01*
X107307142Y-72520600D02*
X107307142Y-72449171D01*
X107307142Y-72449171D02*
X107321428Y-72392028D01*
X107321428Y-72392028D02*
X107335714Y-72363457D01*
X107335714Y-72363457D02*
X107350000Y-72349171D01*
X107350000Y-72349171D02*
X107378571Y-72334885D01*
X107535714Y-72663457D02*
X107764285Y-72663457D01*
X107978570Y-72334885D02*
X107835713Y-72334885D01*
X107835713Y-72334885D02*
X107821427Y-72477742D01*
X107821427Y-72477742D02*
X107835713Y-72463457D01*
X107835713Y-72463457D02*
X107864285Y-72449171D01*
X107864285Y-72449171D02*
X107935713Y-72449171D01*
X107935713Y-72449171D02*
X107964285Y-72463457D01*
X107964285Y-72463457D02*
X107978570Y-72477742D01*
X107978570Y-72477742D02*
X107992856Y-72506314D01*
X107992856Y-72506314D02*
X107992856Y-72577742D01*
X107992856Y-72577742D02*
X107978570Y-72606314D01*
X107978570Y-72606314D02*
X107964285Y-72620600D01*
X107964285Y-72620600D02*
X107935713Y-72634885D01*
X107935713Y-72634885D02*
X107864285Y-72634885D01*
X107864285Y-72634885D02*
X107835713Y-72620600D01*
X107835713Y-72620600D02*
X107821427Y-72606314D01*
X108078570Y-72334885D02*
X108178570Y-72634885D01*
X108178570Y-72634885D02*
X108278570Y-72334885D01*
D11*
X115548095Y-105354819D02*
X115548095Y-104354819D01*
X116119523Y-105354819D02*
X115690952Y-104783390D01*
X116119523Y-104354819D02*
X115548095Y-104926247D01*
X122454819Y-86738094D02*
X121454819Y-86738094D01*
X121454819Y-86738094D02*
X121454819Y-86499999D01*
X121454819Y-86499999D02*
X121502438Y-86357142D01*
X121502438Y-86357142D02*
X121597676Y-86261904D01*
X121597676Y-86261904D02*
X121692914Y-86214285D01*
X121692914Y-86214285D02*
X121883390Y-86166666D01*
X121883390Y-86166666D02*
X122026247Y-86166666D01*
X122026247Y-86166666D02*
X122216723Y-86214285D01*
X122216723Y-86214285D02*
X122311961Y-86261904D01*
X122311961Y-86261904D02*
X122407200Y-86357142D01*
X122407200Y-86357142D02*
X122454819Y-86499999D01*
X122454819Y-86499999D02*
X122454819Y-86738094D01*
X121550057Y-85785713D02*
X121502438Y-85738094D01*
X121502438Y-85738094D02*
X121454819Y-85642856D01*
X121454819Y-85642856D02*
X121454819Y-85404761D01*
X121454819Y-85404761D02*
X121502438Y-85309523D01*
X121502438Y-85309523D02*
X121550057Y-85261904D01*
X121550057Y-85261904D02*
X121645295Y-85214285D01*
X121645295Y-85214285D02*
X121740533Y-85214285D01*
X121740533Y-85214285D02*
X121883390Y-85261904D01*
X121883390Y-85261904D02*
X122454819Y-85833332D01*
X122454819Y-85833332D02*
X122454819Y-85214285D01*
X117359580Y-86666666D02*
X117407200Y-86714285D01*
X117407200Y-86714285D02*
X117454819Y-86857142D01*
X117454819Y-86857142D02*
X117454819Y-86952380D01*
X117454819Y-86952380D02*
X117407200Y-87095237D01*
X117407200Y-87095237D02*
X117311961Y-87190475D01*
X117311961Y-87190475D02*
X117216723Y-87238094D01*
X117216723Y-87238094D02*
X117026247Y-87285713D01*
X117026247Y-87285713D02*
X116883390Y-87285713D01*
X116883390Y-87285713D02*
X116692914Y-87238094D01*
X116692914Y-87238094D02*
X116597676Y-87190475D01*
X116597676Y-87190475D02*
X116502438Y-87095237D01*
X116502438Y-87095237D02*
X116454819Y-86952380D01*
X116454819Y-86952380D02*
X116454819Y-86857142D01*
X116454819Y-86857142D02*
X116502438Y-86714285D01*
X116502438Y-86714285D02*
X116550057Y-86666666D01*
X116788152Y-85809523D02*
X117454819Y-85809523D01*
X116407200Y-86047618D02*
X117121485Y-86285713D01*
X117121485Y-86285713D02*
X117121485Y-85666666D01*
D10*
X115251966Y-88166666D02*
X115285300Y-88199999D01*
X115285300Y-88199999D02*
X115318633Y-88299999D01*
X115318633Y-88299999D02*
X115318633Y-88366666D01*
X115318633Y-88366666D02*
X115285300Y-88466666D01*
X115285300Y-88466666D02*
X115218633Y-88533333D01*
X115218633Y-88533333D02*
X115151966Y-88566666D01*
X115151966Y-88566666D02*
X115018633Y-88599999D01*
X115018633Y-88599999D02*
X114918633Y-88599999D01*
X114918633Y-88599999D02*
X114785300Y-88566666D01*
X114785300Y-88566666D02*
X114718633Y-88533333D01*
X114718633Y-88533333D02*
X114651966Y-88466666D01*
X114651966Y-88466666D02*
X114618633Y-88366666D01*
X114618633Y-88366666D02*
X114618633Y-88299999D01*
X114618633Y-88299999D02*
X114651966Y-88199999D01*
X114651966Y-88199999D02*
X114685300Y-88166666D01*
X115385300Y-88033333D02*
X115385300Y-87499999D01*
X114685300Y-87366666D02*
X114651966Y-87333333D01*
X114651966Y-87333333D02*
X114618633Y-87266666D01*
X114618633Y-87266666D02*
X114618633Y-87100000D01*
X114618633Y-87100000D02*
X114651966Y-87033333D01*
X114651966Y-87033333D02*
X114685300Y-87000000D01*
X114685300Y-87000000D02*
X114751966Y-86966666D01*
X114751966Y-86966666D02*
X114818633Y-86966666D01*
X114818633Y-86966666D02*
X114918633Y-87000000D01*
X114918633Y-87000000D02*
X115318633Y-87400000D01*
X115318633Y-87400000D02*
X115318633Y-86966666D01*
X114685300Y-86699999D02*
X114651966Y-86666666D01*
X114651966Y-86666666D02*
X114618633Y-86599999D01*
X114618633Y-86599999D02*
X114618633Y-86433333D01*
X114618633Y-86433333D02*
X114651966Y-86366666D01*
X114651966Y-86366666D02*
X114685300Y-86333333D01*
X114685300Y-86333333D02*
X114751966Y-86299999D01*
X114751966Y-86299999D02*
X114818633Y-86299999D01*
X114818633Y-86299999D02*
X114918633Y-86333333D01*
X114918633Y-86333333D02*
X115318633Y-86733333D01*
X115318633Y-86733333D02*
X115318633Y-86299999D01*
X114618633Y-85866666D02*
X114618633Y-85799999D01*
X114618633Y-85799999D02*
X114651966Y-85733332D01*
X114651966Y-85733332D02*
X114685300Y-85699999D01*
X114685300Y-85699999D02*
X114751966Y-85666666D01*
X114751966Y-85666666D02*
X114885300Y-85633332D01*
X114885300Y-85633332D02*
X115051966Y-85633332D01*
X115051966Y-85633332D02*
X115185300Y-85666666D01*
X115185300Y-85666666D02*
X115251966Y-85699999D01*
X115251966Y-85699999D02*
X115285300Y-85733332D01*
X115285300Y-85733332D02*
X115318633Y-85799999D01*
X115318633Y-85799999D02*
X115318633Y-85866666D01*
X115318633Y-85866666D02*
X115285300Y-85933332D01*
X115285300Y-85933332D02*
X115251966Y-85966666D01*
X115251966Y-85966666D02*
X115185300Y-85999999D01*
X115185300Y-85999999D02*
X115051966Y-86033332D01*
X115051966Y-86033332D02*
X114885300Y-86033332D01*
X114885300Y-86033332D02*
X114751966Y-85999999D01*
X114751966Y-85999999D02*
X114685300Y-85966666D01*
X114685300Y-85966666D02*
X114651966Y-85933332D01*
X114651966Y-85933332D02*
X114618633Y-85866666D01*
X114851966Y-85333332D02*
X115318633Y-85333332D01*
X114918633Y-85333332D02*
X114885300Y-85299999D01*
X114885300Y-85299999D02*
X114851966Y-85233332D01*
X114851966Y-85233332D02*
X114851966Y-85133332D01*
X114851966Y-85133332D02*
X114885300Y-85066665D01*
X114885300Y-85066665D02*
X114951966Y-85033332D01*
X114951966Y-85033332D02*
X115318633Y-85033332D01*
X114951966Y-84466666D02*
X114951966Y-84699999D01*
X115318633Y-84699999D02*
X114618633Y-84699999D01*
X114618633Y-84699999D02*
X114618633Y-84366666D01*
D11*
X101359580Y-87166666D02*
X101407200Y-87214285D01*
X101407200Y-87214285D02*
X101454819Y-87357142D01*
X101454819Y-87357142D02*
X101454819Y-87452380D01*
X101454819Y-87452380D02*
X101407200Y-87595237D01*
X101407200Y-87595237D02*
X101311961Y-87690475D01*
X101311961Y-87690475D02*
X101216723Y-87738094D01*
X101216723Y-87738094D02*
X101026247Y-87785713D01*
X101026247Y-87785713D02*
X100883390Y-87785713D01*
X100883390Y-87785713D02*
X100692914Y-87738094D01*
X100692914Y-87738094D02*
X100597676Y-87690475D01*
X100597676Y-87690475D02*
X100502438Y-87595237D01*
X100502438Y-87595237D02*
X100454819Y-87452380D01*
X100454819Y-87452380D02*
X100454819Y-87357142D01*
X100454819Y-87357142D02*
X100502438Y-87214285D01*
X100502438Y-87214285D02*
X100550057Y-87166666D01*
X100454819Y-86833332D02*
X100454819Y-86214285D01*
X100454819Y-86214285D02*
X100835771Y-86547618D01*
X100835771Y-86547618D02*
X100835771Y-86404761D01*
X100835771Y-86404761D02*
X100883390Y-86309523D01*
X100883390Y-86309523D02*
X100931009Y-86261904D01*
X100931009Y-86261904D02*
X101026247Y-86214285D01*
X101026247Y-86214285D02*
X101264342Y-86214285D01*
X101264342Y-86214285D02*
X101359580Y-86261904D01*
X101359580Y-86261904D02*
X101407200Y-86309523D01*
X101407200Y-86309523D02*
X101454819Y-86404761D01*
X101454819Y-86404761D02*
X101454819Y-86690475D01*
X101454819Y-86690475D02*
X101407200Y-86785713D01*
X101407200Y-86785713D02*
X101359580Y-86833332D01*
D10*
X99251966Y-88666666D02*
X99285300Y-88699999D01*
X99285300Y-88699999D02*
X99318633Y-88799999D01*
X99318633Y-88799999D02*
X99318633Y-88866666D01*
X99318633Y-88866666D02*
X99285300Y-88966666D01*
X99285300Y-88966666D02*
X99218633Y-89033333D01*
X99218633Y-89033333D02*
X99151966Y-89066666D01*
X99151966Y-89066666D02*
X99018633Y-89099999D01*
X99018633Y-89099999D02*
X98918633Y-89099999D01*
X98918633Y-89099999D02*
X98785300Y-89066666D01*
X98785300Y-89066666D02*
X98718633Y-89033333D01*
X98718633Y-89033333D02*
X98651966Y-88966666D01*
X98651966Y-88966666D02*
X98618633Y-88866666D01*
X98618633Y-88866666D02*
X98618633Y-88799999D01*
X98618633Y-88799999D02*
X98651966Y-88699999D01*
X98651966Y-88699999D02*
X98685300Y-88666666D01*
X99385300Y-88533333D02*
X99385300Y-87999999D01*
X99318633Y-87466666D02*
X99318633Y-87866666D01*
X99318633Y-87666666D02*
X98618633Y-87666666D01*
X98618633Y-87666666D02*
X98718633Y-87733333D01*
X98718633Y-87733333D02*
X98785300Y-87800000D01*
X98785300Y-87800000D02*
X98818633Y-87866666D01*
X98618633Y-87033333D02*
X98618633Y-86966666D01*
X98618633Y-86966666D02*
X98651966Y-86899999D01*
X98651966Y-86899999D02*
X98685300Y-86866666D01*
X98685300Y-86866666D02*
X98751966Y-86833333D01*
X98751966Y-86833333D02*
X98885300Y-86799999D01*
X98885300Y-86799999D02*
X99051966Y-86799999D01*
X99051966Y-86799999D02*
X99185300Y-86833333D01*
X99185300Y-86833333D02*
X99251966Y-86866666D01*
X99251966Y-86866666D02*
X99285300Y-86899999D01*
X99285300Y-86899999D02*
X99318633Y-86966666D01*
X99318633Y-86966666D02*
X99318633Y-87033333D01*
X99318633Y-87033333D02*
X99285300Y-87099999D01*
X99285300Y-87099999D02*
X99251966Y-87133333D01*
X99251966Y-87133333D02*
X99185300Y-87166666D01*
X99185300Y-87166666D02*
X99051966Y-87199999D01*
X99051966Y-87199999D02*
X98885300Y-87199999D01*
X98885300Y-87199999D02*
X98751966Y-87166666D01*
X98751966Y-87166666D02*
X98685300Y-87133333D01*
X98685300Y-87133333D02*
X98651966Y-87099999D01*
X98651966Y-87099999D02*
X98618633Y-87033333D01*
X98618633Y-86366666D02*
X98618633Y-86299999D01*
X98618633Y-86299999D02*
X98651966Y-86233332D01*
X98651966Y-86233332D02*
X98685300Y-86199999D01*
X98685300Y-86199999D02*
X98751966Y-86166666D01*
X98751966Y-86166666D02*
X98885300Y-86133332D01*
X98885300Y-86133332D02*
X99051966Y-86133332D01*
X99051966Y-86133332D02*
X99185300Y-86166666D01*
X99185300Y-86166666D02*
X99251966Y-86199999D01*
X99251966Y-86199999D02*
X99285300Y-86233332D01*
X99285300Y-86233332D02*
X99318633Y-86299999D01*
X99318633Y-86299999D02*
X99318633Y-86366666D01*
X99318633Y-86366666D02*
X99285300Y-86433332D01*
X99285300Y-86433332D02*
X99251966Y-86466666D01*
X99251966Y-86466666D02*
X99185300Y-86499999D01*
X99185300Y-86499999D02*
X99051966Y-86533332D01*
X99051966Y-86533332D02*
X98885300Y-86533332D01*
X98885300Y-86533332D02*
X98751966Y-86499999D01*
X98751966Y-86499999D02*
X98685300Y-86466666D01*
X98685300Y-86466666D02*
X98651966Y-86433332D01*
X98651966Y-86433332D02*
X98618633Y-86366666D01*
X98851966Y-85833332D02*
X99318633Y-85833332D01*
X98918633Y-85833332D02*
X98885300Y-85799999D01*
X98885300Y-85799999D02*
X98851966Y-85733332D01*
X98851966Y-85733332D02*
X98851966Y-85633332D01*
X98851966Y-85633332D02*
X98885300Y-85566665D01*
X98885300Y-85566665D02*
X98951966Y-85533332D01*
X98951966Y-85533332D02*
X99318633Y-85533332D01*
X98951966Y-84966666D02*
X98951966Y-85199999D01*
X99318633Y-85199999D02*
X98618633Y-85199999D01*
X98618633Y-85199999D02*
X98618633Y-84866666D01*
D11*
X111333333Y-81359580D02*
X111285714Y-81407200D01*
X111285714Y-81407200D02*
X111142857Y-81454819D01*
X111142857Y-81454819D02*
X111047619Y-81454819D01*
X111047619Y-81454819D02*
X110904762Y-81407200D01*
X110904762Y-81407200D02*
X110809524Y-81311961D01*
X110809524Y-81311961D02*
X110761905Y-81216723D01*
X110761905Y-81216723D02*
X110714286Y-81026247D01*
X110714286Y-81026247D02*
X110714286Y-80883390D01*
X110714286Y-80883390D02*
X110761905Y-80692914D01*
X110761905Y-80692914D02*
X110809524Y-80597676D01*
X110809524Y-80597676D02*
X110904762Y-80502438D01*
X110904762Y-80502438D02*
X111047619Y-80454819D01*
X111047619Y-80454819D02*
X111142857Y-80454819D01*
X111142857Y-80454819D02*
X111285714Y-80502438D01*
X111285714Y-80502438D02*
X111333333Y-80550057D01*
X111714286Y-80550057D02*
X111761905Y-80502438D01*
X111761905Y-80502438D02*
X111857143Y-80454819D01*
X111857143Y-80454819D02*
X112095238Y-80454819D01*
X112095238Y-80454819D02*
X112190476Y-80502438D01*
X112190476Y-80502438D02*
X112238095Y-80550057D01*
X112238095Y-80550057D02*
X112285714Y-80645295D01*
X112285714Y-80645295D02*
X112285714Y-80740533D01*
X112285714Y-80740533D02*
X112238095Y-80883390D01*
X112238095Y-80883390D02*
X111666667Y-81454819D01*
X111666667Y-81454819D02*
X112285714Y-81454819D01*
D10*
X109833333Y-82751966D02*
X109800000Y-82785300D01*
X109800000Y-82785300D02*
X109700000Y-82818633D01*
X109700000Y-82818633D02*
X109633333Y-82818633D01*
X109633333Y-82818633D02*
X109533333Y-82785300D01*
X109533333Y-82785300D02*
X109466667Y-82718633D01*
X109466667Y-82718633D02*
X109433333Y-82651966D01*
X109433333Y-82651966D02*
X109400000Y-82518633D01*
X109400000Y-82518633D02*
X109400000Y-82418633D01*
X109400000Y-82418633D02*
X109433333Y-82285300D01*
X109433333Y-82285300D02*
X109466667Y-82218633D01*
X109466667Y-82218633D02*
X109533333Y-82151966D01*
X109533333Y-82151966D02*
X109633333Y-82118633D01*
X109633333Y-82118633D02*
X109700000Y-82118633D01*
X109700000Y-82118633D02*
X109800000Y-82151966D01*
X109800000Y-82151966D02*
X109833333Y-82185300D01*
X109966667Y-82885300D02*
X110500000Y-82885300D01*
X111033333Y-82818633D02*
X110633333Y-82818633D01*
X110833333Y-82818633D02*
X110833333Y-82118633D01*
X110833333Y-82118633D02*
X110766666Y-82218633D01*
X110766666Y-82218633D02*
X110700000Y-82285300D01*
X110700000Y-82285300D02*
X110633333Y-82318633D01*
X111466667Y-82118633D02*
X111533333Y-82118633D01*
X111533333Y-82118633D02*
X111600000Y-82151966D01*
X111600000Y-82151966D02*
X111633333Y-82185300D01*
X111633333Y-82185300D02*
X111666667Y-82251966D01*
X111666667Y-82251966D02*
X111700000Y-82385300D01*
X111700000Y-82385300D02*
X111700000Y-82551966D01*
X111700000Y-82551966D02*
X111666667Y-82685300D01*
X111666667Y-82685300D02*
X111633333Y-82751966D01*
X111633333Y-82751966D02*
X111600000Y-82785300D01*
X111600000Y-82785300D02*
X111533333Y-82818633D01*
X111533333Y-82818633D02*
X111466667Y-82818633D01*
X111466667Y-82818633D02*
X111400000Y-82785300D01*
X111400000Y-82785300D02*
X111366667Y-82751966D01*
X111366667Y-82751966D02*
X111333333Y-82685300D01*
X111333333Y-82685300D02*
X111300000Y-82551966D01*
X111300000Y-82551966D02*
X111300000Y-82385300D01*
X111300000Y-82385300D02*
X111333333Y-82251966D01*
X111333333Y-82251966D02*
X111366667Y-82185300D01*
X111366667Y-82185300D02*
X111400000Y-82151966D01*
X111400000Y-82151966D02*
X111466667Y-82118633D01*
X112133334Y-82118633D02*
X112200000Y-82118633D01*
X112200000Y-82118633D02*
X112266667Y-82151966D01*
X112266667Y-82151966D02*
X112300000Y-82185300D01*
X112300000Y-82185300D02*
X112333334Y-82251966D01*
X112333334Y-82251966D02*
X112366667Y-82385300D01*
X112366667Y-82385300D02*
X112366667Y-82551966D01*
X112366667Y-82551966D02*
X112333334Y-82685300D01*
X112333334Y-82685300D02*
X112300000Y-82751966D01*
X112300000Y-82751966D02*
X112266667Y-82785300D01*
X112266667Y-82785300D02*
X112200000Y-82818633D01*
X112200000Y-82818633D02*
X112133334Y-82818633D01*
X112133334Y-82818633D02*
X112066667Y-82785300D01*
X112066667Y-82785300D02*
X112033334Y-82751966D01*
X112033334Y-82751966D02*
X112000000Y-82685300D01*
X112000000Y-82685300D02*
X111966667Y-82551966D01*
X111966667Y-82551966D02*
X111966667Y-82385300D01*
X111966667Y-82385300D02*
X112000000Y-82251966D01*
X112000000Y-82251966D02*
X112033334Y-82185300D01*
X112033334Y-82185300D02*
X112066667Y-82151966D01*
X112066667Y-82151966D02*
X112133334Y-82118633D01*
X112666667Y-82351966D02*
X112666667Y-82818633D01*
X112666667Y-82418633D02*
X112700001Y-82385300D01*
X112700001Y-82385300D02*
X112766667Y-82351966D01*
X112766667Y-82351966D02*
X112866667Y-82351966D01*
X112866667Y-82351966D02*
X112933334Y-82385300D01*
X112933334Y-82385300D02*
X112966667Y-82451966D01*
X112966667Y-82451966D02*
X112966667Y-82818633D01*
X113533334Y-82451966D02*
X113300000Y-82451966D01*
X113300000Y-82818633D02*
X113300000Y-82118633D01*
X113300000Y-82118633D02*
X113633334Y-82118633D01*
%TO.C,V1*%
X97100000Y-108900000D02*
X122600000Y-108900000D01*
X122600000Y-125300000D01*
X97100000Y-125300000D01*
X97100000Y-108900000D01*
D13*
%TO.C,C1*%
X106479646Y-106375000D02*
X105479646Y-106375000D01*
X105979646Y-106875000D02*
X105979646Y-105875000D01*
X101000000Y-108580000D02*
X101000000Y-98420000D01*
X100960000Y-108580000D02*
X100960000Y-98420000D01*
X100920000Y-108579000D02*
X100920000Y-98421000D01*
X100880000Y-108579000D02*
X100880000Y-98421000D01*
X100840000Y-108577000D02*
X100840000Y-98423000D01*
X100800000Y-108576000D02*
X100800000Y-98424000D01*
X100760000Y-108574000D02*
X100760000Y-98426000D01*
X100720000Y-108572000D02*
X100720000Y-98428000D01*
X100680000Y-108570000D02*
X100680000Y-98430000D01*
X100640000Y-108567000D02*
X100640000Y-98433000D01*
X100600000Y-108564000D02*
X100600000Y-98436000D01*
X100560000Y-108561000D02*
X100560000Y-98439000D01*
X100520000Y-108557000D02*
X100520000Y-98443000D01*
X100480000Y-108554000D02*
X100480000Y-98446000D01*
X100440000Y-108549000D02*
X100440000Y-98451000D01*
X100400000Y-108545000D02*
X100400000Y-98455000D01*
X100360000Y-108540000D02*
X100360000Y-98460000D01*
X100320000Y-108535000D02*
X100320000Y-98465000D01*
X100280000Y-108529000D02*
X100280000Y-98471000D01*
X100240000Y-108523000D02*
X100240000Y-98477000D01*
X100200000Y-108517000D02*
X100200000Y-98483000D01*
X100160000Y-108511000D02*
X100160000Y-98489000D01*
X100120000Y-108504000D02*
X100120000Y-98496000D01*
X100080000Y-108497000D02*
X100080000Y-98503000D01*
X100040000Y-108489000D02*
X100040000Y-98511000D01*
X100000000Y-108481000D02*
X100000000Y-98519000D01*
X99960000Y-108473000D02*
X99960000Y-98527000D01*
X99920000Y-108465000D02*
X99920000Y-98535000D01*
X99880000Y-108456000D02*
X99880000Y-98544000D01*
X99840000Y-108447000D02*
X99840000Y-98553000D01*
X99800000Y-108437000D02*
X99800000Y-98563000D01*
X99760000Y-108428000D02*
X99760000Y-98572000D01*
X99720000Y-108417000D02*
X99720000Y-104740000D01*
X99720000Y-102260000D02*
X99720000Y-98583000D01*
X99680000Y-108407000D02*
X99680000Y-104740000D01*
X99680000Y-102260000D02*
X99680000Y-98593000D01*
X99640000Y-108396000D02*
X99640000Y-104740000D01*
X99640000Y-102260000D02*
X99640000Y-98604000D01*
X99600000Y-108385000D02*
X99600000Y-104740000D01*
X99600000Y-102260000D02*
X99600000Y-98615000D01*
X99560000Y-108373000D02*
X99560000Y-104740000D01*
X99560000Y-102260000D02*
X99560000Y-98627000D01*
X99520000Y-108361000D02*
X99520000Y-104740000D01*
X99520000Y-102260000D02*
X99520000Y-98639000D01*
X99480000Y-108349000D02*
X99480000Y-104740000D01*
X99480000Y-102260000D02*
X99480000Y-98651000D01*
X99440000Y-108337000D02*
X99440000Y-104740000D01*
X99440000Y-102260000D02*
X99440000Y-98663000D01*
X99400000Y-108324000D02*
X99400000Y-104740000D01*
X99400000Y-102260000D02*
X99400000Y-98676000D01*
X99360000Y-108310000D02*
X99360000Y-104740000D01*
X99360000Y-102260000D02*
X99360000Y-98690000D01*
X99320000Y-108297000D02*
X99320000Y-104740000D01*
X99320000Y-102260000D02*
X99320000Y-98703000D01*
X99280000Y-108282000D02*
X99280000Y-104740000D01*
X99280000Y-102260000D02*
X99280000Y-98718000D01*
X99240000Y-108268000D02*
X99240000Y-104740000D01*
X99240000Y-102260000D02*
X99240000Y-98732000D01*
X99200000Y-108253000D02*
X99200000Y-104740000D01*
X99200000Y-102260000D02*
X99200000Y-98747000D01*
X99160000Y-108238000D02*
X99160000Y-104740000D01*
X99160000Y-102260000D02*
X99160000Y-98762000D01*
X99120000Y-108222000D02*
X99120000Y-104740000D01*
X99120000Y-102260000D02*
X99120000Y-98778000D01*
X99080000Y-108206000D02*
X99080000Y-104740000D01*
X99080000Y-102260000D02*
X99080000Y-98794000D01*
X99040000Y-108190000D02*
X99040000Y-104740000D01*
X99040000Y-102260000D02*
X99040000Y-98810000D01*
X99000000Y-108173000D02*
X99000000Y-104740000D01*
X99000000Y-102260000D02*
X99000000Y-98827000D01*
X98960000Y-108156000D02*
X98960000Y-104740000D01*
X98960000Y-102260000D02*
X98960000Y-98844000D01*
X98920000Y-108138000D02*
X98920000Y-104740000D01*
X98920000Y-102260000D02*
X98920000Y-98862000D01*
X98880000Y-108120000D02*
X98880000Y-104740000D01*
X98880000Y-102260000D02*
X98880000Y-98880000D01*
X98840000Y-108102000D02*
X98840000Y-104740000D01*
X98840000Y-102260000D02*
X98840000Y-98898000D01*
X98800000Y-108083000D02*
X98800000Y-104740000D01*
X98800000Y-102260000D02*
X98800000Y-98917000D01*
X98760000Y-108064000D02*
X98760000Y-104740000D01*
X98760000Y-102260000D02*
X98760000Y-98936000D01*
X98720000Y-108044000D02*
X98720000Y-104740000D01*
X98720000Y-102260000D02*
X98720000Y-98956000D01*
X98680000Y-108024000D02*
X98680000Y-104740000D01*
X98680000Y-102260000D02*
X98680000Y-98976000D01*
X98640000Y-108004000D02*
X98640000Y-104740000D01*
X98640000Y-102260000D02*
X98640000Y-98996000D01*
X98600000Y-107983000D02*
X98600000Y-104740000D01*
X98600000Y-102260000D02*
X98600000Y-99017000D01*
X98560000Y-107961000D02*
X98560000Y-104740000D01*
X98560000Y-102260000D02*
X98560000Y-99039000D01*
X98520000Y-107939000D02*
X98520000Y-104740000D01*
X98520000Y-102260000D02*
X98520000Y-99061000D01*
X98480000Y-107917000D02*
X98480000Y-104740000D01*
X98480000Y-102260000D02*
X98480000Y-99083000D01*
X98440000Y-107894000D02*
X98440000Y-104740000D01*
X98440000Y-102260000D02*
X98440000Y-99106000D01*
X98400000Y-107871000D02*
X98400000Y-104740000D01*
X98400000Y-102260000D02*
X98400000Y-99129000D01*
X98360000Y-107847000D02*
X98360000Y-104740000D01*
X98360000Y-102260000D02*
X98360000Y-99153000D01*
X98320000Y-107823000D02*
X98320000Y-104740000D01*
X98320000Y-102260000D02*
X98320000Y-99177000D01*
X98280000Y-107798000D02*
X98280000Y-104740000D01*
X98280000Y-102260000D02*
X98280000Y-99202000D01*
X98240000Y-107772000D02*
X98240000Y-104740000D01*
X98240000Y-102260000D02*
X98240000Y-99228000D01*
X98200000Y-107747000D02*
X98200000Y-104740000D01*
X98200000Y-102260000D02*
X98200000Y-99253000D01*
X98160000Y-107720000D02*
X98160000Y-104740000D01*
X98160000Y-102260000D02*
X98160000Y-99280000D01*
X98120000Y-107693000D02*
X98120000Y-104740000D01*
X98120000Y-102260000D02*
X98120000Y-99307000D01*
X98080000Y-107666000D02*
X98080000Y-104740000D01*
X98080000Y-102260000D02*
X98080000Y-99334000D01*
X98040000Y-107638000D02*
X98040000Y-104740000D01*
X98040000Y-102260000D02*
X98040000Y-99362000D01*
X98000000Y-107609000D02*
X98000000Y-104740000D01*
X98000000Y-102260000D02*
X98000000Y-99391000D01*
X97960000Y-107580000D02*
X97960000Y-104740000D01*
X97960000Y-102260000D02*
X97960000Y-99420000D01*
X97920000Y-107550000D02*
X97920000Y-104740000D01*
X97920000Y-102260000D02*
X97920000Y-99450000D01*
X97880000Y-107520000D02*
X97880000Y-104740000D01*
X97880000Y-102260000D02*
X97880000Y-99480000D01*
X97840000Y-107488000D02*
X97840000Y-104740000D01*
X97840000Y-102260000D02*
X97840000Y-99512000D01*
X97800000Y-107457000D02*
X97800000Y-104740000D01*
X97800000Y-102260000D02*
X97800000Y-99543000D01*
X97760000Y-107424000D02*
X97760000Y-104740000D01*
X97760000Y-102260000D02*
X97760000Y-99576000D01*
X97720000Y-107391000D02*
X97720000Y-104740000D01*
X97720000Y-102260000D02*
X97720000Y-99609000D01*
X97680000Y-107358000D02*
X97680000Y-104740000D01*
X97680000Y-102260000D02*
X97680000Y-99642000D01*
X97640000Y-107323000D02*
X97640000Y-104740000D01*
X97640000Y-102260000D02*
X97640000Y-99677000D01*
X97600000Y-107288000D02*
X97600000Y-104740000D01*
X97600000Y-102260000D02*
X97600000Y-99712000D01*
X97560000Y-107252000D02*
X97560000Y-104740000D01*
X97560000Y-102260000D02*
X97560000Y-99748000D01*
X97520000Y-107216000D02*
X97520000Y-104740000D01*
X97520000Y-102260000D02*
X97520000Y-99784000D01*
X97480000Y-107178000D02*
X97480000Y-104740000D01*
X97480000Y-102260000D02*
X97480000Y-99822000D01*
X97440000Y-107140000D02*
X97440000Y-104740000D01*
X97440000Y-102260000D02*
X97440000Y-99860000D01*
X97400000Y-107101000D02*
X97400000Y-104740000D01*
X97400000Y-102260000D02*
X97400000Y-99899000D01*
X97360000Y-107061000D02*
X97360000Y-104740000D01*
X97360000Y-102260000D02*
X97360000Y-99939000D01*
X97320000Y-107020000D02*
X97320000Y-104740000D01*
X97320000Y-102260000D02*
X97320000Y-99980000D01*
X97280000Y-106978000D02*
X97280000Y-104740000D01*
X97280000Y-102260000D02*
X97280000Y-100022000D01*
X97240000Y-106935000D02*
X97240000Y-100065000D01*
X97200000Y-106891000D02*
X97200000Y-100109000D01*
X97160000Y-106847000D02*
X97160000Y-100153000D01*
X97120000Y-106801000D02*
X97120000Y-100199000D01*
X97080000Y-106754000D02*
X97080000Y-100246000D01*
X97040000Y-106705000D02*
X97040000Y-100295000D01*
X97000000Y-106656000D02*
X97000000Y-100344000D01*
X96960000Y-106605000D02*
X96960000Y-100395000D01*
X96920000Y-106553000D02*
X96920000Y-100447000D01*
X96880000Y-106500000D02*
X96880000Y-100500000D01*
X96840000Y-106445000D02*
X96840000Y-100555000D01*
X96800000Y-106388000D02*
X96800000Y-100612000D01*
X96760000Y-106330000D02*
X96760000Y-100670000D01*
X96720000Y-106270000D02*
X96720000Y-100730000D01*
X96680000Y-106208000D02*
X96680000Y-100792000D01*
X96640000Y-106144000D02*
X96640000Y-100856000D01*
X96600000Y-106078000D02*
X96600000Y-100922000D01*
X96560000Y-106010000D02*
X96560000Y-100990000D01*
X96520000Y-105939000D02*
X96520000Y-101061000D01*
X96480000Y-105865000D02*
X96480000Y-101135000D01*
X96440000Y-105788000D02*
X96440000Y-101212000D01*
X96400000Y-105708000D02*
X96400000Y-101292000D01*
X96360000Y-105624000D02*
X96360000Y-101376000D01*
X96320000Y-105537000D02*
X96320000Y-101463000D01*
X96280000Y-105444000D02*
X96280000Y-101556000D01*
X96240000Y-105346000D02*
X96240000Y-101654000D01*
X96200000Y-105242000D02*
X96200000Y-101758000D01*
X96160000Y-105130000D02*
X96160000Y-101870000D01*
X96120000Y-105009000D02*
X96120000Y-101991000D01*
X96080000Y-104877000D02*
X96080000Y-102123000D01*
X96040000Y-104730000D02*
X96040000Y-102270000D01*
X96000000Y-104562000D02*
X96000000Y-102438000D01*
X95960000Y-104362000D02*
X95960000Y-102638000D01*
X95920000Y-104099000D02*
X95920000Y-102901000D01*
X106120000Y-103500000D02*
G75*
G02*
X95880000Y-103500000I-5120000J0D01*
G01*
X95880000Y-103500000D02*
G75*
G02*
X106120000Y-103500000I5120000J0D01*
G01*
%TO.C,U2*%
X110750000Y-88605000D02*
X110750000Y-83405000D01*
X110750000Y-83405000D02*
X106250000Y-83405000D01*
X109500000Y-88605000D02*
X110750000Y-88605000D01*
X106250000Y-88605000D02*
X107500000Y-88605000D01*
X106250000Y-83405000D02*
X106250000Y-88605000D01*
X107500000Y-88605000D02*
G75*
G02*
X109500000Y-88605000I1000000J0D01*
G01*
%TO.C,U1*%
X107330000Y-75160000D02*
X97050000Y-75160000D01*
X97050000Y-75160000D02*
X97050000Y-80460000D01*
X107330000Y-76810000D02*
X107330000Y-75160000D01*
X107330000Y-80460000D02*
X107330000Y-78810000D01*
X97050000Y-80460000D02*
X107330000Y-80460000D01*
X107330000Y-78810000D02*
G75*
G02*
X107330000Y-76810000I0J1000000D01*
G01*
%TO.C,RV1*%
X105950000Y-90690000D02*
X105700000Y-90690000D01*
X100240000Y-90690000D02*
X103780000Y-90690000D01*
X106150000Y-90790000D02*
X105950000Y-90790000D01*
X106150000Y-90790000D02*
X106150000Y-92210000D01*
X105950000Y-90790000D02*
X105950000Y-90690000D01*
X105950000Y-92210000D02*
X106150000Y-92210000D01*
X105950000Y-92210000D02*
X105950000Y-95790000D01*
X98930000Y-93490000D02*
X98930000Y-92000000D01*
X106150000Y-95790000D02*
X106150000Y-97210000D01*
X105950000Y-95790000D02*
X106150000Y-95790000D01*
X98930000Y-96000000D02*
X98930000Y-94510000D01*
X106150000Y-97210000D02*
X105950000Y-97210000D01*
X105950000Y-97210000D02*
X105950000Y-97310000D01*
X105950000Y-97310000D02*
X105260000Y-97310000D01*
X104220000Y-97310000D02*
X100240000Y-97310000D01*
X98930000Y-92000000D02*
G75*
G02*
X100240000Y-90690000I1310000J0D01*
G01*
X100240000Y-97310000D02*
G75*
G02*
X98930000Y-96000000I0J1310000D01*
G01*
%TO.C,R2*%
X119080000Y-92080000D02*
X122920000Y-92080000D01*
X119080000Y-93920000D02*
X122920000Y-93920000D01*
%TO.C,R1*%
X113420000Y-78420000D02*
X109580000Y-78420000D01*
X113420000Y-76580000D02*
X109580000Y-76580000D01*
%TO.C,J4*%
X117780000Y-100660000D02*
X117780000Y-94880000D01*
X118300000Y-100660000D02*
X118300000Y-94880000D01*
X123600000Y-100660000D02*
X123600000Y-100070000D01*
X124220000Y-100660000D02*
X117780000Y-100660000D01*
X124220000Y-100070000D02*
X124220000Y-100660000D01*
X123600000Y-98010000D02*
X123600000Y-97530000D01*
X124220000Y-97530000D02*
X124220000Y-98010000D01*
X123600000Y-95470000D02*
X123600000Y-94880000D01*
X117780000Y-94880000D02*
X124220000Y-94880000D01*
X124220000Y-94880000D02*
X124220000Y-95470000D01*
X125180000Y-99480000D02*
X124570000Y-99040000D01*
X125180000Y-98600000D01*
X125180000Y-99480000D01*
G36*
X125180000Y-99480000D02*
G01*
X124570000Y-99040000D01*
X125180000Y-98600000D01*
X125180000Y-99480000D01*
G37*
%TO.C,J3*%
X117780000Y-107660000D02*
X117780000Y-101880000D01*
X118300000Y-107660000D02*
X118300000Y-101880000D01*
X123600000Y-107660000D02*
X123600000Y-107070000D01*
X124220000Y-107660000D02*
X117780000Y-107660000D01*
X124220000Y-107070000D02*
X124220000Y-107660000D01*
X123600000Y-105010000D02*
X123600000Y-104530000D01*
X124220000Y-104530000D02*
X124220000Y-105010000D01*
X123600000Y-102470000D02*
X123600000Y-101880000D01*
X117780000Y-101880000D02*
X124220000Y-101880000D01*
X124220000Y-101880000D02*
X124220000Y-102470000D01*
X125180000Y-106480000D02*
X124570000Y-106040000D01*
X125180000Y-105600000D01*
X125180000Y-106480000D01*
G36*
X125180000Y-106480000D02*
G01*
X124570000Y-106040000D01*
X125180000Y-105600000D01*
X125180000Y-106480000D01*
G37*
%TO.C,J2*%
X124120000Y-79720000D02*
X115800000Y-79720000D01*
X124120000Y-79200000D02*
X115800000Y-79200000D01*
X124120000Y-73900000D02*
X123530000Y-73900000D01*
X124120000Y-73280000D02*
X124120000Y-79720000D01*
X123530000Y-73280000D02*
X124120000Y-73280000D01*
X121470000Y-73900000D02*
X120990000Y-73900000D01*
X120990000Y-73280000D02*
X121470000Y-73280000D01*
X118930000Y-73900000D02*
X118450000Y-73900000D01*
X118450000Y-73280000D02*
X118930000Y-73280000D01*
X116390000Y-73900000D02*
X115800000Y-73900000D01*
X115800000Y-79720000D02*
X115800000Y-73280000D01*
X115800000Y-73280000D02*
X116390000Y-73280000D01*
X122500000Y-72930000D02*
X122060000Y-72320000D01*
X122940000Y-72320000D01*
X122500000Y-72930000D01*
G36*
X122500000Y-72930000D02*
G01*
X122060000Y-72320000D01*
X122940000Y-72320000D01*
X122500000Y-72930000D01*
G37*
%TO.C,J1*%
X113880000Y-72620000D02*
X113880000Y-74000000D01*
X112500000Y-72620000D02*
X113880000Y-72620000D01*
X111230000Y-72620000D02*
X108580000Y-72620000D01*
X111230000Y-72620000D02*
X111230000Y-75380000D01*
X108580000Y-72620000D02*
X108580000Y-75380000D01*
X111230000Y-75380000D02*
X108580000Y-75380000D01*
%TO.C,D6*%
X114720000Y-104470000D02*
X109280000Y-104470000D01*
X114720000Y-104140000D02*
X114720000Y-104470000D01*
X114720000Y-101860000D02*
X114720000Y-101530000D01*
X114720000Y-101530000D02*
X109280000Y-101530000D01*
X113940000Y-104470000D02*
X113940000Y-101530000D01*
X113820000Y-104470000D02*
X113820000Y-101530000D01*
X113700000Y-104470000D02*
X113700000Y-101530000D01*
X109280000Y-104470000D02*
X109280000Y-104140000D01*
X109280000Y-101530000D02*
X109280000Y-101860000D01*
%TO.C,D5*%
X114720000Y-100970000D02*
X109280000Y-100970000D01*
X114720000Y-100640000D02*
X114720000Y-100970000D01*
X114720000Y-98360000D02*
X114720000Y-98030000D01*
X114720000Y-98030000D02*
X109280000Y-98030000D01*
X113940000Y-100970000D02*
X113940000Y-98030000D01*
X113820000Y-100970000D02*
X113820000Y-98030000D01*
X113700000Y-100970000D02*
X113700000Y-98030000D01*
X109280000Y-100970000D02*
X109280000Y-100640000D01*
X109280000Y-98030000D02*
X109280000Y-98360000D01*
%TO.C,D4*%
X109280000Y-105030000D02*
X114720000Y-105030000D01*
X109280000Y-105360000D02*
X109280000Y-105030000D01*
X109280000Y-107640000D02*
X109280000Y-107970000D01*
X109280000Y-107970000D02*
X114720000Y-107970000D01*
X110060000Y-105030000D02*
X110060000Y-107970000D01*
X110180000Y-105030000D02*
X110180000Y-107970000D01*
X110300000Y-105030000D02*
X110300000Y-107970000D01*
X114720000Y-105030000D02*
X114720000Y-105360000D01*
X114720000Y-107970000D02*
X114720000Y-107640000D01*
%TO.C,D3*%
X109470000Y-94530000D02*
X114910000Y-94530000D01*
X109470000Y-94860000D02*
X109470000Y-94530000D01*
X109470000Y-97140000D02*
X109470000Y-97470000D01*
X109470000Y-97470000D02*
X114910000Y-97470000D01*
X110250000Y-94530000D02*
X110250000Y-97470000D01*
X110370000Y-94530000D02*
X110370000Y-97470000D01*
X110490000Y-94530000D02*
X110490000Y-97470000D01*
X114910000Y-94530000D02*
X114910000Y-94860000D01*
X114910000Y-97470000D02*
X114910000Y-97140000D01*
%TO.C,D2*%
X120530000Y-89220000D02*
X120530000Y-83780000D01*
X120860000Y-89220000D02*
X120530000Y-89220000D01*
X123140000Y-89220000D02*
X123470000Y-89220000D01*
X123470000Y-89220000D02*
X123470000Y-83780000D01*
X120530000Y-88440000D02*
X123470000Y-88440000D01*
X120530000Y-88320000D02*
X123470000Y-88320000D01*
X120530000Y-88200000D02*
X123470000Y-88200000D01*
X120530000Y-83780000D02*
X120860000Y-83780000D01*
X123470000Y-83780000D02*
X123140000Y-83780000D01*
%TO.C,C4*%
X118370000Y-83880000D02*
X118370000Y-89120000D01*
X118033000Y-83880000D02*
X118370000Y-83880000D01*
X115630000Y-83880000D02*
X115967000Y-83880000D01*
X118370000Y-89120000D02*
X118033000Y-89120000D01*
X115967000Y-89120000D02*
X115630000Y-89120000D01*
X115630000Y-89120000D02*
X115630000Y-83880000D01*
%TO.C,C3*%
X102370000Y-84380000D02*
X102370000Y-89620000D01*
X102033000Y-84380000D02*
X102370000Y-84380000D01*
X99630000Y-84380000D02*
X99967000Y-84380000D01*
X102370000Y-89620000D02*
X102033000Y-89620000D01*
X99967000Y-89620000D02*
X99630000Y-89620000D01*
X99630000Y-89620000D02*
X99630000Y-84380000D01*
%TO.C,C2*%
X114120000Y-82370000D02*
X108880000Y-82370000D01*
X114120000Y-82033000D02*
X114120000Y-82370000D01*
X114120000Y-79630000D02*
X114120000Y-79967000D01*
X108880000Y-82370000D02*
X108880000Y-82033000D01*
X108880000Y-79967000D02*
X108880000Y-79630000D01*
X108880000Y-79630000D02*
X114120000Y-79630000D01*
%TD*%
M02*
