%TF.GenerationSoftware,KiCad,Pcbnew,9.0.7*%
%TF.CreationDate,2026-02-13T16:37:28+01:00*%
%TF.ProjectId,Alpha2_GO_PWM,416c7068-6132-45f4-974f-5f50574d2e6b,rev?*%
%TF.SameCoordinates,Original*%
%TF.FileFunction,Copper,L2,Bot*%
%TF.FilePolarity,Positive*%
%FSLAX46Y46*%
G04 Gerber Fmt 4.6, Leading zero omitted, Abs format (unit mm)*
G04 Created by KiCad (PCBNEW 9.0.7) date 2026-02-13 16:37:28*
%MOMM*%
%LPD*%
G01*
G04 APERTURE LIST*
G04 Aperture macros list*
%AMRoundRect*
0 Rectangle with rounded corners*
0 $1 Rounding radius*
0 $2 $3 $4 $5 $6 $7 $8 $9 X,Y pos of 4 corners*
0 Add a 4 corners polygon primitive as box body*
4,1,4,$2,$3,$4,$5,$6,$7,$8,$9,$2,$3,0*
0 Add four circle primitives for the rounded corners*
1,1,$1+$1,$2,$3*
1,1,$1+$1,$4,$5*
1,1,$1+$1,$6,$7*
1,1,$1+$1,$8,$9*
0 Add four rect primitives between the rounded corners*
20,1,$1+$1,$2,$3,$4,$5,0*
20,1,$1+$1,$4,$5,$6,$7,0*
20,1,$1+$1,$6,$7,$8,$9,0*
20,1,$1+$1,$8,$9,$2,$3,0*%
G04 Aperture macros list end*
%TA.AperFunction,ComponentPad*%
%ADD10RoundRect,0.250000X0.750000X0.750000X-0.750000X0.750000X-0.750000X-0.750000X0.750000X-0.750000X0*%
%TD*%
%TA.AperFunction,ComponentPad*%
%ADD11C,2.000000*%
%TD*%
%TA.AperFunction,ComponentPad*%
%ADD12RoundRect,0.250000X0.950000X0.550000X-0.950000X0.550000X-0.950000X-0.550000X0.950000X-0.550000X0*%
%TD*%
%TA.AperFunction,ComponentPad*%
%ADD13O,2.400000X1.600000*%
%TD*%
%TA.AperFunction,ComponentPad*%
%ADD14RoundRect,0.250000X-0.550000X0.550000X-0.550000X-0.550000X0.550000X-0.550000X0.550000X0.550000X0*%
%TD*%
%TA.AperFunction,ComponentPad*%
%ADD15C,1.600000*%
%TD*%
%TA.AperFunction,ComponentPad*%
%ADD16R,1.560000X1.560000*%
%TD*%
%TA.AperFunction,ComponentPad*%
%ADD17C,1.560000*%
%TD*%
%TA.AperFunction,ComponentPad*%
%ADD18C,1.400000*%
%TD*%
%TA.AperFunction,ComponentPad*%
%ADD19RoundRect,0.249999X0.850001X-0.850001X0.850001X0.850001X-0.850001X0.850001X-0.850001X-0.850001X0*%
%TD*%
%TA.AperFunction,ComponentPad*%
%ADD20C,2.200000*%
%TD*%
%TA.AperFunction,ComponentPad*%
%ADD21RoundRect,0.249999X0.850001X0.850001X-0.850001X0.850001X-0.850001X-0.850001X0.850001X-0.850001X0*%
%TD*%
%TA.AperFunction,ComponentPad*%
%ADD22R,1.700000X1.700000*%
%TD*%
%TA.AperFunction,ComponentPad*%
%ADD23C,1.700000*%
%TD*%
%TA.AperFunction,ComponentPad*%
%ADD24RoundRect,0.250000X0.650000X0.650000X-0.650000X0.650000X-0.650000X-0.650000X0.650000X-0.650000X0*%
%TD*%
%TA.AperFunction,ComponentPad*%
%ADD25C,1.800000*%
%TD*%
%TA.AperFunction,ComponentPad*%
%ADD26RoundRect,0.250000X-0.650000X-0.650000X0.650000X-0.650000X0.650000X0.650000X-0.650000X0.650000X0*%
%TD*%
%TA.AperFunction,ComponentPad*%
%ADD27RoundRect,0.250000X0.650000X-0.650000X0.650000X0.650000X-0.650000X0.650000X-0.650000X-0.650000X0*%
%TD*%
%TA.AperFunction,ViaPad*%
%ADD28C,1.200000*%
%TD*%
%TA.AperFunction,Conductor*%
%ADD29C,0.600000*%
%TD*%
%TA.AperFunction,Conductor*%
%ADD30C,0.200000*%
%TD*%
G04 APERTURE END LIST*
D10*
%TO.P,C1,1*%
%TO.N,+24V*%
X103500000Y-103500000D03*
D11*
%TO.P,C1,2*%
%TO.N,GND*%
X98500000Y-103500000D03*
%TD*%
D12*
%TO.P,U2,1*%
%TO.N,Net-(D2-K)*%
X112310000Y-87275000D03*
D13*
%TO.P,U2,2*%
%TO.N,GND*%
X112310000Y-84735000D03*
%TO.P,U2,3*%
X104690000Y-84735000D03*
%TO.P,U2,4*%
%TO.N,Net-(U1-PB2)*%
X104690000Y-87275000D03*
%TD*%
D14*
%TO.P,U1,1,~{RESET}/PB5*%
%TO.N,unconnected-(U1-~{RESET}{slash}PB5-Pad1)*%
X106000000Y-74000000D03*
D15*
%TO.P,U1,2,XTAL1/PB3*%
%TO.N,unconnected-(U1-XTAL1{slash}PB3-Pad2)*%
X103460000Y-74000000D03*
%TO.P,U1,3,XTAL2/PB4*%
%TO.N,Net-(U1-XTAL2{slash}PB4)*%
X100920000Y-74000000D03*
%TO.P,U1,4,GND*%
%TO.N,GND*%
X98380000Y-74000000D03*
%TO.P,U1,5,AREF/PB0*%
%TO.N,Net-(J1-Pin_2)*%
X98380000Y-81620000D03*
%TO.P,U1,6,PB1*%
%TO.N,Net-(J2-Pin_3)*%
X100920000Y-81620000D03*
%TO.P,U1,7,PB2*%
%TO.N,Net-(U1-PB2)*%
X103460000Y-81620000D03*
%TO.P,U1,8,VCC*%
%TO.N,+5V*%
X106000000Y-81620000D03*
%TD*%
D16*
%TO.P,RV1,1,1*%
%TO.N,+5V*%
X104740000Y-91500000D03*
D17*
%TO.P,RV1,2,2*%
%TO.N,Net-(U1-XTAL2{slash}PB4)*%
X99740000Y-94000000D03*
%TO.P,RV1,3,3*%
%TO.N,GND*%
X104740000Y-96500000D03*
%TD*%
D18*
%TO.P,R2,1*%
%TO.N,Net-(J4-Pin_2)*%
X118460000Y-93000000D03*
%TO.P,R2,2*%
%TO.N,Net-(D2-K)*%
X123540000Y-93000000D03*
%TD*%
%TO.P,R1,1*%
%TO.N,+5V*%
X114040000Y-77500000D03*
%TO.P,R1,2*%
%TO.N,Net-(U1-PB2)*%
X108960000Y-77500000D03*
%TD*%
D19*
%TO.P,J4,1,Pin_1*%
%TO.N,+24V*%
X121000000Y-99040000D03*
D20*
%TO.P,J4,2,Pin_2*%
%TO.N,Net-(J4-Pin_2)*%
X121000000Y-96500000D03*
%TD*%
D19*
%TO.P,J3,1,Pin_1*%
%TO.N,Net-(D4-A)*%
X121000000Y-106040000D03*
D20*
%TO.P,J3,2,Pin_2*%
%TO.N,Net-(D3-A)*%
X121000000Y-103500000D03*
%TD*%
D21*
%TO.P,J2,1,Pin_1*%
%TO.N,unconnected-(J2-Pin_1-Pad1)*%
X122500000Y-76500000D03*
D20*
%TO.P,J2,2,Pin_2*%
%TO.N,GND*%
X119960000Y-76500000D03*
%TO.P,J2,3,Pin_3*%
%TO.N,Net-(J2-Pin_3)*%
X117420000Y-76500000D03*
%TD*%
D22*
%TO.P,J1,1,Pin_1*%
%TO.N,GND*%
X112500000Y-74000000D03*
D23*
%TO.P,J1,2,Pin_2*%
%TO.N,Net-(J1-Pin_2)*%
X109960000Y-74000000D03*
%TD*%
D24*
%TO.P,D6,1,K*%
%TO.N,Net-(D4-A)*%
X115810000Y-103000000D03*
D25*
%TO.P,D6,2,A*%
%TO.N,GND*%
X108190000Y-103000000D03*
%TD*%
D24*
%TO.P,D5,1,K*%
%TO.N,Net-(D3-A)*%
X115810000Y-99500000D03*
D25*
%TO.P,D5,2,A*%
%TO.N,GND*%
X108190000Y-99500000D03*
%TD*%
D26*
%TO.P,D4,1,K*%
%TO.N,+24V*%
X108190000Y-106500000D03*
D25*
%TO.P,D4,2,A*%
%TO.N,Net-(D4-A)*%
X115810000Y-106500000D03*
%TD*%
D26*
%TO.P,D3,1,K*%
%TO.N,+24V*%
X108380000Y-96000000D03*
D25*
%TO.P,D3,2,A*%
%TO.N,Net-(D3-A)*%
X116000000Y-96000000D03*
%TD*%
D27*
%TO.P,D2,1,K*%
%TO.N,Net-(D2-K)*%
X122000000Y-90310000D03*
D25*
%TO.P,D2,2,A*%
%TO.N,GND*%
X122000000Y-82690000D03*
%TD*%
D15*
%TO.P,C4,1*%
%TO.N,GND*%
X117000000Y-84000000D03*
%TO.P,C4,2*%
%TO.N,Net-(D2-K)*%
X117000000Y-89000000D03*
%TD*%
%TO.P,C3,1*%
%TO.N,GND*%
X101000000Y-84500000D03*
%TO.P,C3,2*%
%TO.N,Net-(U1-PB2)*%
X101000000Y-89500000D03*
%TD*%
%TO.P,C2,1*%
%TO.N,GND*%
X114000000Y-81000000D03*
%TO.P,C2,2*%
%TO.N,+5V*%
X109000000Y-81000000D03*
%TD*%
D28*
%TO.N,+5V*%
X101000000Y-110000000D03*
%TD*%
D29*
%TO.N,Net-(U1-XTAL2{slash}PB4)*%
X96000000Y-88500000D02*
X99740000Y-92240000D01*
X97500000Y-76500000D02*
X96000000Y-78000000D01*
X96000000Y-78000000D02*
X96000000Y-88500000D01*
X99740000Y-92240000D02*
X99740000Y-94000000D01*
X100920000Y-75420000D02*
X99840000Y-76500000D01*
X99840000Y-76500000D02*
X97500000Y-76500000D01*
X100920000Y-74000000D02*
X100920000Y-75420000D01*
%TO.N,+5V*%
X102500000Y-88500000D02*
X104740000Y-90740000D01*
X103000000Y-83000000D02*
X102500000Y-83500000D01*
X102500000Y-83500000D02*
X102500000Y-88500000D01*
X104620000Y-83000000D02*
X103000000Y-83000000D01*
X104740000Y-90740000D02*
X104740000Y-91500000D01*
X106000000Y-81620000D02*
X104620000Y-83000000D01*
%TO.N,GND*%
X107740000Y-99500000D02*
X104740000Y-96500000D01*
X108190000Y-99500000D02*
X107740000Y-99500000D01*
%TO.N,+5V*%
X104740000Y-92760000D02*
X104740000Y-91500000D01*
X101000000Y-96500000D02*
X104740000Y-92760000D01*
X101000000Y-110000000D02*
X101000000Y-96500000D01*
%TO.N,GND*%
X111000000Y-98500000D02*
X110000000Y-99500000D01*
X111000000Y-93000000D02*
X111000000Y-98500000D01*
X110000000Y-99500000D02*
X108190000Y-99500000D01*
X111765000Y-84735000D02*
X109500000Y-87000000D01*
X109500000Y-91500000D02*
X111000000Y-93000000D01*
D30*
X112310000Y-84735000D02*
X111765000Y-84735000D01*
D29*
X109500000Y-87000000D02*
X109500000Y-91500000D01*
%TO.N,Net-(U1-PB2)*%
X106225000Y-87275000D02*
X104690000Y-87275000D01*
X107500000Y-86000000D02*
X106225000Y-87275000D01*
X107500000Y-78960000D02*
X107500000Y-86000000D01*
X108960000Y-77500000D02*
X107500000Y-78960000D01*
%TD*%
M02*
