%TF.GenerationSoftware,KiCad,Pcbnew,9.0.7*%
%TF.CreationDate,2026-02-13T16:37:28+01:00*%
%TF.ProjectId,Alpha2_GO_PWM,416c7068-6132-45f4-974f-5f50574d2e6b,rev?*%
%TF.SameCoordinates,Original*%
%TF.FileFunction,Legend,Bot*%
%TF.FilePolarity,Positive*%
%FSLAX46Y46*%
G04 Gerber Fmt 4.6, Leading zero omitted, Abs format (unit mm)*
G04 Created by KiCad (PCBNEW 9.0.7) date 2026-02-13 16:37:28*
%MOMM*%
%LPD*%
G01*
G04 APERTURE LIST*
%ADD10C,0.300000*%
G04 APERTURE END LIST*
D10*
X124035965Y-83945414D02*
X123835965Y-84012080D01*
X123835965Y-84012080D02*
X123502632Y-84012080D01*
X123502632Y-84012080D02*
X123369298Y-83945414D01*
X123369298Y-83945414D02*
X123302632Y-83878747D01*
X123302632Y-83878747D02*
X123235965Y-83745414D01*
X123235965Y-83745414D02*
X123235965Y-83612080D01*
X123235965Y-83612080D02*
X123302632Y-83478747D01*
X123302632Y-83478747D02*
X123369298Y-83412080D01*
X123369298Y-83412080D02*
X123502632Y-83345414D01*
X123502632Y-83345414D02*
X123769298Y-83278747D01*
X123769298Y-83278747D02*
X123902632Y-83212080D01*
X123902632Y-83212080D02*
X123969298Y-83145414D01*
X123969298Y-83145414D02*
X124035965Y-83012080D01*
X124035965Y-83012080D02*
X124035965Y-82878747D01*
X124035965Y-82878747D02*
X123969298Y-82745414D01*
X123969298Y-82745414D02*
X123902632Y-82678747D01*
X123902632Y-82678747D02*
X123769298Y-82612080D01*
X123769298Y-82612080D02*
X123435965Y-82612080D01*
X123435965Y-82612080D02*
X123235965Y-82678747D01*
X122035965Y-83078747D02*
X122035965Y-84012080D01*
X122635965Y-83078747D02*
X122635965Y-83812080D01*
X122635965Y-83812080D02*
X122569299Y-83945414D01*
X122569299Y-83945414D02*
X122435965Y-84012080D01*
X122435965Y-84012080D02*
X122235965Y-84012080D01*
X122235965Y-84012080D02*
X122102632Y-83945414D01*
X122102632Y-83945414D02*
X122035965Y-83878747D01*
X121369298Y-83078747D02*
X121369298Y-84478747D01*
X121369298Y-83145414D02*
X121235965Y-83078747D01*
X121235965Y-83078747D02*
X120969298Y-83078747D01*
X120969298Y-83078747D02*
X120835965Y-83145414D01*
X120835965Y-83145414D02*
X120769298Y-83212080D01*
X120769298Y-83212080D02*
X120702632Y-83345414D01*
X120702632Y-83345414D02*
X120702632Y-83745414D01*
X120702632Y-83745414D02*
X120769298Y-83878747D01*
X120769298Y-83878747D02*
X120835965Y-83945414D01*
X120835965Y-83945414D02*
X120969298Y-84012080D01*
X120969298Y-84012080D02*
X121235965Y-84012080D01*
X121235965Y-84012080D02*
X121369298Y-83945414D01*
X119902631Y-84012080D02*
X120035965Y-83945414D01*
X120035965Y-83945414D02*
X120102631Y-83812080D01*
X120102631Y-83812080D02*
X120102631Y-82612080D01*
X119502632Y-83078747D02*
X119169298Y-84012080D01*
X118835965Y-83078747D02*
X119169298Y-84012080D01*
X119169298Y-84012080D02*
X119302632Y-84345414D01*
X119302632Y-84345414D02*
X119369298Y-84412080D01*
X119369298Y-84412080D02*
X119502632Y-84478747D01*
X117435964Y-83078747D02*
X116902631Y-83078747D01*
X117235964Y-82612080D02*
X117235964Y-83812080D01*
X117235964Y-83812080D02*
X117169298Y-83945414D01*
X117169298Y-83945414D02*
X117035964Y-84012080D01*
X117035964Y-84012080D02*
X116902631Y-84012080D01*
X115902631Y-83945414D02*
X116035964Y-84012080D01*
X116035964Y-84012080D02*
X116302631Y-84012080D01*
X116302631Y-84012080D02*
X116435964Y-83945414D01*
X116435964Y-83945414D02*
X116502631Y-83812080D01*
X116502631Y-83812080D02*
X116502631Y-83278747D01*
X116502631Y-83278747D02*
X116435964Y-83145414D01*
X116435964Y-83145414D02*
X116302631Y-83078747D01*
X116302631Y-83078747D02*
X116035964Y-83078747D01*
X116035964Y-83078747D02*
X115902631Y-83145414D01*
X115902631Y-83145414D02*
X115835964Y-83278747D01*
X115835964Y-83278747D02*
X115835964Y-83412080D01*
X115835964Y-83412080D02*
X116502631Y-83545414D01*
X115235964Y-84012080D02*
X115235964Y-83078747D01*
X115235964Y-83345414D02*
X115169298Y-83212080D01*
X115169298Y-83212080D02*
X115102631Y-83145414D01*
X115102631Y-83145414D02*
X114969298Y-83078747D01*
X114969298Y-83078747D02*
X114835964Y-83078747D01*
X114369297Y-84012080D02*
X114369297Y-83078747D01*
X114369297Y-83212080D02*
X114302631Y-83145414D01*
X114302631Y-83145414D02*
X114169297Y-83078747D01*
X114169297Y-83078747D02*
X113969297Y-83078747D01*
X113969297Y-83078747D02*
X113835964Y-83145414D01*
X113835964Y-83145414D02*
X113769297Y-83278747D01*
X113769297Y-83278747D02*
X113769297Y-84012080D01*
X113769297Y-83278747D02*
X113702631Y-83145414D01*
X113702631Y-83145414D02*
X113569297Y-83078747D01*
X113569297Y-83078747D02*
X113369297Y-83078747D01*
X113369297Y-83078747D02*
X113235964Y-83145414D01*
X113235964Y-83145414D02*
X113169297Y-83278747D01*
X113169297Y-83278747D02*
X113169297Y-84012080D01*
X112502630Y-84012080D02*
X112502630Y-83078747D01*
X112502630Y-82612080D02*
X112569297Y-82678747D01*
X112569297Y-82678747D02*
X112502630Y-82745414D01*
X112502630Y-82745414D02*
X112435964Y-82678747D01*
X112435964Y-82678747D02*
X112502630Y-82612080D01*
X112502630Y-82612080D02*
X112502630Y-82745414D01*
X111835963Y-83078747D02*
X111835963Y-84012080D01*
X111835963Y-83212080D02*
X111769297Y-83145414D01*
X111769297Y-83145414D02*
X111635963Y-83078747D01*
X111635963Y-83078747D02*
X111435963Y-83078747D01*
X111435963Y-83078747D02*
X111302630Y-83145414D01*
X111302630Y-83145414D02*
X111235963Y-83278747D01*
X111235963Y-83278747D02*
X111235963Y-84012080D01*
X109969296Y-84012080D02*
X109969296Y-83278747D01*
X109969296Y-83278747D02*
X110035963Y-83145414D01*
X110035963Y-83145414D02*
X110169296Y-83078747D01*
X110169296Y-83078747D02*
X110435963Y-83078747D01*
X110435963Y-83078747D02*
X110569296Y-83145414D01*
X109969296Y-83945414D02*
X110102630Y-84012080D01*
X110102630Y-84012080D02*
X110435963Y-84012080D01*
X110435963Y-84012080D02*
X110569296Y-83945414D01*
X110569296Y-83945414D02*
X110635963Y-83812080D01*
X110635963Y-83812080D02*
X110635963Y-83678747D01*
X110635963Y-83678747D02*
X110569296Y-83545414D01*
X110569296Y-83545414D02*
X110435963Y-83478747D01*
X110435963Y-83478747D02*
X110102630Y-83478747D01*
X110102630Y-83478747D02*
X109969296Y-83412080D01*
X109102629Y-84012080D02*
X109235963Y-83945414D01*
X109235963Y-83945414D02*
X109302629Y-83812080D01*
X109302629Y-83812080D02*
X109302629Y-82612080D01*
X108635963Y-83945414D02*
X108502630Y-84012080D01*
X108502630Y-84012080D02*
X108235963Y-84012080D01*
X108235963Y-84012080D02*
X108102630Y-83945414D01*
X108102630Y-83945414D02*
X108035963Y-83812080D01*
X108035963Y-83812080D02*
X108035963Y-83745414D01*
X108035963Y-83745414D02*
X108102630Y-83612080D01*
X108102630Y-83612080D02*
X108235963Y-83545414D01*
X108235963Y-83545414D02*
X108435963Y-83545414D01*
X108435963Y-83545414D02*
X108569296Y-83478747D01*
X108569296Y-83478747D02*
X108635963Y-83345414D01*
X108635963Y-83345414D02*
X108635963Y-83278747D01*
X108635963Y-83278747D02*
X108569296Y-83145414D01*
X108569296Y-83145414D02*
X108435963Y-83078747D01*
X108435963Y-83078747D02*
X108235963Y-83078747D01*
X108235963Y-83078747D02*
X108102630Y-83145414D01*
X107435963Y-83878747D02*
X107369297Y-83945414D01*
X107369297Y-83945414D02*
X107435963Y-84012080D01*
X107435963Y-84012080D02*
X107502630Y-83945414D01*
X107502630Y-83945414D02*
X107435963Y-83878747D01*
X107435963Y-83878747D02*
X107435963Y-84012080D01*
X107435963Y-83145414D02*
X107369297Y-83212080D01*
X107369297Y-83212080D02*
X107435963Y-83278747D01*
X107435963Y-83278747D02*
X107502630Y-83212080D01*
X107502630Y-83212080D02*
X107435963Y-83145414D01*
X107435963Y-83145414D02*
X107435963Y-83278747D01*
X124035965Y-85866002D02*
X123369298Y-85866002D01*
X124169298Y-86266002D02*
X123702632Y-84866002D01*
X123702632Y-84866002D02*
X123235965Y-86266002D01*
X121969298Y-86132669D02*
X122035965Y-86199336D01*
X122035965Y-86199336D02*
X122235965Y-86266002D01*
X122235965Y-86266002D02*
X122369298Y-86266002D01*
X122369298Y-86266002D02*
X122569298Y-86199336D01*
X122569298Y-86199336D02*
X122702632Y-86066002D01*
X122702632Y-86066002D02*
X122769298Y-85932669D01*
X122769298Y-85932669D02*
X122835965Y-85666002D01*
X122835965Y-85666002D02*
X122835965Y-85466002D01*
X122835965Y-85466002D02*
X122769298Y-85199336D01*
X122769298Y-85199336D02*
X122702632Y-85066002D01*
X122702632Y-85066002D02*
X122569298Y-84932669D01*
X122569298Y-84932669D02*
X122369298Y-84866002D01*
X122369298Y-84866002D02*
X122235965Y-84866002D01*
X122235965Y-84866002D02*
X122035965Y-84932669D01*
X122035965Y-84932669D02*
X121969298Y-84999336D01*
X120102631Y-86266002D02*
X120235965Y-86199336D01*
X120235965Y-86199336D02*
X120302631Y-86132669D01*
X120302631Y-86132669D02*
X120369298Y-85999336D01*
X120369298Y-85999336D02*
X120369298Y-85599336D01*
X120369298Y-85599336D02*
X120302631Y-85466002D01*
X120302631Y-85466002D02*
X120235965Y-85399336D01*
X120235965Y-85399336D02*
X120102631Y-85332669D01*
X120102631Y-85332669D02*
X119902631Y-85332669D01*
X119902631Y-85332669D02*
X119769298Y-85399336D01*
X119769298Y-85399336D02*
X119702631Y-85466002D01*
X119702631Y-85466002D02*
X119635965Y-85599336D01*
X119635965Y-85599336D02*
X119635965Y-85999336D01*
X119635965Y-85999336D02*
X119702631Y-86132669D01*
X119702631Y-86132669D02*
X119769298Y-86199336D01*
X119769298Y-86199336D02*
X119902631Y-86266002D01*
X119902631Y-86266002D02*
X120102631Y-86266002D01*
X119235964Y-85332669D02*
X118702631Y-85332669D01*
X119035964Y-86266002D02*
X119035964Y-85066002D01*
X119035964Y-85066002D02*
X118969298Y-84932669D01*
X118969298Y-84932669D02*
X118835964Y-84866002D01*
X118835964Y-84866002D02*
X118702631Y-84866002D01*
X117169297Y-86266002D02*
X117169297Y-84866002D01*
X117169297Y-84866002D02*
X116835964Y-84866002D01*
X116835964Y-84866002D02*
X116635964Y-84932669D01*
X116635964Y-84932669D02*
X116502631Y-85066002D01*
X116502631Y-85066002D02*
X116435964Y-85199336D01*
X116435964Y-85199336D02*
X116369297Y-85466002D01*
X116369297Y-85466002D02*
X116369297Y-85666002D01*
X116369297Y-85666002D02*
X116435964Y-85932669D01*
X116435964Y-85932669D02*
X116502631Y-86066002D01*
X116502631Y-86066002D02*
X116635964Y-86199336D01*
X116635964Y-86199336D02*
X116835964Y-86266002D01*
X116835964Y-86266002D02*
X117169297Y-86266002D01*
X114969297Y-86132669D02*
X115035964Y-86199336D01*
X115035964Y-86199336D02*
X115235964Y-86266002D01*
X115235964Y-86266002D02*
X115369297Y-86266002D01*
X115369297Y-86266002D02*
X115569297Y-86199336D01*
X115569297Y-86199336D02*
X115702631Y-86066002D01*
X115702631Y-86066002D02*
X115769297Y-85932669D01*
X115769297Y-85932669D02*
X115835964Y-85666002D01*
X115835964Y-85666002D02*
X115835964Y-85466002D01*
X115835964Y-85466002D02*
X115769297Y-85199336D01*
X115769297Y-85199336D02*
X115702631Y-85066002D01*
X115702631Y-85066002D02*
X115569297Y-84932669D01*
X115569297Y-84932669D02*
X115369297Y-84866002D01*
X115369297Y-84866002D02*
X115235964Y-84866002D01*
X115235964Y-84866002D02*
X115035964Y-84932669D01*
X115035964Y-84932669D02*
X114969297Y-84999336D01*
X123502632Y-87786591D02*
X123302632Y-87853258D01*
X123302632Y-87853258D02*
X123235965Y-87919924D01*
X123235965Y-87919924D02*
X123169298Y-88053258D01*
X123169298Y-88053258D02*
X123169298Y-88253258D01*
X123169298Y-88253258D02*
X123235965Y-88386591D01*
X123235965Y-88386591D02*
X123302632Y-88453258D01*
X123302632Y-88453258D02*
X123435965Y-88519924D01*
X123435965Y-88519924D02*
X123969298Y-88519924D01*
X123969298Y-88519924D02*
X123969298Y-87119924D01*
X123969298Y-87119924D02*
X123502632Y-87119924D01*
X123502632Y-87119924D02*
X123369298Y-87186591D01*
X123369298Y-87186591D02*
X123302632Y-87253258D01*
X123302632Y-87253258D02*
X123235965Y-87386591D01*
X123235965Y-87386591D02*
X123235965Y-87519924D01*
X123235965Y-87519924D02*
X123302632Y-87653258D01*
X123302632Y-87653258D02*
X123369298Y-87719924D01*
X123369298Y-87719924D02*
X123502632Y-87786591D01*
X123502632Y-87786591D02*
X123969298Y-87786591D01*
X122569298Y-88519924D02*
X122569298Y-87586591D01*
X122569298Y-87119924D02*
X122635965Y-87186591D01*
X122635965Y-87186591D02*
X122569298Y-87253258D01*
X122569298Y-87253258D02*
X122502632Y-87186591D01*
X122502632Y-87186591D02*
X122569298Y-87119924D01*
X122569298Y-87119924D02*
X122569298Y-87253258D01*
X121902631Y-87586591D02*
X121902631Y-88786591D01*
X121902631Y-88786591D02*
X121969298Y-88919924D01*
X121969298Y-88919924D02*
X122102631Y-88986591D01*
X122102631Y-88986591D02*
X122169298Y-88986591D01*
X121902631Y-87119924D02*
X121969298Y-87186591D01*
X121969298Y-87186591D02*
X121902631Y-87253258D01*
X121902631Y-87253258D02*
X121835965Y-87186591D01*
X121835965Y-87186591D02*
X121902631Y-87119924D01*
X121902631Y-87119924D02*
X121902631Y-87253258D01*
X120169297Y-88519924D02*
X120169297Y-87119924D01*
X120169297Y-87119924D02*
X119835964Y-87119924D01*
X119835964Y-87119924D02*
X119635964Y-87186591D01*
X119635964Y-87186591D02*
X119502631Y-87319924D01*
X119502631Y-87319924D02*
X119435964Y-87453258D01*
X119435964Y-87453258D02*
X119369297Y-87719924D01*
X119369297Y-87719924D02*
X119369297Y-87919924D01*
X119369297Y-87919924D02*
X119435964Y-88186591D01*
X119435964Y-88186591D02*
X119502631Y-88319924D01*
X119502631Y-88319924D02*
X119635964Y-88453258D01*
X119635964Y-88453258D02*
X119835964Y-88519924D01*
X119835964Y-88519924D02*
X120169297Y-88519924D01*
X117969297Y-88386591D02*
X118035964Y-88453258D01*
X118035964Y-88453258D02*
X118235964Y-88519924D01*
X118235964Y-88519924D02*
X118369297Y-88519924D01*
X118369297Y-88519924D02*
X118569297Y-88453258D01*
X118569297Y-88453258D02*
X118702631Y-88319924D01*
X118702631Y-88319924D02*
X118769297Y-88186591D01*
X118769297Y-88186591D02*
X118835964Y-87919924D01*
X118835964Y-87919924D02*
X118835964Y-87719924D01*
X118835964Y-87719924D02*
X118769297Y-87453258D01*
X118769297Y-87453258D02*
X118702631Y-87319924D01*
X118702631Y-87319924D02*
X118569297Y-87186591D01*
X118569297Y-87186591D02*
X118369297Y-87119924D01*
X118369297Y-87119924D02*
X118235964Y-87119924D01*
X118235964Y-87119924D02*
X118035964Y-87186591D01*
X118035964Y-87186591D02*
X117969297Y-87253258D01*
X116302630Y-87986591D02*
X115235964Y-87986591D01*
X113302630Y-88519924D02*
X113435964Y-88453258D01*
X113435964Y-88453258D02*
X113502630Y-88319924D01*
X113502630Y-88319924D02*
X113502630Y-87119924D01*
X112769297Y-88519924D02*
X112769297Y-87586591D01*
X112769297Y-87119924D02*
X112835964Y-87186591D01*
X112835964Y-87186591D02*
X112769297Y-87253258D01*
X112769297Y-87253258D02*
X112702631Y-87186591D01*
X112702631Y-87186591D02*
X112769297Y-87119924D01*
X112769297Y-87119924D02*
X112769297Y-87253258D01*
X112102630Y-87586591D02*
X112102630Y-88519924D01*
X112102630Y-87719924D02*
X112035964Y-87653258D01*
X112035964Y-87653258D02*
X111902630Y-87586591D01*
X111902630Y-87586591D02*
X111702630Y-87586591D01*
X111702630Y-87586591D02*
X111569297Y-87653258D01*
X111569297Y-87653258D02*
X111502630Y-87786591D01*
X111502630Y-87786591D02*
X111502630Y-88519924D01*
X110835963Y-88519924D02*
X110835963Y-87119924D01*
X110702630Y-87986591D02*
X110302630Y-88519924D01*
X110302630Y-87586591D02*
X110835963Y-88119924D01*
X109769297Y-88453258D02*
X109635964Y-88519924D01*
X109635964Y-88519924D02*
X109369297Y-88519924D01*
X109369297Y-88519924D02*
X109235964Y-88453258D01*
X109235964Y-88453258D02*
X109169297Y-88319924D01*
X109169297Y-88319924D02*
X109169297Y-88253258D01*
X109169297Y-88253258D02*
X109235964Y-88119924D01*
X109235964Y-88119924D02*
X109369297Y-88053258D01*
X109369297Y-88053258D02*
X109569297Y-88053258D01*
X109569297Y-88053258D02*
X109702630Y-87986591D01*
X109702630Y-87986591D02*
X109769297Y-87853258D01*
X109769297Y-87853258D02*
X109769297Y-87786591D01*
X109769297Y-87786591D02*
X109702630Y-87653258D01*
X109702630Y-87653258D02*
X109569297Y-87586591D01*
X109569297Y-87586591D02*
X109369297Y-87586591D01*
X109369297Y-87586591D02*
X109235964Y-87653258D01*
X106969297Y-88453258D02*
X107102630Y-88519924D01*
X107102630Y-88519924D02*
X107369297Y-88519924D01*
X107369297Y-88519924D02*
X107502630Y-88453258D01*
X107502630Y-88453258D02*
X107569297Y-88319924D01*
X107569297Y-88319924D02*
X107569297Y-87786591D01*
X107569297Y-87786591D02*
X107502630Y-87653258D01*
X107502630Y-87653258D02*
X107369297Y-87586591D01*
X107369297Y-87586591D02*
X107102630Y-87586591D01*
X107102630Y-87586591D02*
X106969297Y-87653258D01*
X106969297Y-87653258D02*
X106902630Y-87786591D01*
X106902630Y-87786591D02*
X106902630Y-87919924D01*
X106902630Y-87919924D02*
X107569297Y-88053258D01*
X106302630Y-87586591D02*
X106302630Y-88519924D01*
X106302630Y-87719924D02*
X106235964Y-87653258D01*
X106235964Y-87653258D02*
X106102630Y-87586591D01*
X106102630Y-87586591D02*
X105902630Y-87586591D01*
X105902630Y-87586591D02*
X105769297Y-87653258D01*
X105769297Y-87653258D02*
X105702630Y-87786591D01*
X105702630Y-87786591D02*
X105702630Y-88519924D01*
X103969296Y-87986591D02*
X102902630Y-87986591D01*
X103435963Y-88519924D02*
X103435963Y-87453258D01*
X101169296Y-88519924D02*
X101169296Y-87586591D01*
X101169296Y-87853258D02*
X101102630Y-87719924D01*
X101102630Y-87719924D02*
X101035963Y-87653258D01*
X101035963Y-87653258D02*
X100902630Y-87586591D01*
X100902630Y-87586591D02*
X100769296Y-87586591D01*
X99769296Y-88453258D02*
X99902629Y-88519924D01*
X99902629Y-88519924D02*
X100169296Y-88519924D01*
X100169296Y-88519924D02*
X100302629Y-88453258D01*
X100302629Y-88453258D02*
X100369296Y-88319924D01*
X100369296Y-88319924D02*
X100369296Y-87786591D01*
X100369296Y-87786591D02*
X100302629Y-87653258D01*
X100302629Y-87653258D02*
X100169296Y-87586591D01*
X100169296Y-87586591D02*
X99902629Y-87586591D01*
X99902629Y-87586591D02*
X99769296Y-87653258D01*
X99769296Y-87653258D02*
X99702629Y-87786591D01*
X99702629Y-87786591D02*
X99702629Y-87919924D01*
X99702629Y-87919924D02*
X100369296Y-88053258D01*
X98502629Y-88453258D02*
X98635963Y-88519924D01*
X98635963Y-88519924D02*
X98902629Y-88519924D01*
X98902629Y-88519924D02*
X99035963Y-88453258D01*
X99035963Y-88453258D02*
X99102629Y-88386591D01*
X99102629Y-88386591D02*
X99169296Y-88253258D01*
X99169296Y-88253258D02*
X99169296Y-87853258D01*
X99169296Y-87853258D02*
X99102629Y-87719924D01*
X99102629Y-87719924D02*
X99035963Y-87653258D01*
X99035963Y-87653258D02*
X98902629Y-87586591D01*
X98902629Y-87586591D02*
X98635963Y-87586591D01*
X98635963Y-87586591D02*
X98502629Y-87653258D01*
X97902629Y-88519924D02*
X97902629Y-87119924D01*
X97302629Y-88519924D02*
X97302629Y-87786591D01*
X97302629Y-87786591D02*
X97369296Y-87653258D01*
X97369296Y-87653258D02*
X97502629Y-87586591D01*
X97502629Y-87586591D02*
X97702629Y-87586591D01*
X97702629Y-87586591D02*
X97835963Y-87653258D01*
X97835963Y-87653258D02*
X97902629Y-87719924D01*
X96835962Y-87586591D02*
X96302629Y-87586591D01*
X96635962Y-87119924D02*
X96635962Y-88319924D01*
X96635962Y-88319924D02*
X96569296Y-88453258D01*
X96569296Y-88453258D02*
X96435962Y-88519924D01*
X96435962Y-88519924D02*
X96302629Y-88519924D01*
X95902629Y-88453258D02*
X95769296Y-88519924D01*
X95769296Y-88519924D02*
X95502629Y-88519924D01*
X95502629Y-88519924D02*
X95369296Y-88453258D01*
X95369296Y-88453258D02*
X95302629Y-88319924D01*
X95302629Y-88319924D02*
X95302629Y-88253258D01*
X95302629Y-88253258D02*
X95369296Y-88119924D01*
X95369296Y-88119924D02*
X95502629Y-88053258D01*
X95502629Y-88053258D02*
X95702629Y-88053258D01*
X95702629Y-88053258D02*
X95835962Y-87986591D01*
X95835962Y-87986591D02*
X95902629Y-87853258D01*
X95902629Y-87853258D02*
X95902629Y-87786591D01*
X95902629Y-87786591D02*
X95835962Y-87653258D01*
X95835962Y-87653258D02*
X95702629Y-87586591D01*
X95702629Y-87586591D02*
X95502629Y-87586591D01*
X95502629Y-87586591D02*
X95369296Y-87653258D01*
X123369298Y-90773846D02*
X123369298Y-90040513D01*
X123369298Y-90040513D02*
X123435965Y-89907180D01*
X123435965Y-89907180D02*
X123569298Y-89840513D01*
X123569298Y-89840513D02*
X123835965Y-89840513D01*
X123835965Y-89840513D02*
X123969298Y-89907180D01*
X123369298Y-90707180D02*
X123502632Y-90773846D01*
X123502632Y-90773846D02*
X123835965Y-90773846D01*
X123835965Y-90773846D02*
X123969298Y-90707180D01*
X123969298Y-90707180D02*
X124035965Y-90573846D01*
X124035965Y-90573846D02*
X124035965Y-90440513D01*
X124035965Y-90440513D02*
X123969298Y-90307180D01*
X123969298Y-90307180D02*
X123835965Y-90240513D01*
X123835965Y-90240513D02*
X123502632Y-90240513D01*
X123502632Y-90240513D02*
X123369298Y-90173846D01*
X122702631Y-89840513D02*
X122702631Y-90773846D01*
X122702631Y-89973846D02*
X122635965Y-89907180D01*
X122635965Y-89907180D02*
X122502631Y-89840513D01*
X122502631Y-89840513D02*
X122302631Y-89840513D01*
X122302631Y-89840513D02*
X122169298Y-89907180D01*
X122169298Y-89907180D02*
X122102631Y-90040513D01*
X122102631Y-90040513D02*
X122102631Y-90773846D01*
X120835964Y-90773846D02*
X120835964Y-89373846D01*
X120835964Y-90707180D02*
X120969298Y-90773846D01*
X120969298Y-90773846D02*
X121235964Y-90773846D01*
X121235964Y-90773846D02*
X121369298Y-90707180D01*
X121369298Y-90707180D02*
X121435964Y-90640513D01*
X121435964Y-90640513D02*
X121502631Y-90507180D01*
X121502631Y-90507180D02*
X121502631Y-90107180D01*
X121502631Y-90107180D02*
X121435964Y-89973846D01*
X121435964Y-89973846D02*
X121369298Y-89907180D01*
X121369298Y-89907180D02*
X121235964Y-89840513D01*
X121235964Y-89840513D02*
X120969298Y-89840513D01*
X120969298Y-89840513D02*
X120835964Y-89907180D01*
X119635964Y-90707180D02*
X119769297Y-90773846D01*
X119769297Y-90773846D02*
X120035964Y-90773846D01*
X120035964Y-90773846D02*
X120169297Y-90707180D01*
X120169297Y-90707180D02*
X120235964Y-90573846D01*
X120235964Y-90573846D02*
X120235964Y-90040513D01*
X120235964Y-90040513D02*
X120169297Y-89907180D01*
X120169297Y-89907180D02*
X120035964Y-89840513D01*
X120035964Y-89840513D02*
X119769297Y-89840513D01*
X119769297Y-89840513D02*
X119635964Y-89907180D01*
X119635964Y-89907180D02*
X119569297Y-90040513D01*
X119569297Y-90040513D02*
X119569297Y-90173846D01*
X119569297Y-90173846D02*
X120235964Y-90307180D01*
X118969297Y-90773846D02*
X118969297Y-89840513D01*
X118969297Y-90107180D02*
X118902631Y-89973846D01*
X118902631Y-89973846D02*
X118835964Y-89907180D01*
X118835964Y-89907180D02*
X118702631Y-89840513D01*
X118702631Y-89840513D02*
X118569297Y-89840513D01*
X118169297Y-90707180D02*
X118035964Y-90773846D01*
X118035964Y-90773846D02*
X117769297Y-90773846D01*
X117769297Y-90773846D02*
X117635964Y-90707180D01*
X117635964Y-90707180D02*
X117569297Y-90573846D01*
X117569297Y-90573846D02*
X117569297Y-90507180D01*
X117569297Y-90507180D02*
X117635964Y-90373846D01*
X117635964Y-90373846D02*
X117769297Y-90307180D01*
X117769297Y-90307180D02*
X117969297Y-90307180D01*
X117969297Y-90307180D02*
X118102630Y-90240513D01*
X118102630Y-90240513D02*
X118169297Y-90107180D01*
X118169297Y-90107180D02*
X118169297Y-90040513D01*
X118169297Y-90040513D02*
X118102630Y-89907180D01*
X118102630Y-89907180D02*
X117969297Y-89840513D01*
X117969297Y-89840513D02*
X117769297Y-89840513D01*
X117769297Y-89840513D02*
X117635964Y-89907180D01*
X115969297Y-90707180D02*
X115835964Y-90773846D01*
X115835964Y-90773846D02*
X115569297Y-90773846D01*
X115569297Y-90773846D02*
X115435964Y-90707180D01*
X115435964Y-90707180D02*
X115369297Y-90573846D01*
X115369297Y-90573846D02*
X115369297Y-90507180D01*
X115369297Y-90507180D02*
X115435964Y-90373846D01*
X115435964Y-90373846D02*
X115569297Y-90307180D01*
X115569297Y-90307180D02*
X115769297Y-90307180D01*
X115769297Y-90307180D02*
X115902630Y-90240513D01*
X115902630Y-90240513D02*
X115969297Y-90107180D01*
X115969297Y-90107180D02*
X115969297Y-90040513D01*
X115969297Y-90040513D02*
X115902630Y-89907180D01*
X115902630Y-89907180D02*
X115769297Y-89840513D01*
X115769297Y-89840513D02*
X115569297Y-89840513D01*
X115569297Y-89840513D02*
X115435964Y-89907180D01*
X114169297Y-90707180D02*
X114302631Y-90773846D01*
X114302631Y-90773846D02*
X114569297Y-90773846D01*
X114569297Y-90773846D02*
X114702631Y-90707180D01*
X114702631Y-90707180D02*
X114769297Y-90640513D01*
X114769297Y-90640513D02*
X114835964Y-90507180D01*
X114835964Y-90507180D02*
X114835964Y-90107180D01*
X114835964Y-90107180D02*
X114769297Y-89973846D01*
X114769297Y-89973846D02*
X114702631Y-89907180D01*
X114702631Y-89907180D02*
X114569297Y-89840513D01*
X114569297Y-89840513D02*
X114302631Y-89840513D01*
X114302631Y-89840513D02*
X114169297Y-89907180D01*
X113569297Y-90773846D02*
X113569297Y-89373846D01*
X112969297Y-90773846D02*
X112969297Y-90040513D01*
X112969297Y-90040513D02*
X113035964Y-89907180D01*
X113035964Y-89907180D02*
X113169297Y-89840513D01*
X113169297Y-89840513D02*
X113369297Y-89840513D01*
X113369297Y-89840513D02*
X113502631Y-89907180D01*
X113502631Y-89907180D02*
X113569297Y-89973846D01*
X111702630Y-90773846D02*
X111702630Y-90040513D01*
X111702630Y-90040513D02*
X111769297Y-89907180D01*
X111769297Y-89907180D02*
X111902630Y-89840513D01*
X111902630Y-89840513D02*
X112169297Y-89840513D01*
X112169297Y-89840513D02*
X112302630Y-89907180D01*
X111702630Y-90707180D02*
X111835964Y-90773846D01*
X111835964Y-90773846D02*
X112169297Y-90773846D01*
X112169297Y-90773846D02*
X112302630Y-90707180D01*
X112302630Y-90707180D02*
X112369297Y-90573846D01*
X112369297Y-90573846D02*
X112369297Y-90440513D01*
X112369297Y-90440513D02*
X112302630Y-90307180D01*
X112302630Y-90307180D02*
X112169297Y-90240513D01*
X112169297Y-90240513D02*
X111835964Y-90240513D01*
X111835964Y-90240513D02*
X111702630Y-90173846D01*
X110435963Y-90773846D02*
X110435963Y-89373846D01*
X110435963Y-90707180D02*
X110569297Y-90773846D01*
X110569297Y-90773846D02*
X110835963Y-90773846D01*
X110835963Y-90773846D02*
X110969297Y-90707180D01*
X110969297Y-90707180D02*
X111035963Y-90640513D01*
X111035963Y-90640513D02*
X111102630Y-90507180D01*
X111102630Y-90507180D02*
X111102630Y-90107180D01*
X111102630Y-90107180D02*
X111035963Y-89973846D01*
X111035963Y-89973846D02*
X110969297Y-89907180D01*
X110969297Y-89907180D02*
X110835963Y-89840513D01*
X110835963Y-89840513D02*
X110569297Y-89840513D01*
X110569297Y-89840513D02*
X110435963Y-89907180D01*
X109235963Y-90707180D02*
X109369296Y-90773846D01*
X109369296Y-90773846D02*
X109635963Y-90773846D01*
X109635963Y-90773846D02*
X109769296Y-90707180D01*
X109769296Y-90707180D02*
X109835963Y-90573846D01*
X109835963Y-90573846D02*
X109835963Y-90040513D01*
X109835963Y-90040513D02*
X109769296Y-89907180D01*
X109769296Y-89907180D02*
X109635963Y-89840513D01*
X109635963Y-89840513D02*
X109369296Y-89840513D01*
X109369296Y-89840513D02*
X109235963Y-89907180D01*
X109235963Y-89907180D02*
X109169296Y-90040513D01*
X109169296Y-90040513D02*
X109169296Y-90173846D01*
X109169296Y-90173846D02*
X109835963Y-90307180D01*
X108569296Y-90640513D02*
X108502630Y-90707180D01*
X108502630Y-90707180D02*
X108569296Y-90773846D01*
X108569296Y-90773846D02*
X108635963Y-90707180D01*
X108635963Y-90707180D02*
X108569296Y-90640513D01*
X108569296Y-90640513D02*
X108569296Y-90773846D01*
X123702632Y-93881690D02*
X123435965Y-93881690D01*
X123435965Y-93881690D02*
X123302632Y-93948357D01*
X123302632Y-93948357D02*
X123169298Y-94081690D01*
X123169298Y-94081690D02*
X123102632Y-94348357D01*
X123102632Y-94348357D02*
X123102632Y-94815024D01*
X123102632Y-94815024D02*
X123169298Y-95081690D01*
X123169298Y-95081690D02*
X123302632Y-95215024D01*
X123302632Y-95215024D02*
X123435965Y-95281690D01*
X123435965Y-95281690D02*
X123702632Y-95281690D01*
X123702632Y-95281690D02*
X123835965Y-95215024D01*
X123835965Y-95215024D02*
X123969298Y-95081690D01*
X123969298Y-95081690D02*
X124035965Y-94815024D01*
X124035965Y-94815024D02*
X124035965Y-94348357D01*
X124035965Y-94348357D02*
X123969298Y-94081690D01*
X123969298Y-94081690D02*
X123835965Y-93948357D01*
X123835965Y-93948357D02*
X123702632Y-93881690D01*
X122502631Y-94348357D02*
X122502631Y-95281690D01*
X122502631Y-94481690D02*
X122435965Y-94415024D01*
X122435965Y-94415024D02*
X122302631Y-94348357D01*
X122302631Y-94348357D02*
X122102631Y-94348357D01*
X122102631Y-94348357D02*
X121969298Y-94415024D01*
X121969298Y-94415024D02*
X121902631Y-94548357D01*
X121902631Y-94548357D02*
X121902631Y-95281690D01*
X121235964Y-94748357D02*
X120169298Y-94748357D01*
X119235965Y-93881690D02*
X118969298Y-93881690D01*
X118969298Y-93881690D02*
X118835965Y-93948357D01*
X118835965Y-93948357D02*
X118702631Y-94081690D01*
X118702631Y-94081690D02*
X118635965Y-94348357D01*
X118635965Y-94348357D02*
X118635965Y-94815024D01*
X118635965Y-94815024D02*
X118702631Y-95081690D01*
X118702631Y-95081690D02*
X118835965Y-95215024D01*
X118835965Y-95215024D02*
X118969298Y-95281690D01*
X118969298Y-95281690D02*
X119235965Y-95281690D01*
X119235965Y-95281690D02*
X119369298Y-95215024D01*
X119369298Y-95215024D02*
X119502631Y-95081690D01*
X119502631Y-95081690D02*
X119569298Y-94815024D01*
X119569298Y-94815024D02*
X119569298Y-94348357D01*
X119569298Y-94348357D02*
X119502631Y-94081690D01*
X119502631Y-94081690D02*
X119369298Y-93948357D01*
X119369298Y-93948357D02*
X119235965Y-93881690D01*
X118235964Y-94348357D02*
X117702631Y-94348357D01*
X118035964Y-95281690D02*
X118035964Y-94081690D01*
X118035964Y-94081690D02*
X117969298Y-93948357D01*
X117969298Y-93948357D02*
X117835964Y-93881690D01*
X117835964Y-93881690D02*
X117702631Y-93881690D01*
X117435964Y-94348357D02*
X116902631Y-94348357D01*
X117235964Y-95281690D02*
X117235964Y-94081690D01*
X117235964Y-94081690D02*
X117169298Y-93948357D01*
X117169298Y-93948357D02*
X117035964Y-93881690D01*
X117035964Y-93881690D02*
X116902631Y-93881690D01*
X115435964Y-95215024D02*
X115302631Y-95281690D01*
X115302631Y-95281690D02*
X115035964Y-95281690D01*
X115035964Y-95281690D02*
X114902631Y-95215024D01*
X114902631Y-95215024D02*
X114835964Y-95081690D01*
X114835964Y-95081690D02*
X114835964Y-95015024D01*
X114835964Y-95015024D02*
X114902631Y-94881690D01*
X114902631Y-94881690D02*
X115035964Y-94815024D01*
X115035964Y-94815024D02*
X115235964Y-94815024D01*
X115235964Y-94815024D02*
X115369297Y-94748357D01*
X115369297Y-94748357D02*
X115435964Y-94615024D01*
X115435964Y-94615024D02*
X115435964Y-94548357D01*
X115435964Y-94548357D02*
X115369297Y-94415024D01*
X115369297Y-94415024D02*
X115235964Y-94348357D01*
X115235964Y-94348357D02*
X115035964Y-94348357D01*
X115035964Y-94348357D02*
X114902631Y-94415024D01*
X114369298Y-94348357D02*
X114102631Y-95281690D01*
X114102631Y-95281690D02*
X113835964Y-94615024D01*
X113835964Y-94615024D02*
X113569298Y-95281690D01*
X113569298Y-95281690D02*
X113302631Y-94348357D01*
X112769297Y-95281690D02*
X112769297Y-94348357D01*
X112769297Y-93881690D02*
X112835964Y-93948357D01*
X112835964Y-93948357D02*
X112769297Y-94015024D01*
X112769297Y-94015024D02*
X112702631Y-93948357D01*
X112702631Y-93948357D02*
X112769297Y-93881690D01*
X112769297Y-93881690D02*
X112769297Y-94015024D01*
X112302630Y-94348357D02*
X111769297Y-94348357D01*
X112102630Y-93881690D02*
X112102630Y-95081690D01*
X112102630Y-95081690D02*
X112035964Y-95215024D01*
X112035964Y-95215024D02*
X111902630Y-95281690D01*
X111902630Y-95281690D02*
X111769297Y-95281690D01*
X110702630Y-95215024D02*
X110835964Y-95281690D01*
X110835964Y-95281690D02*
X111102630Y-95281690D01*
X111102630Y-95281690D02*
X111235964Y-95215024D01*
X111235964Y-95215024D02*
X111302630Y-95148357D01*
X111302630Y-95148357D02*
X111369297Y-95015024D01*
X111369297Y-95015024D02*
X111369297Y-94615024D01*
X111369297Y-94615024D02*
X111302630Y-94481690D01*
X111302630Y-94481690D02*
X111235964Y-94415024D01*
X111235964Y-94415024D02*
X111102630Y-94348357D01*
X111102630Y-94348357D02*
X110835964Y-94348357D01*
X110835964Y-94348357D02*
X110702630Y-94415024D01*
X110102630Y-95281690D02*
X110102630Y-93881690D01*
X109502630Y-95281690D02*
X109502630Y-94548357D01*
X109502630Y-94548357D02*
X109569297Y-94415024D01*
X109569297Y-94415024D02*
X109702630Y-94348357D01*
X109702630Y-94348357D02*
X109902630Y-94348357D01*
X109902630Y-94348357D02*
X110035964Y-94415024D01*
X110035964Y-94415024D02*
X110102630Y-94481690D01*
X107769296Y-94548357D02*
X106702630Y-94548357D01*
X106702630Y-94948357D02*
X107769296Y-94948357D01*
X105102630Y-94348357D02*
X104769296Y-95281690D01*
X104769296Y-95281690D02*
X104435963Y-94348357D01*
X103902629Y-95281690D02*
X103902629Y-94348357D01*
X103902629Y-94615024D02*
X103835963Y-94481690D01*
X103835963Y-94481690D02*
X103769296Y-94415024D01*
X103769296Y-94415024D02*
X103635963Y-94348357D01*
X103635963Y-94348357D02*
X103502629Y-94348357D01*
X103035962Y-95281690D02*
X103035962Y-94348357D01*
X103035962Y-93881690D02*
X103102629Y-93948357D01*
X103102629Y-93948357D02*
X103035962Y-94015024D01*
X103035962Y-94015024D02*
X102969296Y-93948357D01*
X102969296Y-93948357D02*
X103035962Y-93881690D01*
X103035962Y-93881690D02*
X103035962Y-94015024D01*
X102369295Y-94348357D02*
X102369295Y-95548357D01*
X102369295Y-95548357D02*
X102435962Y-95681690D01*
X102435962Y-95681690D02*
X102569295Y-95748357D01*
X102569295Y-95748357D02*
X102635962Y-95748357D01*
X102369295Y-93881690D02*
X102435962Y-93948357D01*
X102435962Y-93948357D02*
X102369295Y-94015024D01*
X102369295Y-94015024D02*
X102302629Y-93948357D01*
X102302629Y-93948357D02*
X102369295Y-93881690D01*
X102369295Y-93881690D02*
X102369295Y-94015024D01*
X101102628Y-94348357D02*
X101102628Y-95481690D01*
X101102628Y-95481690D02*
X101169295Y-95615024D01*
X101169295Y-95615024D02*
X101235962Y-95681690D01*
X101235962Y-95681690D02*
X101369295Y-95748357D01*
X101369295Y-95748357D02*
X101569295Y-95748357D01*
X101569295Y-95748357D02*
X101702628Y-95681690D01*
X101102628Y-95215024D02*
X101235962Y-95281690D01*
X101235962Y-95281690D02*
X101502628Y-95281690D01*
X101502628Y-95281690D02*
X101635962Y-95215024D01*
X101635962Y-95215024D02*
X101702628Y-95148357D01*
X101702628Y-95148357D02*
X101769295Y-95015024D01*
X101769295Y-95015024D02*
X101769295Y-94615024D01*
X101769295Y-94615024D02*
X101702628Y-94481690D01*
X101702628Y-94481690D02*
X101635962Y-94415024D01*
X101635962Y-94415024D02*
X101502628Y-94348357D01*
X101502628Y-94348357D02*
X101235962Y-94348357D01*
X101235962Y-94348357D02*
X101102628Y-94415024D01*
X99835961Y-95281690D02*
X99835961Y-94548357D01*
X99835961Y-94548357D02*
X99902628Y-94415024D01*
X99902628Y-94415024D02*
X100035961Y-94348357D01*
X100035961Y-94348357D02*
X100302628Y-94348357D01*
X100302628Y-94348357D02*
X100435961Y-94415024D01*
X99835961Y-95215024D02*
X99969295Y-95281690D01*
X99969295Y-95281690D02*
X100302628Y-95281690D01*
X100302628Y-95281690D02*
X100435961Y-95215024D01*
X100435961Y-95215024D02*
X100502628Y-95081690D01*
X100502628Y-95081690D02*
X100502628Y-94948357D01*
X100502628Y-94948357D02*
X100435961Y-94815024D01*
X100435961Y-94815024D02*
X100302628Y-94748357D01*
X100302628Y-94748357D02*
X99969295Y-94748357D01*
X99969295Y-94748357D02*
X99835961Y-94681690D01*
X99302628Y-94348357D02*
X98969294Y-95281690D01*
X98969294Y-95281690D02*
X98635961Y-94348357D01*
X97569294Y-95215024D02*
X97702627Y-95281690D01*
X97702627Y-95281690D02*
X97969294Y-95281690D01*
X97969294Y-95281690D02*
X98102627Y-95215024D01*
X98102627Y-95215024D02*
X98169294Y-95081690D01*
X98169294Y-95081690D02*
X98169294Y-94548357D01*
X98169294Y-94548357D02*
X98102627Y-94415024D01*
X98102627Y-94415024D02*
X97969294Y-94348357D01*
X97969294Y-94348357D02*
X97702627Y-94348357D01*
X97702627Y-94348357D02*
X97569294Y-94415024D01*
X97569294Y-94415024D02*
X97502627Y-94548357D01*
X97502627Y-94548357D02*
X97502627Y-94681690D01*
X97502627Y-94681690D02*
X98169294Y-94815024D01*
X124169298Y-96135612D02*
X123702632Y-97535612D01*
X123702632Y-97535612D02*
X123235965Y-96135612D01*
X122769298Y-97535612D02*
X122769298Y-96602279D01*
X122769298Y-96868946D02*
X122702632Y-96735612D01*
X122702632Y-96735612D02*
X122635965Y-96668946D01*
X122635965Y-96668946D02*
X122502632Y-96602279D01*
X122502632Y-96602279D02*
X122369298Y-96602279D01*
X121902631Y-97535612D02*
X121902631Y-96602279D01*
X121902631Y-96135612D02*
X121969298Y-96202279D01*
X121969298Y-96202279D02*
X121902631Y-96268946D01*
X121902631Y-96268946D02*
X121835965Y-96202279D01*
X121835965Y-96202279D02*
X121902631Y-96135612D01*
X121902631Y-96135612D02*
X121902631Y-96268946D01*
X121235964Y-96602279D02*
X121235964Y-97802279D01*
X121235964Y-97802279D02*
X121302631Y-97935612D01*
X121302631Y-97935612D02*
X121435964Y-98002279D01*
X121435964Y-98002279D02*
X121502631Y-98002279D01*
X121235964Y-96135612D02*
X121302631Y-96202279D01*
X121302631Y-96202279D02*
X121235964Y-96268946D01*
X121235964Y-96268946D02*
X121169298Y-96202279D01*
X121169298Y-96202279D02*
X121235964Y-96135612D01*
X121235964Y-96135612D02*
X121235964Y-96268946D01*
X119969297Y-96602279D02*
X119969297Y-97735612D01*
X119969297Y-97735612D02*
X120035964Y-97868946D01*
X120035964Y-97868946D02*
X120102631Y-97935612D01*
X120102631Y-97935612D02*
X120235964Y-98002279D01*
X120235964Y-98002279D02*
X120435964Y-98002279D01*
X120435964Y-98002279D02*
X120569297Y-97935612D01*
X119969297Y-97468946D02*
X120102631Y-97535612D01*
X120102631Y-97535612D02*
X120369297Y-97535612D01*
X120369297Y-97535612D02*
X120502631Y-97468946D01*
X120502631Y-97468946D02*
X120569297Y-97402279D01*
X120569297Y-97402279D02*
X120635964Y-97268946D01*
X120635964Y-97268946D02*
X120635964Y-96868946D01*
X120635964Y-96868946D02*
X120569297Y-96735612D01*
X120569297Y-96735612D02*
X120502631Y-96668946D01*
X120502631Y-96668946D02*
X120369297Y-96602279D01*
X120369297Y-96602279D02*
X120102631Y-96602279D01*
X120102631Y-96602279D02*
X119969297Y-96668946D01*
X118702630Y-97535612D02*
X118702630Y-96802279D01*
X118702630Y-96802279D02*
X118769297Y-96668946D01*
X118769297Y-96668946D02*
X118902630Y-96602279D01*
X118902630Y-96602279D02*
X119169297Y-96602279D01*
X119169297Y-96602279D02*
X119302630Y-96668946D01*
X118702630Y-97468946D02*
X118835964Y-97535612D01*
X118835964Y-97535612D02*
X119169297Y-97535612D01*
X119169297Y-97535612D02*
X119302630Y-97468946D01*
X119302630Y-97468946D02*
X119369297Y-97335612D01*
X119369297Y-97335612D02*
X119369297Y-97202279D01*
X119369297Y-97202279D02*
X119302630Y-97068946D01*
X119302630Y-97068946D02*
X119169297Y-97002279D01*
X119169297Y-97002279D02*
X118835964Y-97002279D01*
X118835964Y-97002279D02*
X118702630Y-96935612D01*
X118169297Y-96602279D02*
X117835963Y-97535612D01*
X117835963Y-97535612D02*
X117502630Y-96602279D01*
X116435963Y-97468946D02*
X116569296Y-97535612D01*
X116569296Y-97535612D02*
X116835963Y-97535612D01*
X116835963Y-97535612D02*
X116969296Y-97468946D01*
X116969296Y-97468946D02*
X117035963Y-97335612D01*
X117035963Y-97335612D02*
X117035963Y-96802279D01*
X117035963Y-96802279D02*
X116969296Y-96668946D01*
X116969296Y-96668946D02*
X116835963Y-96602279D01*
X116835963Y-96602279D02*
X116569296Y-96602279D01*
X116569296Y-96602279D02*
X116435963Y-96668946D01*
X116435963Y-96668946D02*
X116369296Y-96802279D01*
X116369296Y-96802279D02*
X116369296Y-96935612D01*
X116369296Y-96935612D02*
X117035963Y-97068946D01*
X114102629Y-97535612D02*
X114102629Y-96135612D01*
X114102629Y-97468946D02*
X114235963Y-97535612D01*
X114235963Y-97535612D02*
X114502629Y-97535612D01*
X114502629Y-97535612D02*
X114635963Y-97468946D01*
X114635963Y-97468946D02*
X114702629Y-97402279D01*
X114702629Y-97402279D02*
X114769296Y-97268946D01*
X114769296Y-97268946D02*
X114769296Y-96868946D01*
X114769296Y-96868946D02*
X114702629Y-96735612D01*
X114702629Y-96735612D02*
X114635963Y-96668946D01*
X114635963Y-96668946D02*
X114502629Y-96602279D01*
X114502629Y-96602279D02*
X114235963Y-96602279D01*
X114235963Y-96602279D02*
X114102629Y-96668946D01*
X113235962Y-97535612D02*
X113369296Y-97468946D01*
X113369296Y-97468946D02*
X113435962Y-97402279D01*
X113435962Y-97402279D02*
X113502629Y-97268946D01*
X113502629Y-97268946D02*
X113502629Y-96868946D01*
X113502629Y-96868946D02*
X113435962Y-96735612D01*
X113435962Y-96735612D02*
X113369296Y-96668946D01*
X113369296Y-96668946D02*
X113235962Y-96602279D01*
X113235962Y-96602279D02*
X113035962Y-96602279D01*
X113035962Y-96602279D02*
X112902629Y-96668946D01*
X112902629Y-96668946D02*
X112835962Y-96735612D01*
X112835962Y-96735612D02*
X112769296Y-96868946D01*
X112769296Y-96868946D02*
X112769296Y-97268946D01*
X112769296Y-97268946D02*
X112835962Y-97402279D01*
X112835962Y-97402279D02*
X112902629Y-97468946D01*
X112902629Y-97468946D02*
X113035962Y-97535612D01*
X113035962Y-97535612D02*
X113235962Y-97535612D01*
X111969295Y-97535612D02*
X112102629Y-97468946D01*
X112102629Y-97468946D02*
X112169295Y-97402279D01*
X112169295Y-97402279D02*
X112235962Y-97268946D01*
X112235962Y-97268946D02*
X112235962Y-96868946D01*
X112235962Y-96868946D02*
X112169295Y-96735612D01*
X112169295Y-96735612D02*
X112102629Y-96668946D01*
X112102629Y-96668946D02*
X111969295Y-96602279D01*
X111969295Y-96602279D02*
X111769295Y-96602279D01*
X111769295Y-96602279D02*
X111635962Y-96668946D01*
X111635962Y-96668946D02*
X111569295Y-96735612D01*
X111569295Y-96735612D02*
X111502629Y-96868946D01*
X111502629Y-96868946D02*
X111502629Y-97268946D01*
X111502629Y-97268946D02*
X111569295Y-97402279D01*
X111569295Y-97402279D02*
X111635962Y-97468946D01*
X111635962Y-97468946D02*
X111769295Y-97535612D01*
X111769295Y-97535612D02*
X111969295Y-97535612D01*
X110902628Y-97535612D02*
X110902628Y-96602279D01*
X110902628Y-96868946D02*
X110835962Y-96735612D01*
X110835962Y-96735612D02*
X110769295Y-96668946D01*
X110769295Y-96668946D02*
X110635962Y-96602279D01*
X110635962Y-96602279D02*
X110502628Y-96602279D01*
X108235961Y-96202279D02*
X108369294Y-96135612D01*
X108369294Y-96135612D02*
X108569294Y-96135612D01*
X108569294Y-96135612D02*
X108769294Y-96202279D01*
X108769294Y-96202279D02*
X108902628Y-96335612D01*
X108902628Y-96335612D02*
X108969294Y-96468946D01*
X108969294Y-96468946D02*
X109035961Y-96735612D01*
X109035961Y-96735612D02*
X109035961Y-96935612D01*
X109035961Y-96935612D02*
X108969294Y-97202279D01*
X108969294Y-97202279D02*
X108902628Y-97335612D01*
X108902628Y-97335612D02*
X108769294Y-97468946D01*
X108769294Y-97468946D02*
X108569294Y-97535612D01*
X108569294Y-97535612D02*
X108435961Y-97535612D01*
X108435961Y-97535612D02*
X108235961Y-97468946D01*
X108235961Y-97468946D02*
X108169294Y-97402279D01*
X108169294Y-97402279D02*
X108169294Y-96935612D01*
X108169294Y-96935612D02*
X108435961Y-96935612D01*
X107102628Y-96802279D02*
X106902628Y-96868946D01*
X106902628Y-96868946D02*
X106835961Y-96935612D01*
X106835961Y-96935612D02*
X106769294Y-97068946D01*
X106769294Y-97068946D02*
X106769294Y-97268946D01*
X106769294Y-97268946D02*
X106835961Y-97402279D01*
X106835961Y-97402279D02*
X106902628Y-97468946D01*
X106902628Y-97468946D02*
X107035961Y-97535612D01*
X107035961Y-97535612D02*
X107569294Y-97535612D01*
X107569294Y-97535612D02*
X107569294Y-96135612D01*
X107569294Y-96135612D02*
X107102628Y-96135612D01*
X107102628Y-96135612D02*
X106969294Y-96202279D01*
X106969294Y-96202279D02*
X106902628Y-96268946D01*
X106902628Y-96268946D02*
X106835961Y-96402279D01*
X106835961Y-96402279D02*
X106835961Y-96535612D01*
X106835961Y-96535612D02*
X106902628Y-96668946D01*
X106902628Y-96668946D02*
X106969294Y-96735612D01*
X106969294Y-96735612D02*
X107102628Y-96802279D01*
X107102628Y-96802279D02*
X107569294Y-96802279D01*
X106235961Y-97468946D02*
X106035961Y-97535612D01*
X106035961Y-97535612D02*
X105702628Y-97535612D01*
X105702628Y-97535612D02*
X105569294Y-97468946D01*
X105569294Y-97468946D02*
X105502628Y-97402279D01*
X105502628Y-97402279D02*
X105435961Y-97268946D01*
X105435961Y-97268946D02*
X105435961Y-97135612D01*
X105435961Y-97135612D02*
X105502628Y-97002279D01*
X105502628Y-97002279D02*
X105569294Y-96935612D01*
X105569294Y-96935612D02*
X105702628Y-96868946D01*
X105702628Y-96868946D02*
X105969294Y-96802279D01*
X105969294Y-96802279D02*
X106102628Y-96735612D01*
X106102628Y-96735612D02*
X106169294Y-96668946D01*
X106169294Y-96668946D02*
X106235961Y-96535612D01*
X106235961Y-96535612D02*
X106235961Y-96402279D01*
X106235961Y-96402279D02*
X106169294Y-96268946D01*
X106169294Y-96268946D02*
X106102628Y-96202279D01*
X106102628Y-96202279D02*
X105969294Y-96135612D01*
X105969294Y-96135612D02*
X105635961Y-96135612D01*
X105635961Y-96135612D02*
X105435961Y-96202279D01*
X103835961Y-97468946D02*
X103702628Y-97535612D01*
X103702628Y-97535612D02*
X103435961Y-97535612D01*
X103435961Y-97535612D02*
X103302628Y-97468946D01*
X103302628Y-97468946D02*
X103235961Y-97335612D01*
X103235961Y-97335612D02*
X103235961Y-97268946D01*
X103235961Y-97268946D02*
X103302628Y-97135612D01*
X103302628Y-97135612D02*
X103435961Y-97068946D01*
X103435961Y-97068946D02*
X103635961Y-97068946D01*
X103635961Y-97068946D02*
X103769294Y-97002279D01*
X103769294Y-97002279D02*
X103835961Y-96868946D01*
X103835961Y-96868946D02*
X103835961Y-96802279D01*
X103835961Y-96802279D02*
X103769294Y-96668946D01*
X103769294Y-96668946D02*
X103635961Y-96602279D01*
X103635961Y-96602279D02*
X103435961Y-96602279D01*
X103435961Y-96602279D02*
X103302628Y-96668946D01*
X102769295Y-96602279D02*
X102435961Y-97535612D01*
X102102628Y-96602279D02*
X102435961Y-97535612D01*
X102435961Y-97535612D02*
X102569295Y-97868946D01*
X102569295Y-97868946D02*
X102635961Y-97935612D01*
X102635961Y-97935612D02*
X102769295Y-98002279D01*
X101635961Y-97468946D02*
X101502628Y-97535612D01*
X101502628Y-97535612D02*
X101235961Y-97535612D01*
X101235961Y-97535612D02*
X101102628Y-97468946D01*
X101102628Y-97468946D02*
X101035961Y-97335612D01*
X101035961Y-97335612D02*
X101035961Y-97268946D01*
X101035961Y-97268946D02*
X101102628Y-97135612D01*
X101102628Y-97135612D02*
X101235961Y-97068946D01*
X101235961Y-97068946D02*
X101435961Y-97068946D01*
X101435961Y-97068946D02*
X101569294Y-97002279D01*
X101569294Y-97002279D02*
X101635961Y-96868946D01*
X101635961Y-96868946D02*
X101635961Y-96802279D01*
X101635961Y-96802279D02*
X101569294Y-96668946D01*
X101569294Y-96668946D02*
X101435961Y-96602279D01*
X101435961Y-96602279D02*
X101235961Y-96602279D01*
X101235961Y-96602279D02*
X101102628Y-96668946D01*
X100635961Y-96602279D02*
X100102628Y-96602279D01*
X100435961Y-96135612D02*
X100435961Y-97335612D01*
X100435961Y-97335612D02*
X100369295Y-97468946D01*
X100369295Y-97468946D02*
X100235961Y-97535612D01*
X100235961Y-97535612D02*
X100102628Y-97535612D01*
X99102628Y-97468946D02*
X99235961Y-97535612D01*
X99235961Y-97535612D02*
X99502628Y-97535612D01*
X99502628Y-97535612D02*
X99635961Y-97468946D01*
X99635961Y-97468946D02*
X99702628Y-97335612D01*
X99702628Y-97335612D02*
X99702628Y-96802279D01*
X99702628Y-96802279D02*
X99635961Y-96668946D01*
X99635961Y-96668946D02*
X99502628Y-96602279D01*
X99502628Y-96602279D02*
X99235961Y-96602279D01*
X99235961Y-96602279D02*
X99102628Y-96668946D01*
X99102628Y-96668946D02*
X99035961Y-96802279D01*
X99035961Y-96802279D02*
X99035961Y-96935612D01*
X99035961Y-96935612D02*
X99702628Y-97068946D01*
X97902628Y-97468946D02*
X98035961Y-97535612D01*
X98035961Y-97535612D02*
X98302628Y-97535612D01*
X98302628Y-97535612D02*
X98435961Y-97468946D01*
X98435961Y-97468946D02*
X98502628Y-97335612D01*
X98502628Y-97335612D02*
X98502628Y-96802279D01*
X98502628Y-96802279D02*
X98435961Y-96668946D01*
X98435961Y-96668946D02*
X98302628Y-96602279D01*
X98302628Y-96602279D02*
X98035961Y-96602279D01*
X98035961Y-96602279D02*
X97902628Y-96668946D01*
X97902628Y-96668946D02*
X97835961Y-96802279D01*
X97835961Y-96802279D02*
X97835961Y-96935612D01*
X97835961Y-96935612D02*
X98502628Y-97068946D01*
X97235961Y-97535612D02*
X97235961Y-96602279D01*
X97235961Y-96735612D02*
X97169295Y-96668946D01*
X97169295Y-96668946D02*
X97035961Y-96602279D01*
X97035961Y-96602279D02*
X96835961Y-96602279D01*
X96835961Y-96602279D02*
X96702628Y-96668946D01*
X96702628Y-96668946D02*
X96635961Y-96802279D01*
X96635961Y-96802279D02*
X96635961Y-97535612D01*
X96635961Y-96802279D02*
X96569295Y-96668946D01*
X96569295Y-96668946D02*
X96435961Y-96602279D01*
X96435961Y-96602279D02*
X96235961Y-96602279D01*
X96235961Y-96602279D02*
X96102628Y-96668946D01*
X96102628Y-96668946D02*
X96035961Y-96802279D01*
X96035961Y-96802279D02*
X96035961Y-97535612D01*
X123969298Y-98856201D02*
X123969298Y-100256201D01*
X123969298Y-98922868D02*
X123835965Y-98856201D01*
X123835965Y-98856201D02*
X123569298Y-98856201D01*
X123569298Y-98856201D02*
X123435965Y-98922868D01*
X123435965Y-98922868D02*
X123369298Y-98989534D01*
X123369298Y-98989534D02*
X123302632Y-99122868D01*
X123302632Y-99122868D02*
X123302632Y-99522868D01*
X123302632Y-99522868D02*
X123369298Y-99656201D01*
X123369298Y-99656201D02*
X123435965Y-99722868D01*
X123435965Y-99722868D02*
X123569298Y-99789534D01*
X123569298Y-99789534D02*
X123835965Y-99789534D01*
X123835965Y-99789534D02*
X123969298Y-99722868D01*
X122502631Y-99789534D02*
X122635965Y-99722868D01*
X122635965Y-99722868D02*
X122702631Y-99656201D01*
X122702631Y-99656201D02*
X122769298Y-99522868D01*
X122769298Y-99522868D02*
X122769298Y-99122868D01*
X122769298Y-99122868D02*
X122702631Y-98989534D01*
X122702631Y-98989534D02*
X122635965Y-98922868D01*
X122635965Y-98922868D02*
X122502631Y-98856201D01*
X122502631Y-98856201D02*
X122302631Y-98856201D01*
X122302631Y-98856201D02*
X122169298Y-98922868D01*
X122169298Y-98922868D02*
X122102631Y-98989534D01*
X122102631Y-98989534D02*
X122035965Y-99122868D01*
X122035965Y-99122868D02*
X122035965Y-99522868D01*
X122035965Y-99522868D02*
X122102631Y-99656201D01*
X122102631Y-99656201D02*
X122169298Y-99722868D01*
X122169298Y-99722868D02*
X122302631Y-99789534D01*
X122302631Y-99789534D02*
X122502631Y-99789534D01*
X121635964Y-98856201D02*
X121102631Y-98856201D01*
X121435964Y-98389534D02*
X121435964Y-99589534D01*
X121435964Y-99589534D02*
X121369298Y-99722868D01*
X121369298Y-99722868D02*
X121235964Y-99789534D01*
X121235964Y-99789534D02*
X121102631Y-99789534D01*
X120102631Y-99722868D02*
X120235964Y-99789534D01*
X120235964Y-99789534D02*
X120502631Y-99789534D01*
X120502631Y-99789534D02*
X120635964Y-99722868D01*
X120635964Y-99722868D02*
X120702631Y-99589534D01*
X120702631Y-99589534D02*
X120702631Y-99056201D01*
X120702631Y-99056201D02*
X120635964Y-98922868D01*
X120635964Y-98922868D02*
X120502631Y-98856201D01*
X120502631Y-98856201D02*
X120235964Y-98856201D01*
X120235964Y-98856201D02*
X120102631Y-98922868D01*
X120102631Y-98922868D02*
X120035964Y-99056201D01*
X120035964Y-99056201D02*
X120035964Y-99189534D01*
X120035964Y-99189534D02*
X120702631Y-99322868D01*
X119435964Y-98856201D02*
X119435964Y-99789534D01*
X119435964Y-98989534D02*
X119369298Y-98922868D01*
X119369298Y-98922868D02*
X119235964Y-98856201D01*
X119235964Y-98856201D02*
X119035964Y-98856201D01*
X119035964Y-98856201D02*
X118902631Y-98922868D01*
X118902631Y-98922868D02*
X118835964Y-99056201D01*
X118835964Y-99056201D02*
X118835964Y-99789534D01*
X118369297Y-98856201D02*
X117835964Y-98856201D01*
X118169297Y-98389534D02*
X118169297Y-99589534D01*
X118169297Y-99589534D02*
X118102631Y-99722868D01*
X118102631Y-99722868D02*
X117969297Y-99789534D01*
X117969297Y-99789534D02*
X117835964Y-99789534D01*
X117369297Y-99789534D02*
X117369297Y-98856201D01*
X117369297Y-98389534D02*
X117435964Y-98456201D01*
X117435964Y-98456201D02*
X117369297Y-98522868D01*
X117369297Y-98522868D02*
X117302631Y-98456201D01*
X117302631Y-98456201D02*
X117369297Y-98389534D01*
X117369297Y-98389534D02*
X117369297Y-98522868D01*
X116102630Y-99789534D02*
X116102630Y-99056201D01*
X116102630Y-99056201D02*
X116169297Y-98922868D01*
X116169297Y-98922868D02*
X116302630Y-98856201D01*
X116302630Y-98856201D02*
X116569297Y-98856201D01*
X116569297Y-98856201D02*
X116702630Y-98922868D01*
X116102630Y-99722868D02*
X116235964Y-99789534D01*
X116235964Y-99789534D02*
X116569297Y-99789534D01*
X116569297Y-99789534D02*
X116702630Y-99722868D01*
X116702630Y-99722868D02*
X116769297Y-99589534D01*
X116769297Y-99589534D02*
X116769297Y-99456201D01*
X116769297Y-99456201D02*
X116702630Y-99322868D01*
X116702630Y-99322868D02*
X116569297Y-99256201D01*
X116569297Y-99256201D02*
X116235964Y-99256201D01*
X116235964Y-99256201D02*
X116102630Y-99189534D01*
X114835963Y-99789534D02*
X114835963Y-99056201D01*
X114835963Y-99056201D02*
X114902630Y-98922868D01*
X114902630Y-98922868D02*
X115035963Y-98856201D01*
X115035963Y-98856201D02*
X115302630Y-98856201D01*
X115302630Y-98856201D02*
X115435963Y-98922868D01*
X114835963Y-99722868D02*
X114969297Y-99789534D01*
X114969297Y-99789534D02*
X115302630Y-99789534D01*
X115302630Y-99789534D02*
X115435963Y-99722868D01*
X115435963Y-99722868D02*
X115502630Y-99589534D01*
X115502630Y-99589534D02*
X115502630Y-99456201D01*
X115502630Y-99456201D02*
X115435963Y-99322868D01*
X115435963Y-99322868D02*
X115302630Y-99256201D01*
X115302630Y-99256201D02*
X114969297Y-99256201D01*
X114969297Y-99256201D02*
X114835963Y-99189534D01*
X113969296Y-99789534D02*
X114102630Y-99722868D01*
X114102630Y-99722868D02*
X114169296Y-99589534D01*
X114169296Y-99589534D02*
X114169296Y-98389534D01*
X112502630Y-98856201D02*
X112169296Y-99789534D01*
X112169296Y-99789534D02*
X111835963Y-98856201D01*
X111302629Y-99789534D02*
X111302629Y-98856201D01*
X111302629Y-99122868D02*
X111235963Y-98989534D01*
X111235963Y-98989534D02*
X111169296Y-98922868D01*
X111169296Y-98922868D02*
X111035963Y-98856201D01*
X111035963Y-98856201D02*
X110902629Y-98856201D01*
X110435962Y-99789534D02*
X110435962Y-98856201D01*
X110435962Y-98389534D02*
X110502629Y-98456201D01*
X110502629Y-98456201D02*
X110435962Y-98522868D01*
X110435962Y-98522868D02*
X110369296Y-98456201D01*
X110369296Y-98456201D02*
X110435962Y-98389534D01*
X110435962Y-98389534D02*
X110435962Y-98522868D01*
X109769295Y-98856201D02*
X109769295Y-100056201D01*
X109769295Y-100056201D02*
X109835962Y-100189534D01*
X109835962Y-100189534D02*
X109969295Y-100256201D01*
X109969295Y-100256201D02*
X110035962Y-100256201D01*
X109769295Y-98389534D02*
X109835962Y-98456201D01*
X109835962Y-98456201D02*
X109769295Y-98522868D01*
X109769295Y-98522868D02*
X109702629Y-98456201D01*
X109702629Y-98456201D02*
X109769295Y-98389534D01*
X109769295Y-98389534D02*
X109769295Y-98522868D01*
X109102628Y-99656201D02*
X109035962Y-99722868D01*
X109035962Y-99722868D02*
X109102628Y-99789534D01*
X109102628Y-99789534D02*
X109169295Y-99722868D01*
X109169295Y-99722868D02*
X109102628Y-99656201D01*
X109102628Y-99656201D02*
X109102628Y-99789534D01*
X109102628Y-99256201D02*
X109169295Y-98456201D01*
X109169295Y-98456201D02*
X109102628Y-98389534D01*
X109102628Y-98389534D02*
X109035962Y-98456201D01*
X109035962Y-98456201D02*
X109102628Y-99256201D01*
X109102628Y-99256201D02*
X109102628Y-98389534D01*
X123569298Y-102897378D02*
X123569298Y-103897378D01*
X123569298Y-103897378D02*
X123635965Y-104097378D01*
X123635965Y-104097378D02*
X123769298Y-104230712D01*
X123769298Y-104230712D02*
X123969298Y-104297378D01*
X123969298Y-104297378D02*
X124102632Y-104297378D01*
X122969298Y-103030712D02*
X122902631Y-102964045D01*
X122902631Y-102964045D02*
X122769298Y-102897378D01*
X122769298Y-102897378D02*
X122435965Y-102897378D01*
X122435965Y-102897378D02*
X122302631Y-102964045D01*
X122302631Y-102964045D02*
X122235965Y-103030712D01*
X122235965Y-103030712D02*
X122169298Y-103164045D01*
X122169298Y-103164045D02*
X122169298Y-103297378D01*
X122169298Y-103297378D02*
X122235965Y-103497378D01*
X122235965Y-103497378D02*
X123035965Y-104297378D01*
X123035965Y-104297378D02*
X122169298Y-104297378D01*
X120502631Y-103564045D02*
X119435965Y-103564045D01*
X119435965Y-103964045D02*
X120502631Y-103964045D01*
X117702631Y-104297378D02*
X117702631Y-102897378D01*
X117702631Y-102897378D02*
X117169298Y-102897378D01*
X117169298Y-102897378D02*
X117035965Y-102964045D01*
X117035965Y-102964045D02*
X116969298Y-103030712D01*
X116969298Y-103030712D02*
X116902631Y-103164045D01*
X116902631Y-103164045D02*
X116902631Y-103364045D01*
X116902631Y-103364045D02*
X116969298Y-103497378D01*
X116969298Y-103497378D02*
X117035965Y-103564045D01*
X117035965Y-103564045D02*
X117169298Y-103630712D01*
X117169298Y-103630712D02*
X117702631Y-103630712D01*
X116435965Y-102897378D02*
X116102631Y-104297378D01*
X116102631Y-104297378D02*
X115835965Y-103297378D01*
X115835965Y-103297378D02*
X115569298Y-104297378D01*
X115569298Y-104297378D02*
X115235965Y-102897378D01*
X114702631Y-104297378D02*
X114702631Y-102897378D01*
X114702631Y-102897378D02*
X114235965Y-103897378D01*
X114235965Y-103897378D02*
X113769298Y-102897378D01*
X113769298Y-102897378D02*
X113769298Y-104297378D01*
X112102631Y-104230712D02*
X111969298Y-104297378D01*
X111969298Y-104297378D02*
X111702631Y-104297378D01*
X111702631Y-104297378D02*
X111569298Y-104230712D01*
X111569298Y-104230712D02*
X111502631Y-104097378D01*
X111502631Y-104097378D02*
X111502631Y-104030712D01*
X111502631Y-104030712D02*
X111569298Y-103897378D01*
X111569298Y-103897378D02*
X111702631Y-103830712D01*
X111702631Y-103830712D02*
X111902631Y-103830712D01*
X111902631Y-103830712D02*
X112035964Y-103764045D01*
X112035964Y-103764045D02*
X112102631Y-103630712D01*
X112102631Y-103630712D02*
X112102631Y-103564045D01*
X112102631Y-103564045D02*
X112035964Y-103430712D01*
X112035964Y-103430712D02*
X111902631Y-103364045D01*
X111902631Y-103364045D02*
X111702631Y-103364045D01*
X111702631Y-103364045D02*
X111569298Y-103430712D01*
X111102631Y-103364045D02*
X110569298Y-103364045D01*
X110902631Y-102897378D02*
X110902631Y-104097378D01*
X110902631Y-104097378D02*
X110835965Y-104230712D01*
X110835965Y-104230712D02*
X110702631Y-104297378D01*
X110702631Y-104297378D02*
X110569298Y-104297378D01*
X109502631Y-103364045D02*
X109502631Y-104297378D01*
X110102631Y-103364045D02*
X110102631Y-104097378D01*
X110102631Y-104097378D02*
X110035965Y-104230712D01*
X110035965Y-104230712D02*
X109902631Y-104297378D01*
X109902631Y-104297378D02*
X109702631Y-104297378D01*
X109702631Y-104297378D02*
X109569298Y-104230712D01*
X109569298Y-104230712D02*
X109502631Y-104164045D01*
X108835964Y-104297378D02*
X108835964Y-103364045D01*
X108835964Y-103630712D02*
X108769298Y-103497378D01*
X108769298Y-103497378D02*
X108702631Y-103430712D01*
X108702631Y-103430712D02*
X108569298Y-103364045D01*
X108569298Y-103364045D02*
X108435964Y-103364045D01*
X107969297Y-104297378D02*
X107969297Y-103364045D01*
X107969297Y-102897378D02*
X108035964Y-102964045D01*
X108035964Y-102964045D02*
X107969297Y-103030712D01*
X107969297Y-103030712D02*
X107902631Y-102964045D01*
X107902631Y-102964045D02*
X107969297Y-102897378D01*
X107969297Y-102897378D02*
X107969297Y-103030712D01*
X107302630Y-103364045D02*
X107302630Y-104297378D01*
X107302630Y-103497378D02*
X107235964Y-103430712D01*
X107235964Y-103430712D02*
X107102630Y-103364045D01*
X107102630Y-103364045D02*
X106902630Y-103364045D01*
X106902630Y-103364045D02*
X106769297Y-103430712D01*
X106769297Y-103430712D02*
X106702630Y-103564045D01*
X106702630Y-103564045D02*
X106702630Y-104297378D01*
X105435963Y-103364045D02*
X105435963Y-104497378D01*
X105435963Y-104497378D02*
X105502630Y-104630712D01*
X105502630Y-104630712D02*
X105569297Y-104697378D01*
X105569297Y-104697378D02*
X105702630Y-104764045D01*
X105702630Y-104764045D02*
X105902630Y-104764045D01*
X105902630Y-104764045D02*
X106035963Y-104697378D01*
X105435963Y-104230712D02*
X105569297Y-104297378D01*
X105569297Y-104297378D02*
X105835963Y-104297378D01*
X105835963Y-104297378D02*
X105969297Y-104230712D01*
X105969297Y-104230712D02*
X106035963Y-104164045D01*
X106035963Y-104164045D02*
X106102630Y-104030712D01*
X106102630Y-104030712D02*
X106102630Y-103630712D01*
X106102630Y-103630712D02*
X106035963Y-103497378D01*
X106035963Y-103497378D02*
X105969297Y-103430712D01*
X105969297Y-103430712D02*
X105835963Y-103364045D01*
X105835963Y-103364045D02*
X105569297Y-103364045D01*
X105569297Y-103364045D02*
X105435963Y-103430712D01*
X104769296Y-104164045D02*
X104702630Y-104230712D01*
X104702630Y-104230712D02*
X104769296Y-104297378D01*
X104769296Y-104297378D02*
X104835963Y-104230712D01*
X104835963Y-104230712D02*
X104769296Y-104164045D01*
X104769296Y-104164045D02*
X104769296Y-104297378D01*
X123969298Y-106551300D02*
X123969298Y-105151300D01*
X123969298Y-105151300D02*
X123502632Y-106151300D01*
X123502632Y-106151300D02*
X123035965Y-105151300D01*
X123035965Y-105151300D02*
X123035965Y-106551300D01*
X122369298Y-106551300D02*
X122369298Y-105617967D01*
X122369298Y-105151300D02*
X122435965Y-105217967D01*
X122435965Y-105217967D02*
X122369298Y-105284634D01*
X122369298Y-105284634D02*
X122302632Y-105217967D01*
X122302632Y-105217967D02*
X122369298Y-105151300D01*
X122369298Y-105151300D02*
X122369298Y-105284634D01*
X121102631Y-106551300D02*
X121102631Y-105151300D01*
X121102631Y-106484634D02*
X121235965Y-106551300D01*
X121235965Y-106551300D02*
X121502631Y-106551300D01*
X121502631Y-106551300D02*
X121635965Y-106484634D01*
X121635965Y-106484634D02*
X121702631Y-106417967D01*
X121702631Y-106417967D02*
X121769298Y-106284634D01*
X121769298Y-106284634D02*
X121769298Y-105884634D01*
X121769298Y-105884634D02*
X121702631Y-105751300D01*
X121702631Y-105751300D02*
X121635965Y-105684634D01*
X121635965Y-105684634D02*
X121502631Y-105617967D01*
X121502631Y-105617967D02*
X121235965Y-105617967D01*
X121235965Y-105617967D02*
X121102631Y-105684634D01*
X119835964Y-106551300D02*
X119835964Y-105151300D01*
X119835964Y-106484634D02*
X119969298Y-106551300D01*
X119969298Y-106551300D02*
X120235964Y-106551300D01*
X120235964Y-106551300D02*
X120369298Y-106484634D01*
X120369298Y-106484634D02*
X120435964Y-106417967D01*
X120435964Y-106417967D02*
X120502631Y-106284634D01*
X120502631Y-106284634D02*
X120502631Y-105884634D01*
X120502631Y-105884634D02*
X120435964Y-105751300D01*
X120435964Y-105751300D02*
X120369298Y-105684634D01*
X120369298Y-105684634D02*
X120235964Y-105617967D01*
X120235964Y-105617967D02*
X119969298Y-105617967D01*
X119969298Y-105617967D02*
X119835964Y-105684634D01*
X118635964Y-106484634D02*
X118769297Y-106551300D01*
X118769297Y-106551300D02*
X119035964Y-106551300D01*
X119035964Y-106551300D02*
X119169297Y-106484634D01*
X119169297Y-106484634D02*
X119235964Y-106351300D01*
X119235964Y-106351300D02*
X119235964Y-105817967D01*
X119235964Y-105817967D02*
X119169297Y-105684634D01*
X119169297Y-105684634D02*
X119035964Y-105617967D01*
X119035964Y-105617967D02*
X118769297Y-105617967D01*
X118769297Y-105617967D02*
X118635964Y-105684634D01*
X118635964Y-105684634D02*
X118569297Y-105817967D01*
X118569297Y-105817967D02*
X118569297Y-105951300D01*
X118569297Y-105951300D02*
X119235964Y-106084634D01*
X117969297Y-105617967D02*
X117969297Y-106551300D01*
X117969297Y-105751300D02*
X117902631Y-105684634D01*
X117902631Y-105684634D02*
X117769297Y-105617967D01*
X117769297Y-105617967D02*
X117569297Y-105617967D01*
X117569297Y-105617967D02*
X117435964Y-105684634D01*
X117435964Y-105684634D02*
X117369297Y-105817967D01*
X117369297Y-105817967D02*
X117369297Y-106551300D01*
X115035963Y-106484634D02*
X115169297Y-106551300D01*
X115169297Y-106551300D02*
X115435963Y-106551300D01*
X115435963Y-106551300D02*
X115569297Y-106484634D01*
X115569297Y-106484634D02*
X115635963Y-106417967D01*
X115635963Y-106417967D02*
X115702630Y-106284634D01*
X115702630Y-106284634D02*
X115702630Y-105884634D01*
X115702630Y-105884634D02*
X115635963Y-105751300D01*
X115635963Y-105751300D02*
X115569297Y-105684634D01*
X115569297Y-105684634D02*
X115435963Y-105617967D01*
X115435963Y-105617967D02*
X115169297Y-105617967D01*
X115169297Y-105617967D02*
X115035963Y-105684634D01*
X114235963Y-106551300D02*
X114369297Y-106484634D01*
X114369297Y-106484634D02*
X114435963Y-106417967D01*
X114435963Y-106417967D02*
X114502630Y-106284634D01*
X114502630Y-106284634D02*
X114502630Y-105884634D01*
X114502630Y-105884634D02*
X114435963Y-105751300D01*
X114435963Y-105751300D02*
X114369297Y-105684634D01*
X114369297Y-105684634D02*
X114235963Y-105617967D01*
X114235963Y-105617967D02*
X114035963Y-105617967D01*
X114035963Y-105617967D02*
X113902630Y-105684634D01*
X113902630Y-105684634D02*
X113835963Y-105751300D01*
X113835963Y-105751300D02*
X113769297Y-105884634D01*
X113769297Y-105884634D02*
X113769297Y-106284634D01*
X113769297Y-106284634D02*
X113835963Y-106417967D01*
X113835963Y-106417967D02*
X113902630Y-106484634D01*
X113902630Y-106484634D02*
X114035963Y-106551300D01*
X114035963Y-106551300D02*
X114235963Y-106551300D01*
X113169296Y-105617967D02*
X113169296Y-106551300D01*
X113169296Y-105751300D02*
X113102630Y-105684634D01*
X113102630Y-105684634D02*
X112969296Y-105617967D01*
X112969296Y-105617967D02*
X112769296Y-105617967D01*
X112769296Y-105617967D02*
X112635963Y-105684634D01*
X112635963Y-105684634D02*
X112569296Y-105817967D01*
X112569296Y-105817967D02*
X112569296Y-106551300D01*
X112102629Y-105617967D02*
X111569296Y-105617967D01*
X111902629Y-105151300D02*
X111902629Y-106351300D01*
X111902629Y-106351300D02*
X111835963Y-106484634D01*
X111835963Y-106484634D02*
X111702629Y-106551300D01*
X111702629Y-106551300D02*
X111569296Y-106551300D01*
X110502629Y-106551300D02*
X110502629Y-105817967D01*
X110502629Y-105817967D02*
X110569296Y-105684634D01*
X110569296Y-105684634D02*
X110702629Y-105617967D01*
X110702629Y-105617967D02*
X110969296Y-105617967D01*
X110969296Y-105617967D02*
X111102629Y-105684634D01*
X110502629Y-106484634D02*
X110635963Y-106551300D01*
X110635963Y-106551300D02*
X110969296Y-106551300D01*
X110969296Y-106551300D02*
X111102629Y-106484634D01*
X111102629Y-106484634D02*
X111169296Y-106351300D01*
X111169296Y-106351300D02*
X111169296Y-106217967D01*
X111169296Y-106217967D02*
X111102629Y-106084634D01*
X111102629Y-106084634D02*
X110969296Y-106017967D01*
X110969296Y-106017967D02*
X110635963Y-106017967D01*
X110635963Y-106017967D02*
X110502629Y-105951300D01*
X109235962Y-106484634D02*
X109369296Y-106551300D01*
X109369296Y-106551300D02*
X109635962Y-106551300D01*
X109635962Y-106551300D02*
X109769296Y-106484634D01*
X109769296Y-106484634D02*
X109835962Y-106417967D01*
X109835962Y-106417967D02*
X109902629Y-106284634D01*
X109902629Y-106284634D02*
X109902629Y-105884634D01*
X109902629Y-105884634D02*
X109835962Y-105751300D01*
X109835962Y-105751300D02*
X109769296Y-105684634D01*
X109769296Y-105684634D02*
X109635962Y-105617967D01*
X109635962Y-105617967D02*
X109369296Y-105617967D01*
X109369296Y-105617967D02*
X109235962Y-105684634D01*
X108835962Y-105617967D02*
X108302629Y-105617967D01*
X108635962Y-105151300D02*
X108635962Y-106351300D01*
X108635962Y-106351300D02*
X108569296Y-106484634D01*
X108569296Y-106484634D02*
X108435962Y-106551300D01*
X108435962Y-106551300D02*
X108302629Y-106551300D01*
X106769295Y-106551300D02*
X106769295Y-105617967D01*
X106769295Y-105151300D02*
X106835962Y-105217967D01*
X106835962Y-105217967D02*
X106769295Y-105284634D01*
X106769295Y-105284634D02*
X106702629Y-105217967D01*
X106702629Y-105217967D02*
X106769295Y-105151300D01*
X106769295Y-105151300D02*
X106769295Y-105284634D01*
X106169295Y-106484634D02*
X106035962Y-106551300D01*
X106035962Y-106551300D02*
X105769295Y-106551300D01*
X105769295Y-106551300D02*
X105635962Y-106484634D01*
X105635962Y-106484634D02*
X105569295Y-106351300D01*
X105569295Y-106351300D02*
X105569295Y-106284634D01*
X105569295Y-106284634D02*
X105635962Y-106151300D01*
X105635962Y-106151300D02*
X105769295Y-106084634D01*
X105769295Y-106084634D02*
X105969295Y-106084634D01*
X105969295Y-106084634D02*
X106102628Y-106017967D01*
X106102628Y-106017967D02*
X106169295Y-105884634D01*
X106169295Y-105884634D02*
X106169295Y-105817967D01*
X106169295Y-105817967D02*
X106102628Y-105684634D01*
X106102628Y-105684634D02*
X105969295Y-105617967D01*
X105969295Y-105617967D02*
X105769295Y-105617967D01*
X105769295Y-105617967D02*
X105635962Y-105684634D01*
X103169295Y-105217967D02*
X103302628Y-105151300D01*
X103302628Y-105151300D02*
X103502628Y-105151300D01*
X103502628Y-105151300D02*
X103702628Y-105217967D01*
X103702628Y-105217967D02*
X103835962Y-105351300D01*
X103835962Y-105351300D02*
X103902628Y-105484634D01*
X103902628Y-105484634D02*
X103969295Y-105751300D01*
X103969295Y-105751300D02*
X103969295Y-105951300D01*
X103969295Y-105951300D02*
X103902628Y-106217967D01*
X103902628Y-106217967D02*
X103835962Y-106351300D01*
X103835962Y-106351300D02*
X103702628Y-106484634D01*
X103702628Y-106484634D02*
X103502628Y-106551300D01*
X103502628Y-106551300D02*
X103369295Y-106551300D01*
X103369295Y-106551300D02*
X103169295Y-106484634D01*
X103169295Y-106484634D02*
X103102628Y-106417967D01*
X103102628Y-106417967D02*
X103102628Y-105951300D01*
X103102628Y-105951300D02*
X103369295Y-105951300D01*
X102502628Y-106551300D02*
X102502628Y-105151300D01*
X102502628Y-105151300D02*
X101702628Y-106551300D01*
X101702628Y-106551300D02*
X101702628Y-105151300D01*
X101035961Y-106551300D02*
X101035961Y-105151300D01*
X101035961Y-105151300D02*
X100702628Y-105151300D01*
X100702628Y-105151300D02*
X100502628Y-105217967D01*
X100502628Y-105217967D02*
X100369295Y-105351300D01*
X100369295Y-105351300D02*
X100302628Y-105484634D01*
X100302628Y-105484634D02*
X100235961Y-105751300D01*
X100235961Y-105751300D02*
X100235961Y-105951300D01*
X100235961Y-105951300D02*
X100302628Y-106217967D01*
X100302628Y-106217967D02*
X100369295Y-106351300D01*
X100369295Y-106351300D02*
X100502628Y-106484634D01*
X100502628Y-106484634D02*
X100702628Y-106551300D01*
X100702628Y-106551300D02*
X101035961Y-106551300D01*
X123169298Y-108805222D02*
X123635965Y-108138556D01*
X123969298Y-108805222D02*
X123969298Y-107405222D01*
X123969298Y-107405222D02*
X123435965Y-107405222D01*
X123435965Y-107405222D02*
X123302632Y-107471889D01*
X123302632Y-107471889D02*
X123235965Y-107538556D01*
X123235965Y-107538556D02*
X123169298Y-107671889D01*
X123169298Y-107671889D02*
X123169298Y-107871889D01*
X123169298Y-107871889D02*
X123235965Y-108005222D01*
X123235965Y-108005222D02*
X123302632Y-108071889D01*
X123302632Y-108071889D02*
X123435965Y-108138556D01*
X123435965Y-108138556D02*
X123969298Y-108138556D01*
X122035965Y-108738556D02*
X122169298Y-108805222D01*
X122169298Y-108805222D02*
X122435965Y-108805222D01*
X122435965Y-108805222D02*
X122569298Y-108738556D01*
X122569298Y-108738556D02*
X122635965Y-108605222D01*
X122635965Y-108605222D02*
X122635965Y-108071889D01*
X122635965Y-108071889D02*
X122569298Y-107938556D01*
X122569298Y-107938556D02*
X122435965Y-107871889D01*
X122435965Y-107871889D02*
X122169298Y-107871889D01*
X122169298Y-107871889D02*
X122035965Y-107938556D01*
X122035965Y-107938556D02*
X121969298Y-108071889D01*
X121969298Y-108071889D02*
X121969298Y-108205222D01*
X121969298Y-108205222D02*
X122635965Y-108338556D01*
X120769298Y-108738556D02*
X120902632Y-108805222D01*
X120902632Y-108805222D02*
X121169298Y-108805222D01*
X121169298Y-108805222D02*
X121302632Y-108738556D01*
X121302632Y-108738556D02*
X121369298Y-108671889D01*
X121369298Y-108671889D02*
X121435965Y-108538556D01*
X121435965Y-108538556D02*
X121435965Y-108138556D01*
X121435965Y-108138556D02*
X121369298Y-108005222D01*
X121369298Y-108005222D02*
X121302632Y-107938556D01*
X121302632Y-107938556D02*
X121169298Y-107871889D01*
X121169298Y-107871889D02*
X120902632Y-107871889D01*
X120902632Y-107871889D02*
X120769298Y-107938556D01*
X120169298Y-108805222D02*
X120169298Y-107405222D01*
X119569298Y-108805222D02*
X119569298Y-108071889D01*
X119569298Y-108071889D02*
X119635965Y-107938556D01*
X119635965Y-107938556D02*
X119769298Y-107871889D01*
X119769298Y-107871889D02*
X119969298Y-107871889D01*
X119969298Y-107871889D02*
X120102632Y-107938556D01*
X120102632Y-107938556D02*
X120169298Y-108005222D01*
X119102631Y-107871889D02*
X118569298Y-107871889D01*
X118902631Y-107405222D02*
X118902631Y-108605222D01*
X118902631Y-108605222D02*
X118835965Y-108738556D01*
X118835965Y-108738556D02*
X118702631Y-108805222D01*
X118702631Y-108805222D02*
X118569298Y-108805222D01*
X117569298Y-108738556D02*
X117702631Y-108805222D01*
X117702631Y-108805222D02*
X117969298Y-108805222D01*
X117969298Y-108805222D02*
X118102631Y-108738556D01*
X118102631Y-108738556D02*
X118169298Y-108605222D01*
X118169298Y-108605222D02*
X118169298Y-108071889D01*
X118169298Y-108071889D02*
X118102631Y-107938556D01*
X118102631Y-107938556D02*
X117969298Y-107871889D01*
X117969298Y-107871889D02*
X117702631Y-107871889D01*
X117702631Y-107871889D02*
X117569298Y-107938556D01*
X117569298Y-107938556D02*
X117502631Y-108071889D01*
X117502631Y-108071889D02*
X117502631Y-108205222D01*
X117502631Y-108205222D02*
X118169298Y-108338556D01*
X116902631Y-108805222D02*
X116902631Y-107871889D01*
X116902631Y-108138556D02*
X116835965Y-108005222D01*
X116835965Y-108005222D02*
X116769298Y-107938556D01*
X116769298Y-107938556D02*
X116635965Y-107871889D01*
X116635965Y-107871889D02*
X116502631Y-107871889D01*
X114369297Y-108738556D02*
X114502631Y-108805222D01*
X114502631Y-108805222D02*
X114769297Y-108805222D01*
X114769297Y-108805222D02*
X114902631Y-108738556D01*
X114902631Y-108738556D02*
X114969297Y-108671889D01*
X114969297Y-108671889D02*
X115035964Y-108538556D01*
X115035964Y-108538556D02*
X115035964Y-108138556D01*
X115035964Y-108138556D02*
X114969297Y-108005222D01*
X114969297Y-108005222D02*
X114902631Y-107938556D01*
X114902631Y-107938556D02*
X114769297Y-107871889D01*
X114769297Y-107871889D02*
X114502631Y-107871889D01*
X114502631Y-107871889D02*
X114369297Y-107938556D01*
X113569297Y-108805222D02*
X113702631Y-108738556D01*
X113702631Y-108738556D02*
X113769297Y-108671889D01*
X113769297Y-108671889D02*
X113835964Y-108538556D01*
X113835964Y-108538556D02*
X113835964Y-108138556D01*
X113835964Y-108138556D02*
X113769297Y-108005222D01*
X113769297Y-108005222D02*
X113702631Y-107938556D01*
X113702631Y-107938556D02*
X113569297Y-107871889D01*
X113569297Y-107871889D02*
X113369297Y-107871889D01*
X113369297Y-107871889D02*
X113235964Y-107938556D01*
X113235964Y-107938556D02*
X113169297Y-108005222D01*
X113169297Y-108005222D02*
X113102631Y-108138556D01*
X113102631Y-108138556D02*
X113102631Y-108538556D01*
X113102631Y-108538556D02*
X113169297Y-108671889D01*
X113169297Y-108671889D02*
X113235964Y-108738556D01*
X113235964Y-108738556D02*
X113369297Y-108805222D01*
X113369297Y-108805222D02*
X113569297Y-108805222D01*
X112502630Y-107871889D02*
X112502630Y-108805222D01*
X112502630Y-108005222D02*
X112435964Y-107938556D01*
X112435964Y-107938556D02*
X112302630Y-107871889D01*
X112302630Y-107871889D02*
X112102630Y-107871889D01*
X112102630Y-107871889D02*
X111969297Y-107938556D01*
X111969297Y-107938556D02*
X111902630Y-108071889D01*
X111902630Y-108071889D02*
X111902630Y-108805222D01*
X111435963Y-107871889D02*
X110902630Y-107871889D01*
X111235963Y-107405222D02*
X111235963Y-108605222D01*
X111235963Y-108605222D02*
X111169297Y-108738556D01*
X111169297Y-108738556D02*
X111035963Y-108805222D01*
X111035963Y-108805222D02*
X110902630Y-108805222D01*
X109835963Y-108805222D02*
X109835963Y-108071889D01*
X109835963Y-108071889D02*
X109902630Y-107938556D01*
X109902630Y-107938556D02*
X110035963Y-107871889D01*
X110035963Y-107871889D02*
X110302630Y-107871889D01*
X110302630Y-107871889D02*
X110435963Y-107938556D01*
X109835963Y-108738556D02*
X109969297Y-108805222D01*
X109969297Y-108805222D02*
X110302630Y-108805222D01*
X110302630Y-108805222D02*
X110435963Y-108738556D01*
X110435963Y-108738556D02*
X110502630Y-108605222D01*
X110502630Y-108605222D02*
X110502630Y-108471889D01*
X110502630Y-108471889D02*
X110435963Y-108338556D01*
X110435963Y-108338556D02*
X110302630Y-108271889D01*
X110302630Y-108271889D02*
X109969297Y-108271889D01*
X109969297Y-108271889D02*
X109835963Y-108205222D01*
X108569296Y-108738556D02*
X108702630Y-108805222D01*
X108702630Y-108805222D02*
X108969296Y-108805222D01*
X108969296Y-108805222D02*
X109102630Y-108738556D01*
X109102630Y-108738556D02*
X109169296Y-108671889D01*
X109169296Y-108671889D02*
X109235963Y-108538556D01*
X109235963Y-108538556D02*
X109235963Y-108138556D01*
X109235963Y-108138556D02*
X109169296Y-108005222D01*
X109169296Y-108005222D02*
X109102630Y-107938556D01*
X109102630Y-107938556D02*
X108969296Y-107871889D01*
X108969296Y-107871889D02*
X108702630Y-107871889D01*
X108702630Y-107871889D02*
X108569296Y-107938556D01*
X108169296Y-107871889D02*
X107635963Y-107871889D01*
X107969296Y-107405222D02*
X107969296Y-108605222D01*
X107969296Y-108605222D02*
X107902630Y-108738556D01*
X107902630Y-108738556D02*
X107769296Y-108805222D01*
X107769296Y-108805222D02*
X107635963Y-108805222D01*
X106102629Y-108805222D02*
X106102629Y-107871889D01*
X106102629Y-107405222D02*
X106169296Y-107471889D01*
X106169296Y-107471889D02*
X106102629Y-107538556D01*
X106102629Y-107538556D02*
X106035963Y-107471889D01*
X106035963Y-107471889D02*
X106102629Y-107405222D01*
X106102629Y-107405222D02*
X106102629Y-107538556D01*
X105502629Y-108738556D02*
X105369296Y-108805222D01*
X105369296Y-108805222D02*
X105102629Y-108805222D01*
X105102629Y-108805222D02*
X104969296Y-108738556D01*
X104969296Y-108738556D02*
X104902629Y-108605222D01*
X104902629Y-108605222D02*
X104902629Y-108538556D01*
X104902629Y-108538556D02*
X104969296Y-108405222D01*
X104969296Y-108405222D02*
X105102629Y-108338556D01*
X105102629Y-108338556D02*
X105302629Y-108338556D01*
X105302629Y-108338556D02*
X105435962Y-108271889D01*
X105435962Y-108271889D02*
X105502629Y-108138556D01*
X105502629Y-108138556D02*
X105502629Y-108071889D01*
X105502629Y-108071889D02*
X105435962Y-107938556D01*
X105435962Y-107938556D02*
X105302629Y-107871889D01*
X105302629Y-107871889D02*
X105102629Y-107871889D01*
X105102629Y-107871889D02*
X104969296Y-107938556D01*
X103235962Y-108805222D02*
X103235962Y-107405222D01*
X103235962Y-107405222D02*
X102702629Y-107405222D01*
X102702629Y-107405222D02*
X102569296Y-107471889D01*
X102569296Y-107471889D02*
X102502629Y-107538556D01*
X102502629Y-107538556D02*
X102435962Y-107671889D01*
X102435962Y-107671889D02*
X102435962Y-107871889D01*
X102435962Y-107871889D02*
X102502629Y-108005222D01*
X102502629Y-108005222D02*
X102569296Y-108071889D01*
X102569296Y-108071889D02*
X102702629Y-108138556D01*
X102702629Y-108138556D02*
X103235962Y-108138556D01*
X101969296Y-107405222D02*
X101635962Y-108805222D01*
X101635962Y-108805222D02*
X101369296Y-107805222D01*
X101369296Y-107805222D02*
X101102629Y-108805222D01*
X101102629Y-108805222D02*
X100769296Y-107405222D01*
X100235962Y-108805222D02*
X100235962Y-107405222D01*
X100235962Y-107405222D02*
X99769296Y-108405222D01*
X99769296Y-108405222D02*
X99302629Y-107405222D01*
X99302629Y-107405222D02*
X99302629Y-108805222D01*
X123302632Y-111059144D02*
X123969298Y-111059144D01*
X123969298Y-111059144D02*
X123969298Y-109659144D01*
X122835965Y-111059144D02*
X122835965Y-110125811D01*
X122835965Y-109659144D02*
X122902632Y-109725811D01*
X122902632Y-109725811D02*
X122835965Y-109792478D01*
X122835965Y-109792478D02*
X122769299Y-109725811D01*
X122769299Y-109725811D02*
X122835965Y-109659144D01*
X122835965Y-109659144D02*
X122835965Y-109792478D01*
X122169298Y-110125811D02*
X122169298Y-111059144D01*
X122169298Y-110259144D02*
X122102632Y-110192478D01*
X122102632Y-110192478D02*
X121969298Y-110125811D01*
X121969298Y-110125811D02*
X121769298Y-110125811D01*
X121769298Y-110125811D02*
X121635965Y-110192478D01*
X121635965Y-110192478D02*
X121569298Y-110325811D01*
X121569298Y-110325811D02*
X121569298Y-111059144D01*
X120902631Y-111059144D02*
X120902631Y-109659144D01*
X120769298Y-110525811D02*
X120369298Y-111059144D01*
X120369298Y-110125811D02*
X120902631Y-110659144D01*
X119235965Y-110992478D02*
X119369298Y-111059144D01*
X119369298Y-111059144D02*
X119635965Y-111059144D01*
X119635965Y-111059144D02*
X119769298Y-110992478D01*
X119769298Y-110992478D02*
X119835965Y-110859144D01*
X119835965Y-110859144D02*
X119835965Y-110325811D01*
X119835965Y-110325811D02*
X119769298Y-110192478D01*
X119769298Y-110192478D02*
X119635965Y-110125811D01*
X119635965Y-110125811D02*
X119369298Y-110125811D01*
X119369298Y-110125811D02*
X119235965Y-110192478D01*
X119235965Y-110192478D02*
X119169298Y-110325811D01*
X119169298Y-110325811D02*
X119169298Y-110459144D01*
X119169298Y-110459144D02*
X119835965Y-110592478D01*
X118569298Y-111059144D02*
X118569298Y-110125811D01*
X118569298Y-110392478D02*
X118502632Y-110259144D01*
X118502632Y-110259144D02*
X118435965Y-110192478D01*
X118435965Y-110192478D02*
X118302632Y-110125811D01*
X118302632Y-110125811D02*
X118169298Y-110125811D01*
X116035964Y-110992478D02*
X116169298Y-111059144D01*
X116169298Y-111059144D02*
X116435964Y-111059144D01*
X116435964Y-111059144D02*
X116569298Y-110992478D01*
X116569298Y-110992478D02*
X116635964Y-110925811D01*
X116635964Y-110925811D02*
X116702631Y-110792478D01*
X116702631Y-110792478D02*
X116702631Y-110392478D01*
X116702631Y-110392478D02*
X116635964Y-110259144D01*
X116635964Y-110259144D02*
X116569298Y-110192478D01*
X116569298Y-110192478D02*
X116435964Y-110125811D01*
X116435964Y-110125811D02*
X116169298Y-110125811D01*
X116169298Y-110125811D02*
X116035964Y-110192478D01*
X115235964Y-111059144D02*
X115369298Y-110992478D01*
X115369298Y-110992478D02*
X115435964Y-110925811D01*
X115435964Y-110925811D02*
X115502631Y-110792478D01*
X115502631Y-110792478D02*
X115502631Y-110392478D01*
X115502631Y-110392478D02*
X115435964Y-110259144D01*
X115435964Y-110259144D02*
X115369298Y-110192478D01*
X115369298Y-110192478D02*
X115235964Y-110125811D01*
X115235964Y-110125811D02*
X115035964Y-110125811D01*
X115035964Y-110125811D02*
X114902631Y-110192478D01*
X114902631Y-110192478D02*
X114835964Y-110259144D01*
X114835964Y-110259144D02*
X114769298Y-110392478D01*
X114769298Y-110392478D02*
X114769298Y-110792478D01*
X114769298Y-110792478D02*
X114835964Y-110925811D01*
X114835964Y-110925811D02*
X114902631Y-110992478D01*
X114902631Y-110992478D02*
X115035964Y-111059144D01*
X115035964Y-111059144D02*
X115235964Y-111059144D01*
X114169297Y-110125811D02*
X114169297Y-111059144D01*
X114169297Y-110259144D02*
X114102631Y-110192478D01*
X114102631Y-110192478D02*
X113969297Y-110125811D01*
X113969297Y-110125811D02*
X113769297Y-110125811D01*
X113769297Y-110125811D02*
X113635964Y-110192478D01*
X113635964Y-110192478D02*
X113569297Y-110325811D01*
X113569297Y-110325811D02*
X113569297Y-111059144D01*
X113102630Y-110125811D02*
X112569297Y-110125811D01*
X112902630Y-109659144D02*
X112902630Y-110859144D01*
X112902630Y-110859144D02*
X112835964Y-110992478D01*
X112835964Y-110992478D02*
X112702630Y-111059144D01*
X112702630Y-111059144D02*
X112569297Y-111059144D01*
X111502630Y-111059144D02*
X111502630Y-110325811D01*
X111502630Y-110325811D02*
X111569297Y-110192478D01*
X111569297Y-110192478D02*
X111702630Y-110125811D01*
X111702630Y-110125811D02*
X111969297Y-110125811D01*
X111969297Y-110125811D02*
X112102630Y-110192478D01*
X111502630Y-110992478D02*
X111635964Y-111059144D01*
X111635964Y-111059144D02*
X111969297Y-111059144D01*
X111969297Y-111059144D02*
X112102630Y-110992478D01*
X112102630Y-110992478D02*
X112169297Y-110859144D01*
X112169297Y-110859144D02*
X112169297Y-110725811D01*
X112169297Y-110725811D02*
X112102630Y-110592478D01*
X112102630Y-110592478D02*
X111969297Y-110525811D01*
X111969297Y-110525811D02*
X111635964Y-110525811D01*
X111635964Y-110525811D02*
X111502630Y-110459144D01*
X110235963Y-110992478D02*
X110369297Y-111059144D01*
X110369297Y-111059144D02*
X110635963Y-111059144D01*
X110635963Y-111059144D02*
X110769297Y-110992478D01*
X110769297Y-110992478D02*
X110835963Y-110925811D01*
X110835963Y-110925811D02*
X110902630Y-110792478D01*
X110902630Y-110792478D02*
X110902630Y-110392478D01*
X110902630Y-110392478D02*
X110835963Y-110259144D01*
X110835963Y-110259144D02*
X110769297Y-110192478D01*
X110769297Y-110192478D02*
X110635963Y-110125811D01*
X110635963Y-110125811D02*
X110369297Y-110125811D01*
X110369297Y-110125811D02*
X110235963Y-110192478D01*
X109835963Y-110125811D02*
X109302630Y-110125811D01*
X109635963Y-109659144D02*
X109635963Y-110859144D01*
X109635963Y-110859144D02*
X109569297Y-110992478D01*
X109569297Y-110992478D02*
X109435963Y-111059144D01*
X109435963Y-111059144D02*
X109302630Y-111059144D01*
X108769297Y-110992478D02*
X108769297Y-111059144D01*
X108769297Y-111059144D02*
X108835963Y-111192478D01*
X108835963Y-111192478D02*
X108902630Y-111259144D01*
X106902629Y-111059144D02*
X107035963Y-110992478D01*
X107035963Y-110992478D02*
X107102629Y-110925811D01*
X107102629Y-110925811D02*
X107169296Y-110792478D01*
X107169296Y-110792478D02*
X107169296Y-110392478D01*
X107169296Y-110392478D02*
X107102629Y-110259144D01*
X107102629Y-110259144D02*
X107035963Y-110192478D01*
X107035963Y-110192478D02*
X106902629Y-110125811D01*
X106902629Y-110125811D02*
X106702629Y-110125811D01*
X106702629Y-110125811D02*
X106569296Y-110192478D01*
X106569296Y-110192478D02*
X106502629Y-110259144D01*
X106502629Y-110259144D02*
X106435963Y-110392478D01*
X106435963Y-110392478D02*
X106435963Y-110792478D01*
X106435963Y-110792478D02*
X106502629Y-110925811D01*
X106502629Y-110925811D02*
X106569296Y-110992478D01*
X106569296Y-110992478D02*
X106702629Y-111059144D01*
X106702629Y-111059144D02*
X106902629Y-111059144D01*
X105835962Y-110125811D02*
X105835962Y-111059144D01*
X105835962Y-110259144D02*
X105769296Y-110192478D01*
X105769296Y-110192478D02*
X105635962Y-110125811D01*
X105635962Y-110125811D02*
X105435962Y-110125811D01*
X105435962Y-110125811D02*
X105302629Y-110192478D01*
X105302629Y-110192478D02*
X105235962Y-110325811D01*
X105235962Y-110325811D02*
X105235962Y-111059144D01*
X103969295Y-110125811D02*
X103969295Y-111259144D01*
X103969295Y-111259144D02*
X104035962Y-111392478D01*
X104035962Y-111392478D02*
X104102629Y-111459144D01*
X104102629Y-111459144D02*
X104235962Y-111525811D01*
X104235962Y-111525811D02*
X104435962Y-111525811D01*
X104435962Y-111525811D02*
X104569295Y-111459144D01*
X103969295Y-110992478D02*
X104102629Y-111059144D01*
X104102629Y-111059144D02*
X104369295Y-111059144D01*
X104369295Y-111059144D02*
X104502629Y-110992478D01*
X104502629Y-110992478D02*
X104569295Y-110925811D01*
X104569295Y-110925811D02*
X104635962Y-110792478D01*
X104635962Y-110792478D02*
X104635962Y-110392478D01*
X104635962Y-110392478D02*
X104569295Y-110259144D01*
X104569295Y-110259144D02*
X104502629Y-110192478D01*
X104502629Y-110192478D02*
X104369295Y-110125811D01*
X104369295Y-110125811D02*
X104102629Y-110125811D01*
X104102629Y-110125811D02*
X103969295Y-110192478D01*
X102769295Y-110992478D02*
X102902628Y-111059144D01*
X102902628Y-111059144D02*
X103169295Y-111059144D01*
X103169295Y-111059144D02*
X103302628Y-110992478D01*
X103302628Y-110992478D02*
X103369295Y-110859144D01*
X103369295Y-110859144D02*
X103369295Y-110325811D01*
X103369295Y-110325811D02*
X103302628Y-110192478D01*
X103302628Y-110192478D02*
X103169295Y-110125811D01*
X103169295Y-110125811D02*
X102902628Y-110125811D01*
X102902628Y-110125811D02*
X102769295Y-110192478D01*
X102769295Y-110192478D02*
X102702628Y-110325811D01*
X102702628Y-110325811D02*
X102702628Y-110459144D01*
X102702628Y-110459144D02*
X103369295Y-110592478D01*
X102102628Y-111059144D02*
X102102628Y-109659144D01*
X102102628Y-110192478D02*
X101969295Y-110125811D01*
X101969295Y-110125811D02*
X101702628Y-110125811D01*
X101702628Y-110125811D02*
X101569295Y-110192478D01*
X101569295Y-110192478D02*
X101502628Y-110259144D01*
X101502628Y-110259144D02*
X101435962Y-110392478D01*
X101435962Y-110392478D02*
X101435962Y-110792478D01*
X101435962Y-110792478D02*
X101502628Y-110925811D01*
X101502628Y-110925811D02*
X101569295Y-110992478D01*
X101569295Y-110992478D02*
X101702628Y-111059144D01*
X101702628Y-111059144D02*
X101969295Y-111059144D01*
X101969295Y-111059144D02*
X102102628Y-110992478D01*
X100835961Y-111059144D02*
X100835961Y-110125811D01*
X100835961Y-110392478D02*
X100769295Y-110259144D01*
X100769295Y-110259144D02*
X100702628Y-110192478D01*
X100702628Y-110192478D02*
X100569295Y-110125811D01*
X100569295Y-110125811D02*
X100435961Y-110125811D01*
X99369294Y-110125811D02*
X99369294Y-111059144D01*
X99969294Y-110125811D02*
X99969294Y-110859144D01*
X99969294Y-110859144D02*
X99902628Y-110992478D01*
X99902628Y-110992478D02*
X99769294Y-111059144D01*
X99769294Y-111059144D02*
X99569294Y-111059144D01*
X99569294Y-111059144D02*
X99435961Y-110992478D01*
X99435961Y-110992478D02*
X99369294Y-110925811D01*
X98702627Y-111059144D02*
X98702627Y-110125811D01*
X98702627Y-109659144D02*
X98769294Y-109725811D01*
X98769294Y-109725811D02*
X98702627Y-109792478D01*
X98702627Y-109792478D02*
X98635961Y-109725811D01*
X98635961Y-109725811D02*
X98702627Y-109659144D01*
X98702627Y-109659144D02*
X98702627Y-109792478D01*
X98035960Y-111059144D02*
X98035960Y-109659144D01*
X97902627Y-110525811D02*
X97502627Y-111059144D01*
X97502627Y-110125811D02*
X98035960Y-110659144D01*
X97102627Y-110125811D02*
X96569294Y-110125811D01*
X96902627Y-109659144D02*
X96902627Y-110859144D01*
X96902627Y-110859144D02*
X96835961Y-110992478D01*
X96835961Y-110992478D02*
X96702627Y-111059144D01*
X96702627Y-111059144D02*
X96569294Y-111059144D01*
X96035961Y-110992478D02*
X96035961Y-111059144D01*
X96035961Y-111059144D02*
X96102627Y-111192478D01*
X96102627Y-111192478D02*
X96169294Y-111259144D01*
X124169298Y-112379733D02*
X123635965Y-112379733D01*
X123969298Y-111913066D02*
X123969298Y-113113066D01*
X123969298Y-113113066D02*
X123902632Y-113246400D01*
X123902632Y-113246400D02*
X123769298Y-113313066D01*
X123769298Y-113313066D02*
X123635965Y-113313066D01*
X123169298Y-113179733D02*
X123102632Y-113246400D01*
X123102632Y-113246400D02*
X123169298Y-113313066D01*
X123169298Y-113313066D02*
X123235965Y-113246400D01*
X123235965Y-113246400D02*
X123169298Y-113179733D01*
X123169298Y-113179733D02*
X123169298Y-113313066D01*
X122502631Y-113313066D02*
X122502631Y-111913066D01*
X122502631Y-112446400D02*
X122369298Y-112379733D01*
X122369298Y-112379733D02*
X122102631Y-112379733D01*
X122102631Y-112379733D02*
X121969298Y-112446400D01*
X121969298Y-112446400D02*
X121902631Y-112513066D01*
X121902631Y-112513066D02*
X121835965Y-112646400D01*
X121835965Y-112646400D02*
X121835965Y-113046400D01*
X121835965Y-113046400D02*
X121902631Y-113179733D01*
X121902631Y-113179733D02*
X121969298Y-113246400D01*
X121969298Y-113246400D02*
X122102631Y-113313066D01*
X122102631Y-113313066D02*
X122369298Y-113313066D01*
X122369298Y-113313066D02*
X122502631Y-113246400D01*
X121235964Y-113179733D02*
X121169298Y-113246400D01*
X121169298Y-113246400D02*
X121235964Y-113313066D01*
X121235964Y-113313066D02*
X121302631Y-113246400D01*
X121302631Y-113246400D02*
X121235964Y-113179733D01*
X121235964Y-113179733D02*
X121235964Y-113313066D01*
X120702631Y-112379733D02*
X120369297Y-113313066D01*
X120369297Y-113313066D02*
X120035964Y-112379733D01*
X119502630Y-113179733D02*
X119435964Y-113246400D01*
X119435964Y-113246400D02*
X119502630Y-113313066D01*
X119502630Y-113313066D02*
X119569297Y-113246400D01*
X119569297Y-113246400D02*
X119502630Y-113179733D01*
X119502630Y-113179733D02*
X119502630Y-113313066D01*
X117235963Y-113246400D02*
X117369296Y-113313066D01*
X117369296Y-113313066D02*
X117635963Y-113313066D01*
X117635963Y-113313066D02*
X117769296Y-113246400D01*
X117769296Y-113246400D02*
X117835963Y-113113066D01*
X117835963Y-113113066D02*
X117835963Y-112579733D01*
X117835963Y-112579733D02*
X117769296Y-112446400D01*
X117769296Y-112446400D02*
X117635963Y-112379733D01*
X117635963Y-112379733D02*
X117369296Y-112379733D01*
X117369296Y-112379733D02*
X117235963Y-112446400D01*
X117235963Y-112446400D02*
X117169296Y-112579733D01*
X117169296Y-112579733D02*
X117169296Y-112713066D01*
X117169296Y-112713066D02*
X117835963Y-112846400D01*
X116702630Y-113313066D02*
X115969296Y-112379733D01*
X116702630Y-112379733D02*
X115969296Y-113313066D01*
X115635963Y-112379733D02*
X115102630Y-112379733D01*
X115435963Y-111913066D02*
X115435963Y-113113066D01*
X115435963Y-113113066D02*
X115369297Y-113246400D01*
X115369297Y-113246400D02*
X115235963Y-113313066D01*
X115235963Y-113313066D02*
X115102630Y-113313066D01*
X114635963Y-113313066D02*
X114635963Y-112379733D01*
X114635963Y-112646400D02*
X114569297Y-112513066D01*
X114569297Y-112513066D02*
X114502630Y-112446400D01*
X114502630Y-112446400D02*
X114369297Y-112379733D01*
X114369297Y-112379733D02*
X114235963Y-112379733D01*
X113169296Y-113313066D02*
X113169296Y-112579733D01*
X113169296Y-112579733D02*
X113235963Y-112446400D01*
X113235963Y-112446400D02*
X113369296Y-112379733D01*
X113369296Y-112379733D02*
X113635963Y-112379733D01*
X113635963Y-112379733D02*
X113769296Y-112446400D01*
X113169296Y-113246400D02*
X113302630Y-113313066D01*
X113302630Y-113313066D02*
X113635963Y-113313066D01*
X113635963Y-113313066D02*
X113769296Y-113246400D01*
X113769296Y-113246400D02*
X113835963Y-113113066D01*
X113835963Y-113113066D02*
X113835963Y-112979733D01*
X113835963Y-112979733D02*
X113769296Y-112846400D01*
X113769296Y-112846400D02*
X113635963Y-112779733D01*
X113635963Y-112779733D02*
X113302630Y-112779733D01*
X113302630Y-112779733D02*
X113169296Y-112713066D01*
X110835962Y-113313066D02*
X110835962Y-111913066D01*
X110835962Y-113246400D02*
X110969296Y-113313066D01*
X110969296Y-113313066D02*
X111235962Y-113313066D01*
X111235962Y-113313066D02*
X111369296Y-113246400D01*
X111369296Y-113246400D02*
X111435962Y-113179733D01*
X111435962Y-113179733D02*
X111502629Y-113046400D01*
X111502629Y-113046400D02*
X111502629Y-112646400D01*
X111502629Y-112646400D02*
X111435962Y-112513066D01*
X111435962Y-112513066D02*
X111369296Y-112446400D01*
X111369296Y-112446400D02*
X111235962Y-112379733D01*
X111235962Y-112379733D02*
X110969296Y-112379733D01*
X110969296Y-112379733D02*
X110835962Y-112446400D01*
X110169295Y-113313066D02*
X110169295Y-112379733D01*
X110169295Y-112646400D02*
X110102629Y-112513066D01*
X110102629Y-112513066D02*
X110035962Y-112446400D01*
X110035962Y-112446400D02*
X109902629Y-112379733D01*
X109902629Y-112379733D02*
X109769295Y-112379733D01*
X108702628Y-113313066D02*
X108702628Y-112579733D01*
X108702628Y-112579733D02*
X108769295Y-112446400D01*
X108769295Y-112446400D02*
X108902628Y-112379733D01*
X108902628Y-112379733D02*
X109169295Y-112379733D01*
X109169295Y-112379733D02*
X109302628Y-112446400D01*
X108702628Y-113246400D02*
X108835962Y-113313066D01*
X108835962Y-113313066D02*
X109169295Y-113313066D01*
X109169295Y-113313066D02*
X109302628Y-113246400D01*
X109302628Y-113246400D02*
X109369295Y-113113066D01*
X109369295Y-113113066D02*
X109369295Y-112979733D01*
X109369295Y-112979733D02*
X109302628Y-112846400D01*
X109302628Y-112846400D02*
X109169295Y-112779733D01*
X109169295Y-112779733D02*
X108835962Y-112779733D01*
X108835962Y-112779733D02*
X108702628Y-112713066D01*
X107435961Y-113313066D02*
X107435961Y-112579733D01*
X107435961Y-112579733D02*
X107502628Y-112446400D01*
X107502628Y-112446400D02*
X107635961Y-112379733D01*
X107635961Y-112379733D02*
X107902628Y-112379733D01*
X107902628Y-112379733D02*
X108035961Y-112446400D01*
X107435961Y-113246400D02*
X107569295Y-113313066D01*
X107569295Y-113313066D02*
X107902628Y-113313066D01*
X107902628Y-113313066D02*
X108035961Y-113246400D01*
X108035961Y-113246400D02*
X108102628Y-113113066D01*
X108102628Y-113113066D02*
X108102628Y-112979733D01*
X108102628Y-112979733D02*
X108035961Y-112846400D01*
X108035961Y-112846400D02*
X107902628Y-112779733D01*
X107902628Y-112779733D02*
X107569295Y-112779733D01*
X107569295Y-112779733D02*
X107435961Y-112713066D01*
X106169294Y-113313066D02*
X106169294Y-111913066D01*
X106169294Y-113246400D02*
X106302628Y-113313066D01*
X106302628Y-113313066D02*
X106569294Y-113313066D01*
X106569294Y-113313066D02*
X106702628Y-113246400D01*
X106702628Y-113246400D02*
X106769294Y-113179733D01*
X106769294Y-113179733D02*
X106835961Y-113046400D01*
X106835961Y-113046400D02*
X106835961Y-112646400D01*
X106835961Y-112646400D02*
X106769294Y-112513066D01*
X106769294Y-112513066D02*
X106702628Y-112446400D01*
X106702628Y-112446400D02*
X106569294Y-112379733D01*
X106569294Y-112379733D02*
X106302628Y-112379733D01*
X106302628Y-112379733D02*
X106169294Y-112446400D01*
X104435960Y-113313066D02*
X104435960Y-112379733D01*
X104435960Y-111913066D02*
X104502627Y-111979733D01*
X104502627Y-111979733D02*
X104435960Y-112046400D01*
X104435960Y-112046400D02*
X104369294Y-111979733D01*
X104369294Y-111979733D02*
X104435960Y-111913066D01*
X104435960Y-111913066D02*
X104435960Y-112046400D01*
X103769293Y-112379733D02*
X103769293Y-113313066D01*
X103769293Y-112513066D02*
X103702627Y-112446400D01*
X103702627Y-112446400D02*
X103569293Y-112379733D01*
X103569293Y-112379733D02*
X103369293Y-112379733D01*
X103369293Y-112379733D02*
X103235960Y-112446400D01*
X103235960Y-112446400D02*
X103169293Y-112579733D01*
X103169293Y-112579733D02*
X103169293Y-113313066D01*
X101435959Y-113313066D02*
X101435959Y-111913066D01*
X101302626Y-112779733D02*
X100902626Y-113313066D01*
X100902626Y-112379733D02*
X101435959Y-112913066D01*
X99702626Y-113313066D02*
X99702626Y-112579733D01*
X99702626Y-112579733D02*
X99769293Y-112446400D01*
X99769293Y-112446400D02*
X99902626Y-112379733D01*
X99902626Y-112379733D02*
X100169293Y-112379733D01*
X100169293Y-112379733D02*
X100302626Y-112446400D01*
X99702626Y-113246400D02*
X99835960Y-113313066D01*
X99835960Y-113313066D02*
X100169293Y-113313066D01*
X100169293Y-113313066D02*
X100302626Y-113246400D01*
X100302626Y-113246400D02*
X100369293Y-113113066D01*
X100369293Y-113113066D02*
X100369293Y-112979733D01*
X100369293Y-112979733D02*
X100302626Y-112846400D01*
X100302626Y-112846400D02*
X100169293Y-112779733D01*
X100169293Y-112779733D02*
X99835960Y-112779733D01*
X99835960Y-112779733D02*
X99702626Y-112713066D01*
X99035959Y-113313066D02*
X99035959Y-111913066D01*
X99035959Y-112446400D02*
X98902626Y-112379733D01*
X98902626Y-112379733D02*
X98635959Y-112379733D01*
X98635959Y-112379733D02*
X98502626Y-112446400D01*
X98502626Y-112446400D02*
X98435959Y-112513066D01*
X98435959Y-112513066D02*
X98369293Y-112646400D01*
X98369293Y-112646400D02*
X98369293Y-113046400D01*
X98369293Y-113046400D02*
X98435959Y-113179733D01*
X98435959Y-113179733D02*
X98502626Y-113246400D01*
X98502626Y-113246400D02*
X98635959Y-113313066D01*
X98635959Y-113313066D02*
X98902626Y-113313066D01*
X98902626Y-113313066D02*
X99035959Y-113246400D01*
X97235959Y-113246400D02*
X97369292Y-113313066D01*
X97369292Y-113313066D02*
X97635959Y-113313066D01*
X97635959Y-113313066D02*
X97769292Y-113246400D01*
X97769292Y-113246400D02*
X97835959Y-113113066D01*
X97835959Y-113113066D02*
X97835959Y-112579733D01*
X97835959Y-112579733D02*
X97769292Y-112446400D01*
X97769292Y-112446400D02*
X97635959Y-112379733D01*
X97635959Y-112379733D02*
X97369292Y-112379733D01*
X97369292Y-112379733D02*
X97235959Y-112446400D01*
X97235959Y-112446400D02*
X97169292Y-112579733D01*
X97169292Y-112579733D02*
X97169292Y-112713066D01*
X97169292Y-112713066D02*
X97835959Y-112846400D01*
X96369292Y-113313066D02*
X96502626Y-113246400D01*
X96502626Y-113246400D02*
X96569292Y-113113066D01*
X96569292Y-113113066D02*
X96569292Y-111913066D01*
X95835959Y-113179733D02*
X95769293Y-113246400D01*
X95769293Y-113246400D02*
X95835959Y-113313066D01*
X95835959Y-113313066D02*
X95902626Y-113246400D01*
X95902626Y-113246400D02*
X95835959Y-113179733D01*
X95835959Y-113179733D02*
X95835959Y-113313066D01*
M02*
