%TF.GenerationSoftware,KiCad,Pcbnew,9.0.7*%
%TF.CreationDate,2026-02-13T16:37:28+01:00*%
%TF.ProjectId,Alpha2_GO_PWM,416c7068-6132-45f4-974f-5f50574d2e6b,rev?*%
%TF.SameCoordinates,Original*%
%TF.FileFunction,Copper,L1,Top*%
%TF.FilePolarity,Positive*%
%FSLAX46Y46*%
G04 Gerber Fmt 4.6, Leading zero omitted, Abs format (unit mm)*
G04 Created by KiCad (PCBNEW 9.0.7) date 2026-02-13 16:37:28*
%MOMM*%
%LPD*%
G01*
G04 APERTURE LIST*
G04 Aperture macros list*
%AMRoundRect*
0 Rectangle with rounded corners*
0 $1 Rounding radius*
0 $2 $3 $4 $5 $6 $7 $8 $9 X,Y pos of 4 corners*
0 Add a 4 corners polygon primitive as box body*
4,1,4,$2,$3,$4,$5,$6,$7,$8,$9,$2,$3,0*
0 Add four circle primitives for the rounded corners*
1,1,$1+$1,$2,$3*
1,1,$1+$1,$4,$5*
1,1,$1+$1,$6,$7*
1,1,$1+$1,$8,$9*
0 Add four rect primitives between the rounded corners*
20,1,$1+$1,$2,$3,$4,$5,0*
20,1,$1+$1,$4,$5,$6,$7,0*
20,1,$1+$1,$6,$7,$8,$9,0*
20,1,$1+$1,$8,$9,$2,$3,0*%
G04 Aperture macros list end*
%TA.AperFunction,SMDPad,CuDef*%
%ADD10RoundRect,0.750000X-2.250000X-1.750000X2.250000X-1.750000X2.250000X1.750000X-2.250000X1.750000X0*%
%TD*%
%TA.AperFunction,ComponentPad*%
%ADD11RoundRect,0.250000X0.750000X0.750000X-0.750000X0.750000X-0.750000X-0.750000X0.750000X-0.750000X0*%
%TD*%
%TA.AperFunction,ComponentPad*%
%ADD12C,2.000000*%
%TD*%
%TA.AperFunction,ComponentPad*%
%ADD13RoundRect,0.250000X0.950000X0.550000X-0.950000X0.550000X-0.950000X-0.550000X0.950000X-0.550000X0*%
%TD*%
%TA.AperFunction,ComponentPad*%
%ADD14O,2.400000X1.600000*%
%TD*%
%TA.AperFunction,ComponentPad*%
%ADD15RoundRect,0.250000X-0.550000X0.550000X-0.550000X-0.550000X0.550000X-0.550000X0.550000X0.550000X0*%
%TD*%
%TA.AperFunction,ComponentPad*%
%ADD16C,1.600000*%
%TD*%
%TA.AperFunction,ComponentPad*%
%ADD17R,1.560000X1.560000*%
%TD*%
%TA.AperFunction,ComponentPad*%
%ADD18C,1.560000*%
%TD*%
%TA.AperFunction,ComponentPad*%
%ADD19C,1.400000*%
%TD*%
%TA.AperFunction,ComponentPad*%
%ADD20RoundRect,0.249999X0.850001X-0.850001X0.850001X0.850001X-0.850001X0.850001X-0.850001X-0.850001X0*%
%TD*%
%TA.AperFunction,ComponentPad*%
%ADD21C,2.200000*%
%TD*%
%TA.AperFunction,ComponentPad*%
%ADD22RoundRect,0.249999X0.850001X0.850001X-0.850001X0.850001X-0.850001X-0.850001X0.850001X-0.850001X0*%
%TD*%
%TA.AperFunction,ComponentPad*%
%ADD23R,1.700000X1.700000*%
%TD*%
%TA.AperFunction,ComponentPad*%
%ADD24C,1.700000*%
%TD*%
%TA.AperFunction,ComponentPad*%
%ADD25RoundRect,0.250000X0.650000X0.650000X-0.650000X0.650000X-0.650000X-0.650000X0.650000X-0.650000X0*%
%TD*%
%TA.AperFunction,ComponentPad*%
%ADD26C,1.800000*%
%TD*%
%TA.AperFunction,ComponentPad*%
%ADD27RoundRect,0.250000X-0.650000X-0.650000X0.650000X-0.650000X0.650000X0.650000X-0.650000X0.650000X0*%
%TD*%
%TA.AperFunction,ComponentPad*%
%ADD28RoundRect,0.250000X0.650000X-0.650000X0.650000X0.650000X-0.650000X0.650000X-0.650000X-0.650000X0*%
%TD*%
%TA.AperFunction,ViaPad*%
%ADD29C,1.200000*%
%TD*%
%TA.AperFunction,Conductor*%
%ADD30C,0.200000*%
%TD*%
%TA.AperFunction,Conductor*%
%ADD31C,0.600000*%
%TD*%
G04 APERTURE END LIST*
D10*
%TO.P,V1,4,Vout-*%
%TO.N,+5V*%
X97100000Y-111900000D03*
%TO.P,V1,3,Vout+*%
%TO.N,GND*%
X97100000Y-121900000D03*
%TO.P,V1,2,Vin-*%
X122600000Y-121900000D03*
%TO.P,V1,1,Vin+*%
%TO.N,+24V*%
X122500000Y-112210000D03*
%TD*%
D11*
%TO.P,C1,1*%
%TO.N,+24V*%
X103500000Y-103500000D03*
D12*
%TO.P,C1,2*%
%TO.N,GND*%
X98500000Y-103500000D03*
%TD*%
D13*
%TO.P,U2,1*%
%TO.N,Net-(D2-K)*%
X112310000Y-87275000D03*
D14*
%TO.P,U2,2*%
%TO.N,GND*%
X112310000Y-84735000D03*
%TO.P,U2,3*%
X104690000Y-84735000D03*
%TO.P,U2,4*%
%TO.N,Net-(U1-PB2)*%
X104690000Y-87275000D03*
%TD*%
D15*
%TO.P,U1,1,~{RESET}/PB5*%
%TO.N,unconnected-(U1-~{RESET}{slash}PB5-Pad1)*%
X106000000Y-74000000D03*
D16*
%TO.P,U1,2,XTAL1/PB3*%
%TO.N,unconnected-(U1-XTAL1{slash}PB3-Pad2)*%
X103460000Y-74000000D03*
%TO.P,U1,3,XTAL2/PB4*%
%TO.N,Net-(U1-XTAL2{slash}PB4)*%
X100920000Y-74000000D03*
%TO.P,U1,4,GND*%
%TO.N,GND*%
X98380000Y-74000000D03*
%TO.P,U1,5,AREF/PB0*%
%TO.N,Net-(J1-Pin_2)*%
X98380000Y-81620000D03*
%TO.P,U1,6,PB1*%
%TO.N,Net-(J2-Pin_3)*%
X100920000Y-81620000D03*
%TO.P,U1,7,PB2*%
%TO.N,Net-(U1-PB2)*%
X103460000Y-81620000D03*
%TO.P,U1,8,VCC*%
%TO.N,+5V*%
X106000000Y-81620000D03*
%TD*%
D17*
%TO.P,RV1,1,1*%
%TO.N,+5V*%
X104740000Y-91500000D03*
D18*
%TO.P,RV1,2,2*%
%TO.N,Net-(U1-XTAL2{slash}PB4)*%
X99740000Y-94000000D03*
%TO.P,RV1,3,3*%
%TO.N,GND*%
X104740000Y-96500000D03*
%TD*%
D19*
%TO.P,R2,1*%
%TO.N,Net-(J4-Pin_2)*%
X118460000Y-93000000D03*
%TO.P,R2,2*%
%TO.N,Net-(D2-K)*%
X123540000Y-93000000D03*
%TD*%
%TO.P,R1,1*%
%TO.N,+5V*%
X114040000Y-77500000D03*
%TO.P,R1,2*%
%TO.N,Net-(U1-PB2)*%
X108960000Y-77500000D03*
%TD*%
D20*
%TO.P,J4,1,Pin_1*%
%TO.N,+24V*%
X121000000Y-99040000D03*
D21*
%TO.P,J4,2,Pin_2*%
%TO.N,Net-(J4-Pin_2)*%
X121000000Y-96500000D03*
%TD*%
D20*
%TO.P,J3,1,Pin_1*%
%TO.N,Net-(D4-A)*%
X121000000Y-106040000D03*
D21*
%TO.P,J3,2,Pin_2*%
%TO.N,Net-(D3-A)*%
X121000000Y-103500000D03*
%TD*%
D22*
%TO.P,J2,1,Pin_1*%
%TO.N,unconnected-(J2-Pin_1-Pad1)*%
X122500000Y-76500000D03*
D21*
%TO.P,J2,2,Pin_2*%
%TO.N,GND*%
X119960000Y-76500000D03*
%TO.P,J2,3,Pin_3*%
%TO.N,Net-(J2-Pin_3)*%
X117420000Y-76500000D03*
%TD*%
D23*
%TO.P,J1,1,Pin_1*%
%TO.N,GND*%
X112500000Y-74000000D03*
D24*
%TO.P,J1,2,Pin_2*%
%TO.N,Net-(J1-Pin_2)*%
X109960000Y-74000000D03*
%TD*%
D25*
%TO.P,D6,1,K*%
%TO.N,Net-(D4-A)*%
X115810000Y-103000000D03*
D26*
%TO.P,D6,2,A*%
%TO.N,GND*%
X108190000Y-103000000D03*
%TD*%
D25*
%TO.P,D5,1,K*%
%TO.N,Net-(D3-A)*%
X115810000Y-99500000D03*
D26*
%TO.P,D5,2,A*%
%TO.N,GND*%
X108190000Y-99500000D03*
%TD*%
D27*
%TO.P,D4,1,K*%
%TO.N,+24V*%
X108190000Y-106500000D03*
D26*
%TO.P,D4,2,A*%
%TO.N,Net-(D4-A)*%
X115810000Y-106500000D03*
%TD*%
D27*
%TO.P,D3,1,K*%
%TO.N,+24V*%
X108380000Y-96000000D03*
D26*
%TO.P,D3,2,A*%
%TO.N,Net-(D3-A)*%
X116000000Y-96000000D03*
%TD*%
D28*
%TO.P,D2,1,K*%
%TO.N,Net-(D2-K)*%
X122000000Y-90310000D03*
D26*
%TO.P,D2,2,A*%
%TO.N,GND*%
X122000000Y-82690000D03*
%TD*%
D16*
%TO.P,C4,1*%
%TO.N,GND*%
X117000000Y-84000000D03*
%TO.P,C4,2*%
%TO.N,Net-(D2-K)*%
X117000000Y-89000000D03*
%TD*%
%TO.P,C3,1*%
%TO.N,GND*%
X101000000Y-84500000D03*
%TO.P,C3,2*%
%TO.N,Net-(U1-PB2)*%
X101000000Y-89500000D03*
%TD*%
%TO.P,C2,1*%
%TO.N,GND*%
X114000000Y-81000000D03*
%TO.P,C2,2*%
%TO.N,+5V*%
X109000000Y-81000000D03*
%TD*%
D29*
%TO.N,+5V*%
X101000000Y-110000000D03*
%TD*%
D30*
%TO.N,GND*%
X118460000Y-75000000D02*
X119960000Y-76500000D01*
X117000000Y-75000000D02*
X118460000Y-75000000D01*
X116000000Y-74000000D02*
X117000000Y-75000000D01*
X112500000Y-74000000D02*
X116000000Y-74000000D01*
%TO.N,Net-(J1-Pin_2)*%
X104101000Y-75399000D02*
X98380000Y-81120000D01*
X107101000Y-75399000D02*
X104101000Y-75399000D01*
X98380000Y-81120000D02*
X98380000Y-81620000D01*
X108500000Y-74000000D02*
X107101000Y-75399000D01*
X109960000Y-74000000D02*
X108500000Y-74000000D01*
D31*
%TO.N,+24V*%
X106250000Y-101500000D02*
X105500000Y-101500000D01*
X105500000Y-101500000D02*
X103500000Y-103500000D01*
X106250000Y-101500000D02*
X106250000Y-97250000D01*
%TO.N,GND*%
X96000000Y-101000000D02*
X98500000Y-103500000D01*
X96000000Y-84500000D02*
X96000000Y-101000000D01*
X98500000Y-102740000D02*
X98500000Y-103500000D01*
X104740000Y-96500000D02*
X98500000Y-102740000D01*
%TO.N,+24V*%
X103500000Y-104500000D02*
X103500000Y-103500000D01*
X105500000Y-106500000D02*
X103500000Y-104500000D01*
%TO.N,GND*%
X103500000Y-108500000D02*
X98500000Y-103500000D01*
X103500000Y-121900000D02*
X103500000Y-108500000D01*
%TO.N,+24V*%
X117000000Y-94000000D02*
X112000000Y-94000000D01*
X118000000Y-95000000D02*
X117000000Y-94000000D01*
X112000000Y-94000000D02*
X110000000Y-96000000D01*
X118000000Y-97000000D02*
X118000000Y-95000000D01*
X120040000Y-99040000D02*
X118000000Y-97000000D01*
X110000000Y-96000000D02*
X108380000Y-96000000D01*
D30*
X121000000Y-99040000D02*
X120040000Y-99040000D01*
D31*
%TO.N,Net-(D3-A)*%
X119500000Y-103500000D02*
X121000000Y-103500000D01*
X115810000Y-99810000D02*
X119500000Y-103500000D01*
D30*
X115810000Y-99500000D02*
X115810000Y-99810000D01*
X115810000Y-96190000D02*
X116000000Y-96000000D01*
D31*
X115810000Y-99500000D02*
X115810000Y-96190000D01*
%TO.N,+24V*%
X106250000Y-106000000D02*
X106000000Y-106000000D01*
X106000000Y-106000000D02*
X105500000Y-106500000D01*
X106250000Y-106000000D02*
X106250000Y-101500000D01*
X106250000Y-107250000D02*
X105500000Y-106500000D01*
X107500000Y-96000000D02*
X108380000Y-96000000D01*
X106250000Y-107250000D02*
X106250000Y-106000000D01*
X106250000Y-97250000D02*
X107500000Y-96000000D01*
X107190000Y-107500000D02*
X106500000Y-107500000D01*
X108190000Y-106500000D02*
X107190000Y-107500000D01*
X106500000Y-107500000D02*
X106250000Y-107250000D01*
%TO.N,GND*%
X108190000Y-103000000D02*
X108190000Y-99500000D01*
%TO.N,Net-(D4-A)*%
X115810000Y-106500000D02*
X115810000Y-103000000D01*
D30*
X120540000Y-106500000D02*
X121000000Y-106040000D01*
D31*
X115810000Y-106500000D02*
X120540000Y-106500000D01*
%TO.N,Net-(J4-Pin_2)*%
X121000000Y-95540000D02*
X121000000Y-96500000D01*
X118460000Y-93000000D02*
X121000000Y-95540000D01*
%TO.N,Net-(D2-K)*%
X123540000Y-91540000D02*
X123540000Y-93000000D01*
X122310000Y-90310000D02*
X123540000Y-91540000D01*
X122000000Y-90310000D02*
X122310000Y-90310000D01*
%TO.N,+5V*%
X99100000Y-111900000D02*
X101000000Y-110000000D01*
D30*
X96250000Y-111900000D02*
X99100000Y-111900000D01*
D31*
%TO.N,GND*%
X96000000Y-75000000D02*
X96000000Y-84500000D01*
X97000000Y-74000000D02*
X96000000Y-75000000D01*
X98380000Y-74000000D02*
X97000000Y-74000000D01*
%TO.N,Net-(J2-Pin_3)*%
X100920000Y-79580000D02*
X100920000Y-81620000D01*
X104500000Y-76000000D02*
X100920000Y-79580000D01*
X116000000Y-75500000D02*
X108500000Y-75500000D01*
X108500000Y-75500000D02*
X108000000Y-76000000D01*
X108000000Y-76000000D02*
X104500000Y-76000000D01*
D30*
X117420000Y-76500000D02*
X117000000Y-76500000D01*
D31*
X117000000Y-76500000D02*
X116000000Y-75500000D01*
%TO.N,GND*%
X101000000Y-84500000D02*
X96000000Y-84500000D01*
%TO.N,+24V*%
X111210000Y-112210000D02*
X106500000Y-107500000D01*
X121650000Y-112210000D02*
X111210000Y-112210000D01*
%TO.N,GND*%
X103500000Y-121900000D02*
X96250000Y-121900000D01*
X121750000Y-121900000D02*
X103500000Y-121900000D01*
X119460000Y-81000000D02*
X119960000Y-80500000D01*
X114000000Y-81000000D02*
X119460000Y-81000000D01*
X114000000Y-83045000D02*
X112310000Y-84735000D01*
X114000000Y-81000000D02*
X114000000Y-83045000D01*
X114000000Y-81000000D02*
X117000000Y-84000000D01*
%TO.N,+5V*%
X107880000Y-81620000D02*
X106000000Y-81620000D01*
X108500000Y-81000000D02*
X107880000Y-81620000D01*
D30*
X109000000Y-81000000D02*
X108500000Y-81000000D01*
D31*
%TO.N,Net-(U1-PB2)*%
X103460000Y-79540000D02*
X103460000Y-81620000D01*
X105500000Y-77500000D02*
X103460000Y-79540000D01*
X108960000Y-77500000D02*
X105500000Y-77500000D01*
%TO.N,+5V*%
X110540000Y-81000000D02*
X114040000Y-77500000D01*
X109000000Y-81000000D02*
X110540000Y-81000000D01*
D30*
%TO.N,GND*%
X119960000Y-80500000D02*
X119960000Y-80650000D01*
D31*
X119960000Y-80650000D02*
X122000000Y-82690000D01*
X119960000Y-76500000D02*
X119960000Y-80500000D01*
D30*
X113380000Y-81620000D02*
X113500000Y-81500000D01*
X104690000Y-84735000D02*
X105735000Y-84735000D01*
X111735000Y-84735000D02*
X112310000Y-84735000D01*
D31*
%TO.N,Net-(D2-K)*%
X120690000Y-89000000D02*
X122000000Y-90310000D01*
X117000000Y-89000000D02*
X120690000Y-89000000D01*
%TO.N,GND*%
X120690000Y-84000000D02*
X122000000Y-82690000D01*
X117000000Y-84000000D02*
X120690000Y-84000000D01*
%TO.N,Net-(D2-K)*%
X114035000Y-89000000D02*
X112310000Y-87275000D01*
X117000000Y-89000000D02*
X114035000Y-89000000D01*
%TO.N,GND*%
X114765000Y-84735000D02*
X112310000Y-84735000D01*
X115500000Y-84000000D02*
X114765000Y-84735000D01*
X117000000Y-84000000D02*
X115500000Y-84000000D01*
X104000000Y-84500000D02*
X101000000Y-84500000D01*
D30*
X104235000Y-84735000D02*
X104000000Y-84500000D01*
X104690000Y-84735000D02*
X104235000Y-84735000D01*
D31*
X112310000Y-84735000D02*
X104690000Y-84735000D01*
%TO.N,Net-(U1-PB2)*%
X103000000Y-89500000D02*
X101000000Y-89500000D01*
X104690000Y-87810000D02*
X103000000Y-89500000D01*
D30*
X104690000Y-87275000D02*
X104690000Y-87810000D01*
%TD*%
M02*
