M48
; DRILL file {KiCad 9.0.7} date 2026-02-13T16:37:32+0100
; FORMAT={-:-/ absolute / metric / decimal}
; #@! TF.CreationDate,2026-02-13T16:37:32+01:00
; #@! TF.GenerationSoftware,Kicad,Pcbnew,9.0.7
; #@! TF.FileFunction,Plated,1,2,PTH
FMAT,2
METRIC
; #@! TA.AperFunction,Plated,PTH,ViaDrill
T1C0.500
; #@! TA.AperFunction,Plated,PTH,ComponentDrill
T2C0.700
; #@! TA.AperFunction,Plated,PTH,ComponentDrill
T3C0.800
; #@! TA.AperFunction,Plated,PTH,ComponentDrill
T4C0.900
; #@! TA.AperFunction,Plated,PTH,ComponentDrill
T5C1.000
; #@! TA.AperFunction,Plated,PTH,ComponentDrill
T6C1.100
%
G90
G05
T1
X101.0Y-110.0
T2
X108.96Y-77.5
X114.04Y-77.5
X118.46Y-93.0
X123.54Y-93.0
T3
X98.38Y-74.0
X98.38Y-81.62
X100.92Y-74.0
X100.92Y-81.62
X101.0Y-84.5
X101.0Y-89.5
X103.46Y-74.0
X103.46Y-81.62
X104.69Y-84.735
X104.69Y-87.275
X106.0Y-74.0
X106.0Y-81.62
X109.0Y-81.0
X112.31Y-84.735
X112.31Y-87.275
X114.0Y-81.0
X117.0Y-84.0
X117.0Y-89.0
T4
X108.19Y-99.5
X108.19Y-103.0
X108.19Y-106.5
X108.38Y-96.0
X115.81Y-99.5
X115.81Y-103.0
X115.81Y-106.5
X116.0Y-96.0
X122.0Y-82.69
X122.0Y-90.31
T5
X98.5Y-103.5
X99.74Y-94.0
X103.5Y-103.5
X104.74Y-91.5
X104.74Y-96.5
X109.96Y-74.0
X112.5Y-74.0
T6
X117.42Y-76.5
X119.96Y-76.5
X121.0Y-96.5
X121.0Y-99.04
X121.0Y-103.5
X121.0Y-106.04
X122.5Y-76.5
M30
